SplineFontDB: 3.2
FontName: sitelentelo
FullName: sitelen telo
FamilyName: sitelen telo
Weight: Regular
Copyright: Copyright 2020 efofecks. This Font Software is licensed under the SIL Open Font License, Version 1.1.
Version: 1.02
ItalicAngle: 0
UnderlinePosition: -125
UnderlineWidth: 50
Ascent: 833
Descent: 167
InvalidEm: 0
sfntRevision: 0x0001051f
LayerCount: 2
Layer: 0 0 "Back" 1
Layer: 1 0 "Fore" 0
HasVMetrics: 1
XUID: [1021 142 -437246559 9480]
StyleMap: 0x0040
FSType: 0
OS2Version: 4
OS2_WeightWidthSlopeOnly: 1
OS2_UseTypoMetrics: 0
CreationTime: 1589922545
ModificationTime: 1754612327
PfmFamily: 81
TTFWeight: 400
TTFWidth: 5
LineGap: 0
VLineGap: 0
Panose: 0 0 0 0 0 0 0 0 0 0
OS2TypoAscent: 833
OS2TypoAOffset: 0
OS2TypoDescent: -167
OS2TypoDOffset: 0
OS2TypoLinegap: 0
OS2WinAscent: 833
OS2WinAOffset: 0
OS2WinDescent: 167
OS2WinDOffset: 0
HheadAscent: 833
HheadAOffset: 0
HheadDescent: -167
HheadDOffset: 0
OS2SubXSize: 650
OS2SubYSize: 600
OS2SubXOff: 0
OS2SubYOff: 75
OS2SupXSize: 650
OS2SupYSize: 600
OS2SupXOff: 0
OS2SupYOff: 350
OS2StrikeYSize: 50
OS2StrikeYPos: 299
OS2CapHeight: 666
OS2XHeight: 499
OS2Vendor: 'NONE'
OS2CodePages: 00000001.00000000
OS2UnicodeRanges: 00000001.10000000.00000000.00000000
Lookup: 4 0 1 "'liga' Standard Ligatures in Latin lookup 0" { "'liga' Standard Ligatures in Latin lookup 0 subtable"  "'liga' Standard Ligatures in Latin lookup 0 secondary subtable"  } ['liga' ('DFLT' <'dflt' > 'latn' <'dflt' > ) ]
Lookup: 258 0 0 "'kern' Horizontal Kerning in Latin lookup 0" { "'kern' Horizontal Kerning in Latin lookup 0 subtable"  } ['kern' ('DFLT' <'dflt' > 'latn' <'dflt' > ) ]
MarkAttachClasses: 1
DEI: 91125
KernClass2: 2 2 "'kern' Horizontal Kerning in Latin lookup 0 subtable"
 90 aexclam colonspace commaspace exclamspace kinexclam periodspace questionspace semequestion
 56 parenright quoteright quotedblright quotedbl quotesingle
 0 {} 0 {} 0 {} -370 {}

StartChar: .notdef
Encoding: 247 -1 0
Width: 500
GlyphClass: 2
Flags: W
LayerCount: 2
Fore
SplineSet
50 -167 m 1
 50 833 l 1
 450 833 l 1
 450 -167 l 1
 50 -167 l 1
100 -117 m 1
 400 -117 l 1
 400 783 l 1
 100 783 l 1
 100 -117 l 1
EndSplineSet
Validated: 1
EndChar

StartChar: A
Encoding: 34 60944 4
AltUni2: 000041.ffffffff.0
Width: 729
GlyphClass: 3
Flags: W
LayerCount: 2
Fore
SplineSet
274 635 m 2
 313 635 l 2
 344 635 359 622 359 596 c 1
 350 557 346 531 346 517 c 1
 430 429 518 330 608 222 c 0
 612 215 615 204 615 190 c 0
 612 177 594 170 562 170 c 0
 528 170 482 207 425 281 c 1
 401 300 357 345 294 419 c 1
 180 183 108 65 78 65 c 0
 48 65 26 76 12 98 c 1
 12 105 l 1
 99 266 165 399 209 504 c 1
 209 517 l 1
 202 550 l 1
 218 574 236 589 254 596 c 1
 257 622 264 635 274 635 c 2
EndSplineSet
Validated: 1
EndChar

StartChar: B
Encoding: 35 66 5
Width: 471
GlyphClass: 2
Flags: W
LayerCount: 2
Fore
SplineSet
61 596 m 1
 133 600 186 601 218 601 c 0
 336 601 403 548 403 454 c 0
 403 397 350 347 303 336 c 1
 397 313 439 263 439 172 c 0
 439 61 346 0 231 0 c 2
 61 0 l 1
 61 596 l 1
142 297 m 1
 142 69 l 1
 170 66 192 65 207 65 c 0
 309 65 354 102 354 185 c 0
 354 272 302 299 208 299 c 2
 142 297 l 1
142 531 m 1
 142 360 l 1
 159 358 181 357 206 357 c 0
 283 357 321 388 321 451 c 0
 321 506 286 534 215 534 c 0
 188 534 164 533 142 531 c 1
EndSplineSet
Validated: 1
EndChar

StartChar: C
Encoding: 36 67 6
Width: 498
GlyphClass: 2
Flags: W
LayerCount: 2
Fore
SplineSet
33 296 m 0
 33 451 117 606 289 606 c 0
 354 606 404 596 441 574 c 1
 414 504 l 1
 388 523 347 533 291 533 c 0
 174 533 118 415 118 291 c 0
 118 171 178 63 292 63 c 0
 348 63 391 83 421 122 c 1
 466 60 l 1
 419 13 358 -10 284 -10 c 0
 119 -10 33 125 33 296 c 0
EndSplineSet
Validated: 1
EndChar

StartChar: D
Encoding: 37 68 7
Width: 510
GlyphClass: 2
Flags: W
LayerCount: 2
Fore
SplineSet
181 0 m 2
 61 0 l 1
 61 596 l 1
 137 599 186 600 208 600 c 0
 374 600 478 489 478 322 c 0
 478 107 379 0 181 0 c 2
203 527 m 0
 195 527 175 526 142 523 c 1
 142 77 l 1
 160 74 183 73 210 73 c 0
 337 73 393 180 393 315 c 0
 393 456 330 527 203 527 c 0
EndSplineSet
Validated: 1
EndChar

StartChar: E
Encoding: 38 60945 8
AltUni2: 000045.ffffffff.0
Width: 485
GlyphClass: 3
Flags: W
LayerCount: 2
Fore
SplineSet
62 635 m 1
 88 635 110 622 128 596 c 1
 123 565 119 506 114 419 c 1
 128 412 l 1
 187 443 235 458 272 458 c 2
 292 458 l 1
 318 443 331 432 331 425 c 0
 331 404 296 380 226 353 c 1
 152 314 114 285 114 268 c 2
 114 248 l 2
 116 239 120 235 128 235 c 2
 134 235 l 1
 205 279 262 301 305 301 c 1
 318 285 324 269 324 255 c 2
 324 241 l 1
 314 218 279 190 219 156 c 1
 219 149 191 140 134 130 c 1
 127 109 120 80 114 45 c 1
 101 38 l 1
 55 38 l 2
 34 38 20 106 16 241 c 1
 16 294 l 2
 16 357 18 456 23 589 c 0
 27 589 40 605 62 635 c 1
EndSplineSet
Validated: 1
EndChar

StartChar: F
Encoding: 39 70 9
Width: 437
GlyphClass: 2
Flags: W
LayerCount: 2
Fore
SplineSet
61 0 m 1
 61 596 l 1
 429 596 l 1
 429 523 l 1
 142 523 l 1
 142 357 l 1
 352 357 l 1
 352 288 l 1
 142 288 l 1
 142 0 l 1
 61 0 l 1
EndSplineSet
Validated: 1
EndChar

StartChar: G
Encoding: 40 71 10
Width: 563
GlyphClass: 2
Flags: W
LayerCount: 2
Fore
SplineSet
33 296 m 0
 33 473 138 606 322 606 c 0
 384 606 435 590 474 555 c 1
 440 487 l 1
 399 518 359 533 320 533 c 0
 189 533 118 428 118 293 c 0
 118 162 188 63 316 63 c 0
 360 63 394 76 421 102 c 1
 421 242 l 1
 338 242 l 1
 338 311 l 1
 502 311 l 1
 502 51 l 1
 461 16 374 -10 299 -10 c 0
 127 -10 33 120 33 296 c 0
EndSplineSet
Validated: 1
EndChar

StartChar: H
Encoding: 41 72 11
Width: 545
GlyphClass: 2
Flags: W
LayerCount: 2
Fore
SplineSet
61 0 m 1
 61 596 l 1
 142 596 l 1
 142 357 l 1
 403 357 l 1
 403 596 l 1
 484 596 l 1
 484 0 l 1
 403 0 l 1
 403 288 l 1
 142 288 l 1
 142 0 l 1
 61 0 l 1
EndSplineSet
Validated: 1
EndChar

StartChar: I
Encoding: 42 60946 12
AltUni2: 000049.ffffffff.0
Width: 353
GlyphClass: 3
Flags: W
LayerCount: 2
Fore
SplineSet
109 651 m 1
 115 651 l 2
 139 651 159 638 174 612 c 1
 174 422 l 1
 168 383 l 1
 172 374 174 368 174 363 c 0
 174 352 172 335 168 311 c 0
 168 288 174 203 187 55 c 1
 187 42 l 1
 176 20 159 9 135 9 c 1
 96 19 76 54 76 114 c 1
 72 137 67 193 63 284 c 1
 67 373 70 467 70 566 c 0
 70 602 83 631 109 651 c 1
EndSplineSet
Validated: 1
EndChar

StartChar: J
Encoding: 43 60928 13
AltUni2: 00004a.ffffffff.0
Width: 644
GlyphClass: 3
Flags: W
LayerCount: 2
Fore
SplineSet
34 0 m 1
 11 0 l 2
 4 0 0 6 0 17 c 1
 103 137 168 251 194 359 c 0
 194 363 192 365 188 365 c 1
 194 393 l 1
 194 445 l 1
 182 462 l 1
 182 479 l 2
 182 505 207 527 257 547 c 1
 365 631 463 655 550 619 c 1
 549 569 543 529 531 500 c 1
 519 425 508 366 497 324 c 1
 468 324 386 300 251 251 c 1
 198 135 126 51 34 0 c 1
285 371 m 1
 393 389 441 415 428 450 c 1
 432 474 l 2
 435 489 437 502 437 513 c 0
 437 524 435 532 429 536 c 2
 413 544 l 1
 403 541 358 516 279 467 c 1
 279 456 l 2
 279 440 281 425 285 410 c 1
 281 395 279 382 279 371 c 1
 285 371 l 1
EndSplineSet
Validated: 33
EndChar

StartChar: K
Encoding: 44 60929 14
AltUni2: 00004b.ffffffff.0
Width: 543
GlyphClass: 3
Flags: W
LayerCount: 2
Fore
SplineSet
319 667 m 1
 347 667 l 2
 367 667 388 656 409 633 c 1
 409 628 l 2
 409 550 386 446 342 314 c 1
 298 219 270 167 258 157 c 1
 162 -11 l 1
 134 -11 l 2
 113 -11 95 2 78 28 c 1
 78 60 121 146 207 286 c 1
 237 355 259 422 274 488 c 1
 269 488 l 2
 256 488 226 467 179 426 c 0
 148 398 112 380 73 370 c 1
 37 382 16 397 11 415 c 1
 11 448 l 1
 18 462 61 488 140 527 c 1
 231 587 290 634 319 667 c 1
EndSplineSet
Validated: 1
EndChar

StartChar: L
Encoding: 45 60930 15
AltUni2: 00004c.ffffffff.0
Width: 681
GlyphClass: 3
Flags: W
LayerCount: 2
Fore
SplineSet
125 668 m 1
 131 668 l 2
 173 668 222 619 277 521 c 1
 286 517 337 458 430 344 c 1
 515 273 558 224 558 198 c 1
 553 178 547 167 540 167 c 2
 503 167 l 1
 443 200 394 241 357 289 c 1
 332 289 l 1
 332 265 259 173 112 15 c 1
 94 15 l 1
 53 32 33 53 33 76 c 2
 33 100 l 1
 175 274 247 376 247 405 c 1
 149 520 100 593 100 625 c 2
 100 644 l 2
 100 650 108 658 125 668 c 1
EndSplineSet
Validated: 1
EndChar

StartChar: M
Encoding: 46 60931 16
AltUni2: 00004d.ffffffff.0
Width: 711
GlyphClass: 3
Flags: W
LayerCount: 2
Fore
SplineSet
488 633 m 2
 495 633 517 613 555 573 c 1
 551 513 548 469 548 440 c 2
 548 386 l 2
 548 283 568 185 608 93 c 1
 608 73 l 2
 608 66 602 60 588 53 c 1
 562 53 l 2
 499 53 453 153 422 353 c 1
 426 376 428 390 428 393 c 0
 425 442 420 466 415 466 c 0
 406 466 402 469 402 473 c 1
 382 470 340 450 275 413 c 1
 207 368 162 346 141 346 c 1
 150 157 155 57 155 46 c 1
 128 26 l 1
 101 26 l 2
 61 26 37 179 28 486 c 1
 46 504 59 513 68 513 c 1
 99 495 121 486 135 486 c 1
 200 524 247 546 275 553 c 0
 377 591 428 618 428 633 c 1
 488 633 l 2
EndSplineSet
Validated: 1
EndChar

StartChar: O
Encoding: 48 60947 17
AltUni2: 00004f.ffffffff.0
Width: 678
GlyphClass: 3
Flags: W
LayerCount: 2
Fore
SplineSet
433 592 m 1
 463 585 485 568 500 539 c 1
 500 532 l 1
 483 427 470 290 460 120 c 1
 442 111 426 107 413 107 c 1
 373 127 l 1
 300 100 225 78 147 60 c 1
 72 60 34 80 34 120 c 1
 25 188 18 274 14 379 c 1
 28 419 39 439 47 439 c 2
 87 432 l 1
 129 459 164 475 194 479 c 1
 194 492 265 528 406 585 c 0
 416 585 425 588 433 592 c 1
120 306 m 1
 120 180 l 2
 120 171 127 166 140 166 c 0
 143 166 207 180 333 206 c 0
 351 206 360 220 360 246 c 2
 360 426 l 1
 367 439 l 1
 358 439 353 444 353 452 c 1
 235 392 158 343 120 306 c 1
EndSplineSet
Validated: 1
EndChar

StartChar: P
Encoding: 49 60933 18
AltUni2: 000050.ffffffff.0
Width: 711
GlyphClass: 3
Flags: W
LayerCount: 2
Fore
SplineSet
199 640 m 0
 244 640 269 614 274 563 c 0
 279 511 282 479 282 464 c 2
 282 438 l 1
 287 438 l 1
 447 516 l 2
 454 516 469 530 494 557 c 1
 535 557 564 542 582 511 c 1
 582 413 l 1
 543 306 516 252 499 252 c 2
 473 252 l 2
 468 252 460 261 447 278 c 1
 447 299 l 1
 473 418 l 1
 468 418 l 1
 353 349 287 314 271 314 c 1
 262 292 233 240 184 157 c 0
 135 75 92 32 54 30 c 2
 23 30 l 2
 16 30 13 33 13 40 c 0
 13 50 56 124 142 263 c 1
 170 339 184 401 185 448 c 0
 186 495 178 545 163 599 c 1
 163 619 l 1
 169 633 181 640 199 640 c 0
EndSplineSet
Validated: 33
EndChar

StartChar: Q
Encoding: 50 81 19
Width: 563
GlyphClass: 2
Flags: W
LayerCount: 2
Fore
SplineSet
273 -10 m 0
 99 -10 33 152 33 303 c 0
 33 450 106 607 273 607 c 0
 447 607 529 483 529 303 c 0
 529 166 488 72 406 21 c 1
 436 -23 485 -44 555 -44 c 2
 618 -44 l 1
 606 -123 l 1
 464 -123 371 -84 327 -5 c 1
 318 -9 301 -10 273 -10 c 0
118 303 m 0
 118 185 163 63 273 63 c 0
 397 63 443 170 443 303 c 0
 443 456 387 533 273 533 c 0
 159 533 118 426 118 303 c 0
EndSplineSet
Validated: 1
EndChar

StartChar: R
Encoding: 51 82 20
Width: 484
GlyphClass: 2
Flags: W
LayerCount: 2
Fore
SplineSet
65 596 m 1
 77 596 201 602 214 602 c 0
 357 602 429 545 429 431 c 0
 429 356 374 288 312 274 c 1
 485 0 l 1
 392 0 l 1
 233 256 l 1
 215 256 185 257 146 260 c 1
 146 0 l 1
 65 0 l 1
 65 596 l 1
194 527 m 0
 186 527 170 526 146 523 c 1
 146 329 l 1
 166 326 185 325 203 325 c 0
 294 325 343 346 343 433 c 0
 343 500 297 527 194 527 c 0
EndSplineSet
Validated: 1
EndChar

StartChar: S
Encoding: 52 60934 21
AltUni2: 000053.ffffffff.0
Width: 695
GlyphClass: 3
Flags: W
LayerCount: 2
Fore
SplineSet
454 555 m 1
 480 546 492 538 492 530 c 2
 492 511 l 2
 492 493 446 476 354 461 c 1
 191 394 101 360 84 360 c 0
 55 366 40 374 40 385 c 2
 40 417 l 2
 40 436 90 462 191 492 c 1
 246 513 304 530 367 542 c 0
 367 546 369 549 373 549 c 2
 398 549 l 2
 413 549 432 551 454 555 c 1
511 291 m 1
 532 288 542 282 542 272 c 2
 542 247 l 1
 513 211 365 165 97 109 c 0
 80 109 63 124 46 153 c 1
 46 172 l 2
 46 202 117 227 260 247 c 1
 275 256 359 270 511 291 c 1
EndSplineSet
Validated: 1
EndChar

StartChar: T
Encoding: 53 60935 22
AltUni2: 000054.ffffffff.0
Width: 673
GlyphClass: 3
Flags: W
LayerCount: 2
Fore
SplineSet
540 586 m 1
 554 580 561 575 561 569 c 2
 561 542 l 1
 553 499 474 465 325 441 c 1
 328 424 297 327 232 148 c 1
 237 148 l 1
 316 159 383 164 437 164 c 0
 497 164 535 150 551 121 c 1
 551 104 l 2
 551 91 525 82 475 77 c 1
 444 81 419 83 399 83 c 2
 199 45 l 1
 161 45 l 2
 135 45 115 58 102 83 c 1
 102 110 l 1
 131 135 170 238 221 418 c 1
 221 434 l 1
 209 420 l 1
 178 412 135 405 80 396 c 1
 69 396 l 2
 30 396 10 414 10 450 c 0
 10 474 44 486 113 488 c 1
 228 524 370 557 540 586 c 1
EndSplineSet
Validated: 33
EndChar

StartChar: U
Encoding: 54 60948 23
AltUni2: 000055.ffffffff.0
Width: 640
GlyphClass: 3
Flags: W
LayerCount: 2
Fore
SplineSet
49 559 m 1
 113 559 145 486 145 341 c 2
 145 199 l 2
 145 197 149 191 158 180 c 1
 173 180 207 187 260 199 c 1
 350 199 l 1
 395 212 l 1
 472 212 511 191 511 148 c 1
 478 132 429 117 363 103 c 1
 338 103 l 1
 106 71 l 1
 64 71 42 88 42 122 c 0
 42 140 44 148 49 148 c 1
 42 193 l 1
 42 289 l 2
 42 311 38 321 29 321 c 1
 29 326 31 332 36 341 c 1
 27 439 19 488 10 488 c 1
 10 527 l 1
 18 543 31 553 49 559 c 1
EndSplineSet
Validated: 1
EndChar

StartChar: V
Encoding: 55 86 24
Width: 489
GlyphClass: 2
Flags: W
LayerCount: 2
Fore
SplineSet
227 -8 m 1
 5 596 l 1
 96 596 l 1
 249 157 l 1
 397 596 l 1
 484 596 l 1
 269 -8 l 1
 227 -8 l 1
EndSplineSet
Validated: 1
EndChar

StartChar: W
Encoding: 56 60936 25
AltUni2: 000057.ffffffff.0
Width: 674
GlyphClass: 2
Flags: W
LayerCount: 2
Fore
SplineSet
506 429 m 2
 560 429 587 398 587 335 c 0
 587 316 504 298 338 282 c 1
 281 264 201 246 96 228 c 1
 38 242 9 264 9 295 c 1
 17 295 29 309 43 335 c 0
 53 347 100 363 184 382 c 0
 186 382 195 380 210 376 c 1
 231 376 327 394 499 429 c 1
 506 429 l 2
EndSplineSet
Validated: 1
EndChar

StartChar: X
Encoding: 57 88 26
Width: 463
GlyphClass: 2
Flags: W
LayerCount: 2
Fore
SplineSet
5 0 m 1
 181 309 l 1
 20 596 l 1
 100 596 l 1
 227 371 l 1
 367 596 l 1
 449 596 l 1
 264 308 l 1
 459 0 l 1
 372 0 l 1
 224 239 l 1
 87 0 l 1
 5 0 l 1
EndSplineSet
Validated: 1
EndChar

StartChar: Y
Encoding: 58 89 27
Width: 475
GlyphClass: 2
Flags: W
LayerCount: 2
Fore
SplineSet
197 267 m 1
 5 596 l 1
 89 596 l 1
 238 336 l 1
 386 596 l 1
 470 596 l 1
 279 267 l 1
 279 0 l 1
 197 0 l 1
 197 267 l 1
EndSplineSet
Validated: 1
EndChar

StartChar: Z
Encoding: 59 90 28
Width: 458
GlyphClass: 2
Flags: W
LayerCount: 2
Fore
SplineSet
418 0 m 1
 41 0 l 1
 41 20 l 1
 297 523 l 1
 45 523 l 1
 45 596 l 1
 409 596 l 1
 409 576 l 1
 152 73 l 1
 418 73 l 1
 418 0 l 1
EndSplineSet
Validated: 1
EndChar

StartChar: AA
Encoding: 111 42802 29
Width: 729
GlyphClass: 3
Flags: W
LayerCount: 2
Fore
SplineSet
274 635 m 2
 313 635 l 2
 344 635 359 622 359 596 c 1
 350 557 346 531 346 517 c 1
 430 429 518 330 608 222 c 0
 612 215 615 204 615 190 c 0
 612 177 594 170 562 170 c 0
 528 170 482 207 425 281 c 1
 401 300 357 345 294 419 c 1
 180 183 108 65 78 65 c 0
 48 65 26 76 12 98 c 1
 12 105 l 1
 99 266 165 399 209 504 c 1
 209 517 l 1
 202 550 l 1
 218 574 236 589 254 596 c 1
 257 622 264 635 274 635 c 2
EndSplineSet
Validated: 1
EndChar

StartChar: OO
Encoding: 112 42830 30
Width: 678
GlyphClass: 3
Flags: W
LayerCount: 2
Fore
SplineSet
433 592 m 1
 463 585 485 568 500 539 c 1
 500 532 l 1
 483 427 470 290 460 120 c 1
 442 111 426 107 413 107 c 1
 373 127 l 1
 300 100 225 78 147 60 c 1
 72 60 34 80 34 120 c 1
 25 188 18 274 14 379 c 1
 28 419 39 439 47 439 c 2
 87 432 l 1
 129 459 164 475 194 479 c 1
 194 492 265 528 406 585 c 0
 416 585 425 588 433 592 c 1
120 306 m 1
 120 180 l 2
 120 171 127 166 140 166 c 0
 143 166 207 180 333 206 c 0
 351 206 360 220 360 246 c 2
 360 426 l 1
 367 439 l 1
 358 439 353 444 353 452 c 1
 235 392 158 343 120 306 c 1
EndSplineSet
Validated: 1
EndChar

StartChar: a
Encoding: 66 989440 31
AltUni2: 000061.ffffffff.0
Width: 468
GlyphClass: 3
Flags: W
LayerCount: 2
Fore
SplineSet
358 668 m 1
 387 660 402 653 402 645 c 2
 402 634 l 1
 364 595 338 555 326 513 c 1
 301 483 282 434 269 365 c 1
 269 313 l 1
 294 245 l 1
 286 227 278 218 269 216 c 2
 256 216 l 1
 193 227 162 270 162 348 c 1
 197 500 227 576 250 576 c 1
 287 637 323 668 358 668 c 1
124 202 m 2
 149 202 l 1
 250 162 301 130 301 104 c 1
 292 81 275 70 250 70 c 1
 124 95 60 129 60 173 c 1
 75 192 96 202 124 202 c 2
92 93 m 1
 256 13 l 1
 256 1 l 1
 239 -22 218 -33 193 -33 c 2
 155 -33 l 1
 66 -1 19 24 16 41 c 2
 16 59 l 1
 28 81 53 93 92 93 c 1
EndSplineSet
Validated: 1
EndChar

StartChar: b
Encoding: 67 98 32
Width: 464
GlyphClass: 2
Flags: W
LayerCount: 2
Fore
SplineSet
55 614 m 1
 132 614 l 1
 132 404 l 1
 147 425 197 444 233 444 c 0
 354 444 434 348 434 226 c 0
 434 88 360 -8 227 -8 c 0
 186 -8 141 10 121 31 c 1
 94 -8 l 1
 55 -8 l 1
 55 614 l 1
205 379 m 0
 186 379 141 356 132 345 c 1
 132 93 l 2
 132 82 192 57 205 57 c 0
 315 57 352 108 352 222 c 0
 352 317 298 379 205 379 c 0
EndSplineSet
Validated: 1
EndChar

StartChar: c
Encoding: 68 99 33
Width: 412
GlyphClass: 2
Flags: W
LayerCount: 2
Fore
SplineSet
26 214 m 0
 26 353 113 444 252 444 c 0
 295 444 360 419 384 400 c 1
 345 346 l 1
 329 362 279 379 245 379 c 0
 155 379 108 308 108 214 c 0
 108 112 161 57 251 57 c 0
 286 57 321 70 356 97 c 1
 386 32 l 1
 345 5 293 -8 232 -8 c 0
 103 -8 26 90 26 214 c 0
EndSplineSet
Validated: 1
EndChar

StartChar: d
Encoding: 69 100 34
Width: 464
GlyphClass: 2
Flags: W
LayerCount: 2
Fore
SplineSet
214 -8 m 0
 98 -8 31 86 31 207 c 0
 31 273 50 328 89 374 c 0
 128 420 175 444 229 444 c 0
 274 444 308 433 331 412 c 1
 331 614 l 1
 408 614 l 1
 408 0 l 1
 331 0 l 1
 331 33 l 1
 304 6 265 -8 214 -8 c 0
112 214 m 0
 112 109 159 57 255 57 c 0
 280 57 322 77 331 93 c 1
 331 335 l 1
 311 364 285 379 251 379 c 0
 164 379 112 304 112 214 c 0
EndSplineSet
Validated: 1
EndChar

StartChar: f
Encoding: 71 102 35
Width: 307
GlyphClass: 2
Flags: W
LayerCount: 2
Fore
SplineSet
26 436 m 1
 90 436 l 1
 90 538 143 614 240 614 c 0
 262 614 286 610 312 602 c 1
 290 545 l 1
 274 550 260 553 247 553 c 0
 197 553 165 510 165 459 c 0
 165 452 166 444 167 436 c 1
 256 436 l 1
 256 371 l 1
 167 371 l 1
 167 0 l 1
 90 0 l 1
 90 371 l 1
 26 371 l 1
 26 436 l 1
EndSplineSet
Validated: 1
EndChar

StartChar: g
Encoding: 72 103 36
Width: 418
GlyphClass: 2
Flags: W
LayerCount: 2
Fore
SplineSet
33 284 m 0
 33 376 106 444 198 444 c 0
 241 444 274 434 298 417 c 1
 337 464 l 1
 387 416 l 1
 341 381 l 1
 361 355 371 321 371 280 c 0
 371 189 307 127 222 118 c 2
 158 112 l 2
 144 110 108 101 108 83 c 0
 108 72 122 67 148 67 c 0
 168 67 239 79 258 79 c 0
 344 79 394 36 394 -37 c 0
 394 -127 299 -171 203 -171 c 0
 144 -171 73 -145 39 -119 c 1
 81 -57 l 1
 126 -87 167 -103 205 -103 c 0
 242 -103 319 -89 319 -39 c 0
 319 -4 293 13 242 13 c 0
 225 13 160 0 142 0 c 0
 80 0 49 23 49 70 c 0
 49 105 92 127 124 135 c 1
 63 164 33 213 33 284 c 0
203 382 m 0
 149 382 112 338 112 284 c 0
 112 225 145 179 203 179 c 0
 261 179 290 225 290 284 c 0
 290 336 254 382 203 382 c 0
EndSplineSet
Validated: 1
EndChar

StartChar: h
Encoding: 73 104 37
Width: 455
GlyphClass: 2
Flags: W
LayerCount: 2
Fore
SplineSet
132 0 m 1
 55 0 l 1
 55 614 l 1
 132 614 l 1
 132 388 l 1
 152 419 204 444 253 444 c 0
 349 444 401 373 401 274 c 2
 401 0 l 1
 323 0 l 1
 323 274 l 2
 323 339 290 379 232 379 c 0
 191 379 149 349 132 324 c 1
 132 0 l 1
EndSplineSet
Validated: 1
EndChar

StartChar: i
Encoding: 74 105 38
Width: 237
GlyphClass: 2
Flags: W
LayerCount: 2
Fore
SplineSet
92 371 m 1
 33 371 l 1
 33 436 l 1
 170 436 l 1
 170 0 l 1
 92 0 l 1
 92 371 l 1
87 553 m 0
 87 579 109 600 135 600 c 0
 161 600 183 579 183 553 c 0
 183 527 161 505 135 505 c 0
 109 505 87 527 87 553 c 0
EndSplineSet
Validated: 1
EndChar

StartChar: j
Encoding: 75 106 39
Width: 305
GlyphClass: 2
Flags: W
LayerCount: 2
Fore
SplineSet
223 4 m 2
 223 -116 154 -171 7 -171 c 1
 7 -102 l 1
 85 -102 146 -88 146 2 c 2
 146 371 l 1
 59 371 l 1
 59 436 l 1
 223 436 l 1
 223 4 l 2
127 553 m 0
 127 579 148 600 174 600 c 0
 200 600 222 579 222 553 c 0
 222 527 200 505 174 505 c 0
 148 505 127 527 127 553 c 0
EndSplineSet
Validated: 1
EndChar

StartChar: k
Encoding: 76 107 40
Width: 420
GlyphClass: 2
Flags: W
LayerCount: 2
Fore
SplineSet
132 0 m 1
 55 0 l 1
 55 614 l 1
 132 614 l 1
 132 233 l 1
 299 436 l 1
 389 436 l 1
 250 270 l 1
 420 0 l 1
 336 0 l 1
 200 218 l 1
 132 148 l 1
 132 0 l 1
EndSplineSet
Validated: 1
EndChar

StartChar: l
Encoding: 77 108 41
Width: 245
GlyphClass: 2
Flags: W
LayerCount: 2
Fore
SplineSet
61 614 m 1
 138 614 l 1
 138 136 l 2
 138 89 167 61 211 61 c 1
 211 -8 l 1
 111 -8 61 36 61 123 c 2
 61 614 l 1
EndSplineSet
Validated: 1
EndChar

StartChar: m
Encoding: 78 109 42
Width: 691
GlyphClass: 2
Flags: W
LayerCount: 2
Fore
SplineSet
55 436 m 1
 105 436 l 1
 131 385 l 1
 161 424 198 444 243 444 c 0
 305 444 349 425 374 386 c 1
 391 419 446 444 495 444 c 0
 585 444 637 387 637 291 c 2
 637 0 l 1
 559 0 l 1
 559 276 l 2
 559 345 529 379 470 379 c 0
 432 379 395 350 384 322 c 1
 384 0 l 1
 307 0 l 1
 307 310 l 2
 307 353 272 379 219 379 c 0
 184 379 144 345 132 321 c 1
 132 0 l 1
 55 0 l 1
 55 436 l 1
EndSplineSet
Validated: 1
EndChar

StartChar: n
Encoding: 79 110 43
Width: 455
GlyphClass: 2
Flags: W
LayerCount: 2
Fore
SplineSet
55 0 m 1
 55 436 l 1
 108 436 l 1
 132 380 l 1
 158 423 199 444 257 444 c 0
 353 444 400 386 400 270 c 2
 400 0 l 1
 323 0 l 1
 323 253 l 2
 323 334 306 379 232 379 c 0
 192 379 149 350 132 324 c 1
 132 0 l 1
 55 0 l 1
EndSplineSet
Validated: 1
EndChar

StartChar: o
Encoding: 80 989508 44
AltUni2: 00006f.ffffffff.0
Width: 793
GlyphClass: 3
Flags: W
LayerCount: 2
Fore
SplineSet
470 643 m 1
 488 643 l 2
 534 643 556 620 556 575 c 1
 512 452 450 343 371 247 c 1
 286 161 218 117 167 117 c 2
 136 117 l 2
 115 117 102 124 99 136 c 2
 99 148 l 1
 230 233 323 325 377 426 c 0
 389 454 396 472 396 482 c 1
 333 466 296 457 284 457 c 0
 280 457 278 459 278 464 c 1
 247 457 l 1
 135 457 53 484 0 538 c 1
 0 544 l 2
 0 566 8 580 25 587 c 1
 31 587 l 1
 140 562 216 550 260 550 c 0
 346 550 416 581 470 643 c 1
488 315 m 1
 507 315 l 2
 551 315 596 286 643 229 c 1
 643 210 l 2
 643 204 635 195 618 185 c 1
 581 185 l 1
 503 198 464 224 464 266 c 2
 464 272 l 2
 464 294 472 309 488 315 c 1
389 173 m 1
 402 173 l 2
 459 173 517 130 575 43 c 1
 575 25 l 1
 568 8 554 0 532 0 c 2
 494 0 l 1
 479 15 444 38 389 68 c 1
 361 91 346 107 346 117 c 1
 362 149 376 167 389 173 c 1
EndSplineSet
Validated: 1
EndChar

StartChar: p
Encoding: 81 112 45
Width: 464
GlyphClass: 2
Flags: W
LayerCount: 2
Fore
SplineSet
55 -171 m 1
 55 436 l 1
 132 436 l 1
 132 400 l 1
 161 429 197 444 238 444 c 0
 370 444 434 355 434 217 c 0
 434 89 367 -8 232 -8 c 0
 200 -8 145 6 132 24 c 1
 132 -171 l 1
 55 -171 l 1
210 379 m 0
 184 379 146 356 132 342 c 1
 132 88 l 1
 142 73 182 57 209 57 c 0
 305 57 353 111 353 220 c 0
 353 330 310 379 210 379 c 0
EndSplineSet
Validated: 1
EndChar

StartChar: q
Encoding: 82 113 46
Width: 464
GlyphClass: 2
Flags: W
LayerCount: 2
Fore
SplineSet
221 -8 m 0
 94 -8 31 86 31 217 c 0
 31 344 104 444 238 444 c 0
 276 444 311 430 344 403 c 1
 365 436 l 1
 411 436 l 1
 411 -171 l 1
 334 -171 l 1
 334 26 l 1
 312 4 274 -8 221 -8 c 0
251 379 m 0
 160 379 112 310 112 217 c 0
 112 124 157 57 247 57 c 0
 284 57 313 66 334 85 c 1
 334 345 l 1
 312 367 284 379 251 379 c 0
EndSplineSet
Validated: 1
EndChar

StartChar: r
Encoding: 83 114 47
Width: 323
GlyphClass: 2
Flags: W
LayerCount: 2
Fore
SplineSet
61 0 m 1
 61 436 l 1
 138 436 l 1
 138 366 l 1
 166 418 208 444 264 444 c 0
 278 444 298 442 324 437 c 1
 292 361 l 1
 275 373 258 379 241 379 c 0
 181 379 138 313 138 250 c 2
 138 0 l 1
 61 0 l 1
EndSplineSet
Validated: 1
EndChar

StartChar: s
Encoding: 84 115 48
Width: 337
GlyphClass: 2
Flags: W
LayerCount: 2
Fore
SplineSet
26 26 m 1
 54 99 l 1
 97 71 132 57 158 57 c 0
 206 57 229 77 229 117 c 0
 229 146 206 170 160 191 c 0
 99 219 29 251 29 330 c 0
 29 406 92 444 170 444 c 0
 202 444 242 434 290 414 c 1
 269 342 l 1
 238 366 207 379 176 379 c 0
 144 379 111 363 111 333 c 0
 111 305 126 283 158 269 c 2
 214 244 l 2
 282 213 311 177 311 117 c 0
 311 32 245 -8 156 -8 c 0
 110 -8 66 3 26 26 c 1
EndSplineSet
Validated: 1
EndChar

StartChar: t
Encoding: 85 116 49
Width: 330
GlyphClass: 2
Flags: W
LayerCount: 2
Fore
SplineSet
32 436 m 1
 83 436 l 1
 83 527 l 1
 160 557 l 1
 160 436 l 1
 279 436 l 1
 279 375 l 1
 160 375 l 1
 160 158 l 2
 160 85 183 57 238 57 c 0
 258 57 278 62 299 72 c 1
 311 4 l 1
 279 -4 243 -8 205 -8 c 0
 133 -8 83 53 83 127 c 2
 83 375 l 1
 32 375 l 1
 32 436 l 1
EndSplineSet
Validated: 1
EndChar

StartChar: u
Encoding: 86 117 50
Width: 455
GlyphClass: 2
Flags: W
LayerCount: 2
Fore
SplineSet
199 -8 m 0
 103 -8 51 49 51 150 c 2
 51 436 l 1
 128 436 l 1
 128 158 l 2
 128 91 158 57 216 57 c 0
 267 57 315 93 328 130 c 1
 328 436 l 1
 405 436 l 1
 405 0 l 1
 328 0 l 1
 328 60 l 1
 312 27 249 -8 199 -8 c 0
EndSplineSet
Validated: 1
EndChar

StartChar: v
Encoding: 87 118 51
Width: 408
GlyphClass: 2
Flags: W
LayerCount: 2
Fore
SplineSet
192 -8 m 1
 5 437 l 1
 90 437 l 1
 205 132 l 1
 322 437 l 1
 403 437 l 1
 212 -8 l 1
 192 -8 l 1
EndSplineSet
Validated: 1
EndChar

StartChar: w
Encoding: 88 119 52
Width: 620
GlyphClass: 2
Flags: W
LayerCount: 2
Fore
SplineSet
6 437 m 1
 89 437 l 1
 182 151 l 1
 298 437 l 1
 318 437 l 1
 438 151 l 1
 538 437 l 1
 614 437 l 1
 458 -8 l 1
 437 -8 l 1
 310 288 l 1
 182 -8 l 1
 162 -8 l 1
 6 437 l 1
EndSplineSet
Validated: 1
EndChar

StartChar: x
Encoding: 89 120 53
Width: 417
GlyphClass: 2
Flags: W
LayerCount: 2
Fore
SplineSet
5 0 m 1
 163 223 l 1
 18 436 l 1
 105 436 l 1
 203 286 l 1
 312 436 l 1
 397 436 l 1
 239 223 l 1
 413 0 l 1
 320 0 l 1
 201 159 l 1
 95 0 l 1
 5 0 l 1
EndSplineSet
Validated: 1
EndChar

StartChar: y
Encoding: 90 121 54
Width: 410
GlyphClass: 2
Flags: W
LayerCount: 2
Fore
SplineSet
5 436 m 1
 84 436 l 1
 212 99 l 1
 327 436 l 1
 406 436 l 1
 221 -74 l 2
 201 -130 127 -171 50 -171 c 1
 50 -102 l 1
 104 -102 168 -74 168 -24 c 0
 168 0 164 23 155 46 c 0
 146 69 136 99 123 133 c 2
 5 436 l 1
EndSplineSet
Validated: 1
EndChar

StartChar: z
Encoding: 91 122 55
Width: 395
GlyphClass: 2
Flags: W
LayerCount: 2
Fore
SplineSet
377 414 m 1
 138 69 l 1
 379 69 l 1
 379 0 l 1
 16 0 l 1
 16 20 l 1
 264 367 l 1
 20 367 l 1
 20 436 l 1
 377 436 l 1
 377 414 l 1
EndSplineSet
Validated: 1
EndChar

StartChar: asciicircum
Encoding: 63 94 56
Width: 436
GlyphClass: 2
Flags: W
LayerCount: 2
Fore
SplineSet
181 649 m 2
 204 649 l 2
 222 649 231 641 231 626 c 0
 226 603 224 587 224 579 c 1
 274 526 326 468 379 404 c 0
 382 399 383 393 383 384 c 0
 382 376 371 373 352 373 c 1
 332 357 304 373 269 422 c 1
 250 439 226 456 196 474 c 1
 126 365 82 310 64 310 c 0
 46 310 33 317 25 330 c 1
 25 334 l 1
 77 430 116 509 142 571 c 1
 142 579 l 1
 138 599 l 1
 148 613 158 622 169 626 c 1
 171 641 175 649 181 649 c 2
EndSplineSet
Validated: 33
EndChar

StartChar: grave
Encoding: 65 96 57
Width: 436
GlyphClass: 2
Flags: W
LayerCount: 2
Fore
SplineSet
137 686 m 1
 171 686 l 1
 192 678 212 641 233 576 c 1
 283 542 309 520 309 509 c 2
 309 500 l 1
 301 484 288 476 271 476 c 2
 266 476 l 2
 200 476 151 533 118 648 c 1
 118 672 l 1
 137 686 l 1
EndSplineSet
Validated: 1
EndChar

StartChar: acute
Encoding: 99 180 58
Width: 436
GlyphClass: 2
Flags: W
LayerCount: 2
Fore
SplineSet
223 658 m 1
 303 658 l 1
 211 523 l 1
 154 523 l 1
 223 658 l 1
EndSplineSet
Validated: 1
EndChar

StartChar: zero
Encoding: 17 48 59
Width: 484
GlyphClass: 2
Flags: W
LayerCount: 2
Fore
SplineSet
206 565 m 1
 360 528 438 455 438 346 c 1
 407 253 349 180 262 126 c 1
 248 111 212 101 156 95 c 1
 93 95 47 137 18 220 c 1
 24 303 56 403 112 521 c 1
 137 545 169 559 206 565 c 1
212 464 m 1
 158 352 131 267 131 208 c 1
 139 204 145 201 150 201 c 0
 204 201 263 241 325 320 c 1
 337 364 l 1
 337 377 l 1
 307 423 265 452 212 464 c 1
EndSplineSet
Validated: 1
EndChar

StartChar: one
Encoding: 18 49 60
Width: 350
GlyphClass: 2
Flags: W
LayerCount: 2
Fore
SplineSet
201 544 m 2
 240 544 262 517 270 463 c 1
 270 451 l 2
 270 396 237 268 170 66 c 1
 156 62 148 60 145 60 c 0
 119 60 95 72 71 97 c 1
 71 128 l 1
 122 405 157 544 177 544 c 2
 201 544 l 2
EndSplineSet
Validated: 1
EndChar

StartChar: two
Encoding: 19 50 61
Width: 473
GlyphClass: 2
Flags: W
LayerCount: 2
Fore
SplineSet
272 559 m 1
 355 533 397 501 397 463 c 0
 391 397 349 319 272 232 c 1
 272 221 l 1
 278 221 l 1
 299 237 335 248 385 255 c 1
 430 250 453 238 453 221 c 0
 453 185 397 155 284 130 c 1
 263 115 209 97 120 74 c 1
 103 74 l 1
 62 84 41 95 41 108 c 2
 41 119 l 2
 41 146 71 176 131 209 c 1
 244 325 301 408 301 458 c 0
 301 465 297 469 289 469 c 2
 284 469 l 2
 247 469 191 448 114 407 c 1
 73 412 52 432 52 469 c 2
 52 486 l 2
 52 509 126 534 272 559 c 1
EndSplineSet
Validated: 1
EndChar

StartChar: three
Encoding: 20 51 62
Width: 436
GlyphClass: 2
Flags: W
LayerCount: 2
Fore
SplineSet
298 572 m 1
 351 559 377 543 377 525 c 0
 377 477 355 418 309 350 c 0
 305 350 321 336 356 307 c 0
 370 293 377 275 377 254 c 0
 377 193 335 129 250 64 c 1
 224 53 l 1
 181 53 147 69 123 101 c 1
 123 127 l 1
 127 138 137 143 155 143 c 0
 173 140 184 138 187 138 c 0
 209 138 245 171 293 238 c 1
 293 254 l 1
 277 254 l 2
 265 254 238 242 197 217 c 1
 151 224 128 243 128 276 c 1
 213 366 264 434 282 477 c 1
 277 488 l 1
 214 467 159 430 112 376 c 1
 81 371 l 1
 75 371 l 2
 56 371 42 380 33 397 c 1
 33 424 l 1
 60 480 126 526 229 562 c 1
 298 572 l 1
EndSplineSet
Validated: 33
EndChar

StartChar: four
Encoding: 21 52 63
Width: 478
GlyphClass: 2
Flags: W
LayerCount: 2
Fore
SplineSet
293 574 m 1
 333 574 352 543 352 480 c 1
 341 446 335 397 335 332 c 2
 335 326 l 1
 370 326 l 2
 421 323 447 315 447 302 c 2
 447 285 l 2
 447 271 408 255 329 237 c 1
 329 231 327 194 323 125 c 1
 315 76 305 50 293 48 c 2
 281 48 l 2
 242 48 222 70 222 113 c 2
 222 220 l 1
 116 220 l 2
 73 220 43 235 27 267 c 1
 27 291 l 1
 80 371 127 461 169 563 c 1
 199 569 l 2
 208 569 229 557 264 533 c 1
 264 549 273 563 293 574 c 1
169 332 m 1
 169 314 l 1
 216 314 l 2
 232 314 240 354 240 432 c 1
 234 432 l 2
 226 432 205 399 169 332 c 1
EndSplineSet
Validated: 1
EndChar

StartChar: five
Encoding: 22 53 64
Width: 404
GlyphClass: 2
Flags: W
LayerCount: 2
Fore
SplineSet
314 606 m 1
 337 577 l 1
 337 565 l 2
 335 544 271 509 145 460 c 1
 137 435 133 417 133 408 c 2
 133 384 l 2
 134 377 138 373 145 373 c 2
 174 373 l 2
 183 373 190 375 197 378 c 1
 310 356 366 321 366 274 c 0
 366 204 312 136 203 70 c 1
 162 58 l 1
 127 58 l 1
 92 63 61 81 34 110 c 1
 39 138 47 151 57 151 c 2
 86 151 l 2
 159 151 218 190 261 268 c 1
 244 279 l 1
 215 279 l 2
 171 279 138 266 116 239 c 1
 110 239 l 1
 59 245 34 268 34 309 c 2
 34 320 l 1
 46 409 51 463 51 483 c 0
 48 497 46 505 46 507 c 0
 46 546 135 579 314 606 c 1
EndSplineSet
Validated: 1
EndChar

StartChar: six
Encoding: 23 54 65
Width: 441
GlyphClass: 2
Flags: W
LayerCount: 2
Fore
SplineSet
216 576 m 2
 241 576 l 2
 247 576 259 564 278 539 c 1
 278 524 249 472 192 384 c 1
 167 333 154 304 154 297 c 1
 161 297 l 1
 223 318 266 328 291 328 c 0
 365 328 403 297 403 235 c 1
 333 119 244 61 136 61 c 1
 61 86 24 121 24 167 c 2
 24 241 l 1
 39 342 87 446 167 551 c 0
 184 568 201 576 216 576 c 2
97 153 m 1
 99 153 106 148 118 139 c 1
 166 139 232 170 316 234 c 1
 316 241 l 1
 279 241 l 1
 160 203 99 174 97 153 c 1
EndSplineSet
Validated: 1
EndChar

StartChar: seven
Encoding: 24 55 66
Width: 451
GlyphClass: 2
Flags: W
LayerCount: 2
Fore
SplineSet
378 562 m 1
 413 531 431 509 431 497 c 1
 313 289 254 157 254 101 c 1
 241 81 229 71 218 71 c 0
 179 84 159 107 159 142 c 0
 159 196 192 293 259 432 c 1
 259 438 l 1
 183 418 133 408 112 408 c 2
 70 408 l 2
 45 408 25 422 11 450 c 1
 11 493 33 515 76 515 c 1
 257 546 358 562 378 562 c 1
EndSplineSet
Validated: 1
EndChar

StartChar: eight
Encoding: 25 56 67
Width: 404
GlyphClass: 2
Flags: W
LayerCount: 2
Fore
SplineSet
184 606 m 2
 254 606 289 587 289 550 c 1
 339 538 363 515 363 482 c 1
 346 454 307 399 246 316 c 1
 246 308 269 292 314 266 c 1
 345 217 l 1
 345 186 l 2
 345 127 302 80 215 44 c 1
 209 44 l 1
 114 55 67 92 67 155 c 2
 67 180 l 2
 67 193 77 228 98 285 c 1
 98 291 l 1
 53 342 30 391 30 439 c 0
 30 522 65 578 135 606 c 1
 184 606 l 2
135 415 m 1
 143 398 147 384 147 371 c 1
 154 371 189 412 252 495 c 1
 252 507 l 1
 226 515 210 519 203 519 c 0
 158 519 135 484 135 415 c 1
197 229 m 1
 180 208 172 179 172 143 c 1
 180 139 186 137 191 137 c 0
 222 137 240 157 246 198 c 0
 246 209 230 219 197 229 c 1
EndSplineSet
Validated: 1
EndChar

StartChar: nine
Encoding: 26 57 68
Width: 426
GlyphClass: 2
Flags: W
LayerCount: 2
Fore
SplineSet
194 565 m 1
 228 565 262 551 296 522 c 1
 308 529 319 533 328 533 c 2
 344 533 l 2
 364 533 378 524 387 506 c 1
 387 479 l 1
 369 430 360 383 360 340 c 2
 360 297 l 2
 360 293 359 291 355 291 c 1
 359 284 360 279 360 275 c 0
 338 111 319 28 301 28 c 2
 275 23 l 1
 239 42 221 60 221 77 c 1
 239 150 250 232 253 324 c 1
 242 324 l 1
 189 281 141 259 98 259 c 1
 44 290 17 318 17 345 c 0
 17 408 64 478 157 554 c 1
 173 554 186 558 194 565 c 1
114 356 m 1
 124 350 l 1
 135 350 l 1
 210 393 248 425 248 447 c 1
 226 461 212 468 205 468 c 0
 178 468 147 431 114 356 c 1
EndSplineSet
Validated: 1
EndChar

StartChar: underscore
Encoding: 64 95 69
Width: 561
GlyphClass: 3
Flags: W
LayerCount: 2
Fore
SplineSet
601 -71 m 0
 637 -82 655 -91 657 -99 c 2
 657 -103 l 2
 657 -126 648 -143 629 -155 c 1
 561 -155 l 1
 510 -172 321 -173 -6 -158 c 0
 -28 -158 -43 -142 -50 -110 c 0
 -48 -101 -40 -93 -26 -86 c 1
 18 -86 l 1
 258 -80 425 -79 521 -83 c 1
 541 -83 l 1
 576 -75 596 -71 601 -71 c 0
EndSplineSet
Validated: 33
EndChar

StartChar: hyphenminus
Encoding: 14 45 70
Width: 447
GlyphClass: 3
Flags: W
LayerCount: 2
Fore
SplineSet
337 360 m 1
 337 358 348 346 369 326 c 1
 369 284 350 263 313 263 c 0
 264 263 225 255 197 239 c 1
 180 236 162 234 141 234 c 2
 125 234 l 1
 98 241 85 257 85 283 c 2
 85 307 l 1
 95 326 105 336 113 336 c 0
 153 336 228 344 337 360 c 1
EndSplineSet
Validated: 1
EndChar

StartChar: endash
Encoding: 101 8211 71
Width: 447
GlyphClass: 3
Flags: W
LayerCount: 2
Fore
SplineSet
337 360 m 1
 337 358 348 346 369 326 c 1
 369 284 350 263 313 263 c 0
 264 263 225 255 197 239 c 1
 180 236 162 234 141 234 c 2
 125 234 l 1
 98 241 85 257 85 283 c 2
 85 307 l 1
 95 326 105 336 113 336 c 0
 153 336 228 344 337 360 c 1
EndSplineSet
Validated: 1
EndChar

StartChar: emdash
Encoding: 102 8212 72
Width: 658
GlyphClass: 2
Flags: W
LayerCount: 2
Fore
SplineSet
574 369 m 1
 620 369 643 349 643 310 c 2
 643 278 l 1
 629 260 622 249 622 246 c 1
 557 253 516 257 499 257 c 0
 322 235 213 221 174 214 c 1
 99 214 l 2
 46 214 19 235 19 278 c 0
 19 293 37 307 72 321 c 1
 110 315 l 1
 168 315 323 333 574 369 c 1
EndSplineSet
Validated: 1
EndChar

StartChar: parenleft
Encoding: 9 40 73
Width: 370
GlyphClass: 2
Flags: W
LayerCount: 2
Fore
SplineSet
319 628 m 0
 325 626 331 617 337 601 c 1
 337 579 306 536 247 471 c 1
 141 340 106 215 142 95 c 1
 130 54 162 -15 237 -113 c 1
 237 -129 l 2
 237 -137 230 -143 215 -145 c 1
 85 -60 20 39 20 154 c 2
 20 176 l 2
 20 250 50 341 110 448 c 0
 181 568 250 628 319 628 c 0
EndSplineSet
Validated: 33
EndChar

StartChar: bracketleft
Encoding: 60 91 74
Width: 365
GlyphClass: 2
Flags: W
LayerCount: 2
Fore
SplineSet
286 772 m 1
 297 772 l 1
 342 764 364 745 364 717 c 2
 364 700 l 2
 364 685 321 670 236 655 c 1
 185 631 152 608 136 589 c 1
 158 535 170 506 170 500 c 2
 170 494 l 1
 165 465 154 450 136 450 c 0
 86 450 51 504 31 611 c 0
 28 611 22 620 14 639 c 1
 14 650 l 2
 14 685 70 718 181 750 c 1
 181 759 216 766 286 772 c 1
EndSplineSet
Validated: 1
EndChar

StartChar: braceleft
Encoding: 92 123 75
Width: 356
GlyphClass: 2
Flags: W
LayerCount: 2
Fore
SplineSet
200 714 m 1
 242 699 263 676 263 642 c 1
 251 633 236 629 220 629 c 1
 199 643 187 651 181 651 c 0
 123 626 94 593 94 553 c 2
 94 544 l 2
 94 502 131 450 206 389 c 1
 206 344 l 2
 206 343 198 334 181 318 c 1
 204 267 217 225 222 192 c 1
 215 159 l 1
 215 130 205 94 186 52 c 1
 186 29 l 2
 186 -4 210 -27 258 -42 c 1
 276 -39 290 -38 302 -38 c 2
 311 -38 l 2
 318 -38 324 -47 331 -65 c 1
 331 -78 318 -90 292 -101 c 1
 249 -101 l 2
 209 -101 163 -74 109 -20 c 0
 99 -9 94 5 94 20 c 2
 94 25 l 2
 94 36 104 83 123 168 c 1
 123 204 l 1
 119 255 106 280 85 280 c 0
 78 277 74 275 70 275 c 0
 36 275 11 286 -7 307 c 1
 -7 336 27 357 94 369 c 1
 104 383 l 1
 104 387 l 1
 45 437 15 493 12 558 c 0
 9 623 56 675 152 714 c 1
 200 714 l 1
EndSplineSet
Validated: 33
EndChar

StartChar: quotesinglbase
Encoding: 105 8218 76
Width: 305
GlyphClass: 2
Flags: W
LayerCount: 2
Fore
SplineSet
108 -135 m 1
 81 -99 l 1
 111 -73 l 2
 126 -60 134 -44 134 -26 c 0
 134 -15 127 -2 114 13 c 0
 101 28 94 41 94 53 c 0
 94 93 114 113 153 113 c 0
 195 113 216 89 216 41 c 0
 216 -31 180 -90 108 -135 c 1
EndSplineSet
Validated: 1
EndChar

StartChar: quotedblbase
Encoding: 108 8222 77
Width: 436
GlyphClass: 2
Flags: W
LayerCount: 2
Fore
SplineSet
281 -135 m 1
 253 -99 l 1
 284 -73 l 2
 299 -60 306 -44 306 -26 c 0
 306 -15 299 -2 286 13 c 0
 273 28 266 41 266 53 c 0
 266 93 286 113 325 113 c 0
 367 113 389 89 389 41 c 0
 389 -31 353 -90 281 -135 c 1
94 -135 m 1
 67 -99 l 1
 97 -73 l 2
 112 -60 120 -44 120 -26 c 0
 120 -15 113 -2 100 13 c 0
 87 28 80 41 80 53 c 0
 80 93 100 113 139 113 c 0
 181 113 202 89 202 41 c 0
 202 -31 166 -90 94 -135 c 1
EndSplineSet
Validated: 1
EndChar

StartChar: parenright
Encoding: 10 41 78
Width: 437
GlyphClass: 2
Flags: W
LayerCount: 2
Fore
SplineSet
54 642 m 0
 95 638 165 583 264 475 c 1
 299 415 317 359 317 308 c 1
 322 274 l 1
 322 156 259 24 135 -122 c 1
 112 -128 96 -131 88 -131 c 1
 72 -115 64 -104 64 -98 c 0
 64 -87 99 -38 169 50 c 1
 195 110 209 154 209 180 c 2
 209 280 l 1
 189 343 172 381 156 395 c 1
 103 502 64 559 40 566 c 1
 16 594 l 1
 16 626 29 642 54 642 c 0
EndSplineSet
Validated: 1
EndChar

StartChar: bracketright
Encoding: 62 93 79
Width: 372
GlyphClass: 2
Flags: W
LayerCount: 2
Fore
SplineSet
114 202 m 2
 144 202 l 2
 168 202 186 155 197 60 c 1
 237 13 257 -35 257 -83 c 1
 247 -98 192 -112 91 -125 c 0
 91 -129 65 -137 13 -148 c 1
 -30 -138 -52 -122 -52 -101 c 0
 -52 -61 -32 -41 7 -41 c 1
 37 -27 75 -15 120 -6 c 1
 120 6 l 1
 96 63 85 114 85 161 c 1
 98 188 108 202 114 202 c 2
EndSplineSet
Validated: 1
EndChar

StartChar: braceright
Encoding: 94 125 80
Width: 383
GlyphClass: 2
Flags: W
LayerCount: 2
Fore
SplineSet
98 729 m 1
 195 712 244 675 244 618 c 2
 244 597 l 2
 244 580 227 516 192 405 c 1
 192 384 l 2
 192 347 214 328 259 328 c 0
 264 328 274 324 287 316 c 1
 303 316 311 306 311 286 c 0
 308 270 286 253 244 234 c 0
 244 230 241 221 235 209 c 1
 238 162 244 113 254 64 c 1
 254 0 221 -51 154 -90 c 1
 126 -94 l 1
 116 -94 l 1
 69 -88 45 -72 45 -47 c 2
 45 -43 l 2
 45 -38 52 -33 64 -26 c 1
 98 -30 l 1
 134 -30 158 3 169 68 c 1
 133 152 115 201 115 215 c 1
 125 239 135 257 143 266 c 1
 143 274 l 1
 96 296 72 341 72 411 c 1
 127 523 154 585 154 597 c 0
 146 640 133 661 116 661 c 0
 95 658 78 657 64 657 c 0
 33 662 17 673 17 691 c 0
 17 717 38 729 79 729 c 2
 98 729 l 1
EndSplineSet
Validated: 1
EndChar

StartChar: quoteleft
Encoding: 103 8216 81
Width: 365
GlyphClass: 2
Flags: W
LayerCount: 2
Fore
SplineSet
286 772 m 1
 297 772 l 1
 342 764 364 745 364 717 c 2
 364 700 l 2
 364 685 321 670 236 655 c 1
 185 631 152 608 136 589 c 1
 158 535 170 506 170 500 c 2
 170 494 l 1
 165 465 154 450 136 450 c 0
 86 450 51 504 31 611 c 0
 28 611 22 620 14 639 c 1
 14 650 l 2
 14 685 70 718 181 750 c 1
 181 759 216 766 286 772 c 1
EndSplineSet
Validated: 1
EndChar

StartChar: quotedblleft
Encoding: 106 8220 82
Width: 365
GlyphClass: 2
Flags: W
LayerCount: 2
Fore
SplineSet
286 772 m 1
 297 772 l 1
 342 764 364 745 364 717 c 2
 364 700 l 2
 364 685 321 670 236 655 c 1
 185 631 152 608 136 589 c 1
 158 535 170 506 170 500 c 2
 170 494 l 1
 165 465 154 450 136 450 c 0
 86 450 51 504 31 611 c 0
 28 611 22 620 14 639 c 1
 14 650 l 2
 14 685 70 718 181 750 c 1
 181 759 216 766 286 772 c 1
EndSplineSet
Validated: 1
EndChar

StartChar: quoteright
Encoding: 104 8217 83
Width: 372
GlyphClass: 2
Flags: W
LayerCount: 2
Fore
SplineSet
114 202 m 2
 144 202 l 2
 168 202 186 155 197 60 c 1
 237 13 257 -35 257 -83 c 1
 247 -98 192 -112 91 -125 c 0
 91 -129 65 -137 13 -148 c 1
 -30 -138 -52 -122 -52 -101 c 0
 -52 -61 -32 -41 7 -41 c 1
 37 -27 75 -15 120 -6 c 1
 120 6 l 1
 96 63 85 114 85 161 c 1
 98 188 108 202 114 202 c 2
EndSplineSet
Validated: 1
EndChar

StartChar: quotedblright
Encoding: 107 8221 84
Width: 372
GlyphClass: 2
Flags: W
LayerCount: 2
Fore
SplineSet
114 202 m 2
 144 202 l 2
 168 202 186 155 197 60 c 1
 237 13 257 -35 257 -83 c 1
 247 -98 192 -112 91 -125 c 0
 91 -129 65 -137 13 -148 c 1
 -30 -138 -52 -122 -52 -101 c 0
 -52 -61 -32 -41 7 -41 c 1
 37 -27 75 -15 120 -6 c 1
 120 6 l 1
 96 63 85 114 85 161 c 1
 98 188 108 202 114 202 c 2
EndSplineSet
Validated: 1
EndChar

StartChar: exclam
Encoding: 2 33 85
Width: 305
GlyphClass: 2
Flags: W
LayerCount: 2
Fore
SplineSet
169 617 m 2
 174 617 l 2
 188 617 202 590 214 537 c 1
 201 320 186 212 169 212 c 2
 146 212 l 2
 117 212 96 229 83 263 c 1
 112 548 l 2
 112 555 108 566 100 582 c 1
 121 605 144 617 169 617 c 2
125 113 m 2
 160 113 l 2
 164 113 180 98 205 67 c 1
 201 22 192 -1 177 -1 c 2
 137 -1 l 1
 95 24 74 45 74 62 c 0
 79 96 96 113 125 113 c 2
EndSplineSet
Validated: 1
EndChar

StartChar: quotedbl
Encoding: 3 34 86
Width: 270
GlyphClass: 2
Flags: W
LayerCount: 2
Fore
SplineSet
39 442 m 1
 29 597 l 1
 104 597 l 1
 93 442 l 1
 39 442 l 1
173 442 m 1
 164 597 l 1
 238 597 l 1
 227 442 l 1
 173 442 l 1
EndSplineSet
Validated: 1
EndChar

StartChar: numbersign
Encoding: 4 35 87
Width: 677
GlyphClass: 2
Flags: W
LayerCount: 2
Fore
SplineSet
267 601 m 2
 283 601 l 2
 287 601 299 589 320 564 c 1
 320 496 l 1
 304 475 l 1
 304 454 l 1
 341 454 l 1
 349 466 368 510 398 585 c 1
 409 591 l 1
 435 591 l 2
 440 591 451 580 467 559 c 1
 467 523 l 1
 456 486 l 1
 467 481 l 1
 535 481 l 2
 575 481 603 468 619 444 c 1
 619 423 l 2
 618 418 610 411 592 402 c 1
 529 407 l 1
 460 407 425 386 425 344 c 1
 414 308 l 1
 425 302 l 1
 430 302 l 2
 517 302 561 290 561 266 c 2
 561 250 l 2
 561 238 503 226 388 213 c 1
 363 94 343 35 325 35 c 2
 315 35 l 1
 280 42 262 51 262 61 c 2
 262 77 l 1
 270 133 279 166 288 177 c 1
 288 187 l 1
 283 198 l 1
 227 198 199 178 199 140 c 0
 199 98 180 77 142 77 c 1
 121 84 110 98 110 119 c 2
 110 124 l 1
 121 161 l 1
 112 168 107 171 105 171 c 0
 81 168 62 166 47 166 c 1
 16 178 0 197 0 224 c 0
 0 247 51 263 152 271 c 1
 163 299 168 315 168 318 c 0
 161 322 156 323 152 323 c 0
 148 323 130 322 100 318 c 1
 65 330 47 347 47 371 c 2
 47 376 l 1
 62 404 101 418 163 418 c 0
 194 418 210 449 210 512 c 1
 221 564 230 591 236 591 c 0
 247 598 258 601 267 601 c 2
246 287 m 1
 257 281 l 1
 302 281 325 297 325 329 c 1
 330 360 l 1
 320 365 l 1
 282 365 257 339 246 287 c 1
EndSplineSet
Validated: 1
EndChar

StartChar: percent
Encoding: 6 37 88
Width: 559
GlyphClass: 2
Flags: W
LayerCount: 2
Fore
SplineSet
367 592 m 2
 372 592 l 1
 396 575 407 557 407 536 c 1
 374 440 266 273 85 37 c 1
 70 37 l 2
 44 37 29 44 24 57 c 1
 24 77 l 2
 24 100 80 180 191 319 c 1
 242 398 291 485 337 582 c 1
 348 588 358 592 367 592 c 2
140 577 m 0
 177 577 212 548 246 491 c 1
 246 481 l 2
 246 460 231 436 201 410 c 1
 174 373 136 355 85 355 c 0
 54 355 28 372 9 405 c 1
 9 430 l 2
 9 457 29 501 70 562 c 1
 93 572 117 577 140 577 c 0
100 441 m 1
 110 435 l 1
 150 455 170 475 170 496 c 1
 155 506 l 1
 145 506 l 2
 138 505 122 484 100 441 c 1
261 239 m 1
 271 239 l 2
 283 239 291 237 297 234 c 2
 327 239 l 1
 384 239 421 217 438 173 c 1
 438 133 l 1
 406 69 364 37 312 37 c 2
 271 37 l 2
 236 37 212 57 201 98 c 1
 201 174 221 222 261 239 c 1
307 178 m 1
 293 161 286 142 286 123 c 2
 286 108 l 1
 291 108 l 1
 342 116 367 136 367 168 c 1
 340 175 320 178 307 178 c 1
EndSplineSet
Validated: 1
EndChar

StartChar: ampersand
Encoding: 7 38 89
Width: 651
GlyphClass: 2
Flags: W
LayerCount: 2
Fore
SplineSet
366 649 m 2
 387 649 l 2
 431 649 456 608 461 527 c 1
 461 521 l 1
 430 436 399 394 366 394 c 1
 344 372 316 356 280 346 c 1
 263 336 254 328 254 325 c 0
 277 254 303 218 334 218 c 1
 369 246 387 269 387 287 c 0
 387 323 401 341 429 341 c 0
 457 341 487 302 520 224 c 0
 523 224 525 222 525 218 c 2
 525 176 l 2
 523 165 509 160 482 160 c 1
 467 170 451 182 435 197 c 1
 424 197 l 2
 419 197 403 181 376 149 c 1
 451 48 l 1
 451 32 l 2
 451 27 443 20 429 11 c 1
 419 11 l 2
 384 11 353 39 328 96 c 0
 325 96 319 98 312 101 c 1
 269 69 228 54 190 54 c 2
 153 54 l 2
 68 54 25 80 25 133 c 1
 22 133 20 135 20 139 c 0
 20 233 68 309 164 367 c 1
 164 442 l 2
 164 494 213 556 312 628 c 0
 337 642 355 649 366 649 c 2
243 415 m 1
 249 415 l 1
 330 454 371 498 371 548 c 2
 371 564 l 1
 355 564 l 1
 280 513 243 464 243 415 c 1
164 277 m 1
 125 229 105 182 105 133 c 1
 116 128 l 1
 185 128 l 2
 193 128 218 137 259 155 c 1
 259 165 l 1
 206 230 179 267 179 277 c 1
 164 277 l 1
EndSplineSet
Validated: 1
EndChar

StartChar: quotesingle
Encoding: 8 39 90
Width: 133
GlyphClass: 2
Flags: W
LayerCount: 2
Fore
SplineSet
104 597 m 1
 93 442 l 1
 39 442 l 1
 29 597 l 1
 104 597 l 1
EndSplineSet
Validated: 1
EndChar

StartChar: asterisk
Encoding: 11 42 91
Width: 404
GlyphClass: 2
Flags: W
LayerCount: 2
Fore
SplineSet
299 619 m 0
 311 615 320 607 327 595 c 1
 327 587 l 2
 327 572 308 540 271 491 c 1
 327 474 355 459 355 447 c 2
 355 439 l 1
 351 428 341 423 327 423 c 2
 307 423 l 1
 267 427 l 1
 267 423 l 1
 291 398 303 377 303 359 c 2
 303 355 l 2
 303 351 299 347 291 343 c 1
 259 343 l 2
 256 343 233 363 191 403 c 1
 151 366 117 347 87 347 c 1
 83 355 l 1
 83 371 98 393 127 423 c 1
 127 431 l 1
 124 431 120 432 115 435 c 0
 112 435 108 434 103 431 c 0
 75 431 57 442 47 463 c 1
 47 484 54 497 67 503 c 1
 75 503 l 1
 123 499 l 1
 123 509 112 529 91 559 c 1
 91 583 l 2
 91 592 106 598 135 603 c 1
 170 581 187 558 187 535 c 1
 199 523 l 1
 203 523 l 1
 251 584 279 615 287 615 c 0
 292 618 296 619 299 619 c 0
EndSplineSet
Validated: 1
EndChar

StartChar: comma
Encoding: 13 44 92
Width: 305
GlyphClass: 2
Flags: W
LayerCount: 2
Fore
SplineSet
153 122 m 0
 199 122 222 89 222 23 c 1
 190 -87 158 -145 126 -153 c 0
 94 -160 74 -164 66 -164 c 1
 49 -147 41 -130 41 -115 c 1
 85 -113 l 1
 103 -78 112 -45 110 -15 c 2
 110 -9 l 1
 105 44 103 75 103 85 c 1
 122 108 138 120 153 122 c 0
EndSplineSet
Validated: 33
EndChar

StartChar: period
Encoding: 15 989596 93
AltUni2: 00002e.ffffffff.0
Width: 305
GlyphClass: 2
Flags: W
GlyphCompositionVertical: 1  vertical_ideographic_full_stop()%0,0,0,0
LayerCount: 2
Fore
SplineSet
107 138 m 5
 162 120 202 99 227 74 c 5
 227 17 203 -15 155 -22 c 5
 80 -16 43 11 43 58 c 6
 43 66 l 6
 43 100 64 124 107 138 c 5
EndSplineSet
EndChar

StartChar: slash
Encoding: 16 47 94
Width: 436
GlyphClass: 2
Flags: W
LayerCount: 2
Fore
SplineSet
319 704 m 1
 328 704 l 2
 350 704 368 688 383 656 c 1
 383 621 l 1
 334 466 261 283 161 71 c 0
 132 10 113 -24 102 -29 c 1
 77 -29 l 1
 48 -17 33 1 33 24 c 0
 33 38 89 164 200 402 c 1
 260 577 295 671 304 686 c 0
 304 692 309 697 319 704 c 1
EndSplineSet
Validated: 1
EndChar

StartChar: colon
Encoding: 27 989597 95
AltUni2: 00003a.ffffffff.0
Width: 305
GlyphClass: 2
Flags: W
LayerCount: 2
Fore
SplineSet
114 433 m 5
 161 418 194 400 216 378 c 5
 216 330 196 303 155 297 c 5
 92 303 60 325 60 365 c 6
 60 372 l 6
 60 401 78 421 114 433 c 5
112 126 m 5
 177 112 209 98 209 86 c 6
 209 63 l 6
 209 44 200 27 181 12 c 5
 84 12 l 6
 78 12 70 20 61 35 c 5
 76 96 93 126 112 126 c 5
EndSplineSet
Validated: 1
EndChar

StartChar: semicolon
Encoding: 28 59 96
Width: 305
GlyphClass: 2
Flags: W
LayerCount: 2
Fore
SplineSet
149 441 m 2
 164 441 l 2
 195 441 214 417 220 370 c 0
 220 349 203 327 169 304 c 1
 144 304 l 2
 113 304 94 328 88 375 c 1
 88 419 108 441 149 441 c 2
165 110 m 1
 211 82 234 37 234 -24 c 1
 199 -79 156 -107 105 -107 c 1
 71 -98 54 -87 54 -74 c 1
 58 -62 87 -39 142 -5 c 1
 142 2 143 8 146 13 c 1
 125 45 114 67 114 78 c 2
 114 87 l 2
 114 99 131 106 165 110 c 1
EndSplineSet
Validated: 1
EndChar

StartChar: question
Encoding: 32 63 97
Width: 358
GlyphClass: 2
Flags: W
LayerCount: 2
Fore
SplineSet
239 675 m 2
 296 675 l 2
 329 675 353 647 369 591 c 1
 369 568 l 2
 369 526 325 444 239 321 c 1
 215 267 196 237 183 231 c 1
 155 231 l 1
 121 238 105 251 105 271 c 0
 105 306 144 380 222 495 c 0
 245 534 256 558 256 568 c 1
 234 568 l 1
 136 463 83 411 76 411 c 0
 31 411 9 428 9 462 c 2
 9 467 l 1
 72 573 135 636 200 658 c 1
 214 669 227 675 239 675 c 2
183 102 m 0
 236 100 262 81 262 46 c 1
 266 46 267 44 267 40 c 2
 267 12 l 1
 258 -7 243 -16 222 -16 c 0
 171 -16 143 14 138 74 c 1
 158 93 173 102 183 102 c 0
EndSplineSet
Validated: 1
EndChar

StartChar: at
Encoding: 33 64 98
Width: 641
GlyphClass: 2
Flags: W
LayerCount: 2
Fore
SplineSet
376 568 m 2
 381 568 l 2
 410 568 456 541 520 487 c 1
 543 433 554 384 554 339 c 0
 554 285 524 228 462 167 c 1
 422 162 l 2
 409 162 387 172 356 192 c 1
 324 161 295 146 269 146 c 2
 246 146 l 2
 209 146 180 163 159 197 c 1
 157 314 205 386 301 412 c 1
 369 419 l 1
 403 412 424 395 433 369 c 0
 441 342 447 316 451 289 c 1
 460 289 470 304 479 334 c 1
 479 423 447 478 381 497 c 1
 285 497 202 419 133 263 c 0
 126 253 118 216 110 152 c 1
 125 81 175 42 260 35 c 1
 283 35 l 2
 365 35 438 72 502 147 c 1
 531 152 l 1
 547 147 554 142 554 137 c 2
 554 96 l 2
 554 66 510 27 422 -21 c 1
 365 -34 326 -41 306 -41 c 2
 301 -41 l 2
 141 -41 47 16 18 131 c 1
 18 192 l 1
 26 277 70 371 151 476 c 1
 228 534 287 563 329 563 c 0
 344 566 360 568 376 568 c 2
252 237 m 1
 252 217 l 1
 275 217 l 1
 329 249 356 278 356 303 c 1
 341 327 331 339 327 339 c 2
 321 339 l 2
 303 339 279 305 252 237 c 1
EndSplineSet
Validated: 33
EndChar

StartChar: backslash
Encoding: 61 92 99
Width: 377
GlyphClass: 2
Flags: W
LayerCount: 2
Fore
SplineSet
73 691 m 1
 83 684 88 678 88 672 c 0
 97 657 132 561 194 382 c 1
 308 138 365 8 365 -6 c 0
 365 -30 350 -48 320 -60 c 1
 295 -60 l 1
 283 -55 263 -20 234 43 c 0
 132 260 56 448 7 606 c 1
 7 642 l 1
 22 674 41 691 62 691 c 2
 73 691 l 1
EndSplineSet
Validated: 1
EndChar

StartChar: exclamdown
Encoding: 97 161 100
Width: 305
GlyphClass: 2
Flags: W
LayerCount: 2
Fore
SplineSet
108 -171 m 1
 108 -4 l 2
 108 49 118 144 139 280 c 1
 168 280 l 1
 189 141 200 47 200 -4 c 2
 200 -171 l 1
 108 -171 l 1
156 321 m 0
 123 321 95 349 95 382 c 0
 95 415 123 444 156 444 c 0
 189 444 217 415 217 382 c 0
 217 349 189 321 156 321 c 0
EndSplineSet
Validated: 1
EndChar

StartChar: periodcentered
Encoding: 100 183 101
Width: 436
GlyphClass: 2
Flags: W
LayerCount: 2
Fore
SplineSet
103 234 m 0
 103 299 157 351 221 351 c 0
 285 351 338 298 338 234 c 0
 338 170 286 116 221 116 c 0
 156 116 103 169 103 234 c 0
EndSplineSet
Validated: 1
EndChar

StartChar: bullet
Encoding: 109 8226 102
Width: 436
GlyphClass: 2
Flags: W
LayerCount: 2
Fore
SplineSet
103 234 m 0
 103 299 157 351 221 351 c 0
 285 351 338 298 338 234 c 0
 338 170 286 116 221 116 c 0
 156 116 103 169 103 234 c 0
EndSplineSet
Validated: 1
EndChar

StartChar: ellipsis
Encoding: 110 8230 103
Width: 684
GlyphClass: 2
Flags: W
LayerCount: 2
Fore
SplineSet
99 138 m 1
 146 123 181 104 203 82 c 1
 203 32 182 5 140 -1 c 1
 75 4 43 27 43 68 c 2
 43 75 l 2
 43 105 62 126 99 138 c 1
305 151 m 1
 352 136 387 117 409 95 c 1
 409 45 388 18 346 12 c 1
 281 17 249 40 249 81 c 2
 249 88 l 2
 249 118 268 139 305 151 c 1
EndSplineSet
Validated: 1
EndChar

StartChar: plus
Encoding: 12 43 104
Width: 480
GlyphClass: 2
Flags: W
LayerCount: 2
Fore
SplineSet
212 471 m 2
 222 471 l 1
 255 461 271 421 271 352 c 2
 271 333 l 1
 291 333 l 1
 395 347 l 1
 427 331 444 308 444 278 c 1
 437 263 431 255 424 254 c 2
 375 254 l 2
 309 254 276 242 276 219 c 2
 281 185 l 1
 281 145 l 2
 281 112 268 96 242 96 c 2
 232 96 l 2
 202 96 188 122 188 175 c 2
 188 219 l 1
 183 219 l 2
 164 219 140 216 109 209 c 1
 46 213 15 223 15 239 c 2
 15 273 l 2
 15 278 27 290 50 308 c 1
 77 308 118 310 173 313 c 1
 173 319 174 323 178 323 c 1
 171 334 168 343 168 352 c 2
 168 407 l 1
 163 441 l 1
 183 461 199 471 212 471 c 2
EndSplineSet
Validated: 1
EndChar

StartChar: less
Encoding: 29 60 105
Width: 565
GlyphClass: 2
Flags: W
LayerCount: 2
Fore
SplineSet
212 525 m 1
 242 511 257 490 257 463 c 1
 239 420 197 358 132 275 c 1
 132 269 l 1
 246 179 303 129 303 121 c 1
 307 121 308 115 308 104 c 1
 302 89 289 81 269 81 c 0
 230 81 143 142 7 263 c 1
 1 275 l 1
 1 299 22 327 64 360 c 1
 100 406 131 453 155 502 c 1
 171 518 190 525 212 525 c 1
394 497 m 2
 400 497 l 1
 422 483 434 466 434 445 c 0
 434 421 407 374 354 303 c 1
 354 292 l 2
 354 287 383 264 439 223 c 1
 470 194 485 172 485 155 c 2
 485 138 l 1
 481 127 470 121 451 121 c 0
 413 121 371 147 326 201 c 1
 253 239 217 271 217 297 c 0
 217 306 253 350 326 428 c 1
 346 474 369 497 394 497 c 2
EndSplineSet
Validated: 1
EndChar

StartChar: equal
Encoding: 30 61 106
Width: 460
GlyphClass: 2
Flags: W
LayerCount: 2
Fore
SplineSet
325 440 m 1
 356 440 379 422 393 386 c 1
 393 381 l 2
 393 358 340 343 235 336 c 1
 215 325 169 316 99 309 c 0
 67 309 46 325 36 359 c 1
 36 368 l 2
 36 391 87 406 189 413 c 1
 233 424 278 433 325 440 c 1
348 264 m 0
 396 257 420 234 420 196 c 1
 416 196 407 187 393 168 c 1
 370 173 l 1
 348 173 l 2
 295 173 229 164 149 146 c 1
 140 150 l 1
 130 144 121 141 112 141 c 2
 99 141 l 2
 72 141 49 153 31 178 c 1
 31 205 l 2
 31 229 81 241 180 241 c 1
 180 244 197 248 230 254 c 0
 233 254 235 253 235 250 c 1
 266 254 l 1
 330 254 l 1
 337 260 343 264 348 264 c 0
EndSplineSet
Validated: 1
EndChar

StartChar: greater
Encoding: 31 62 107
Width: 599
GlyphClass: 2
Flags: W
LayerCount: 2
Fore
SplineSet
271 555 m 1
 326 514 371 484 406 465 c 1
 484 435 524 396 524 347 c 2
 524 341 l 1
 496 310 432 224 333 83 c 1
 316 72 l 1
 276 72 l 1
 248 100 l 1
 248 117 l 2
 248 138 282 196 349 291 c 1
 389 353 l 1
 389 363 357 386 293 420 c 1
 241 454 215 486 215 516 c 0
 215 542 233 555 271 555 c 1
35 549 m 1
 58 549 l 1
 144 477 204 424 237 392 c 1
 278 384 299 350 299 291 c 1
 286 291 264 269 232 224 c 1
 220 224 185 182 125 100 c 1
 91 100 l 1
 65 116 52 127 52 134 c 2
 52 156 l 2
 52 162 91 217 170 319 c 0
 170 324 116 380 7 487 c 1
 7 504 l 2
 7 525 16 540 35 549 c 1
EndSplineSet
Validated: 1
EndChar

StartChar: bar
Encoding: 93 124 108
Width: 436
GlyphClass: 2
Flags: W
LayerCount: 2
Fore
SplineSet
200 701 m 2
 205 701 l 2
 240 701 262 683 271 645 c 1
 264 550 261 478 261 427 c 2
 261 340 l 2
 261 325 263 306 266 284 c 1
 260 254 255 154 251 -15 c 1
 251 -84 l 2
 251 -89 241 -99 220 -115 c 1
 200 -115 l 2
 185 -115 166 -105 144 -84 c 1
 147 -28 149 14 149 41 c 0
 156 215 159 313 159 334 c 0
 159 357 158 380 154 402 c 1
 154 602 169 701 200 701 c 2
EndSplineSet
Validated: 1
EndChar

StartChar: asciitilde
Encoding: 95 126 109
Width: 753
GlyphClass: 3
Flags: W
LayerCount: 2
Fore
SplineSet
250 529 m 2
 309 529 348 465 369 337 c 1
 390 307 404 291 408 291 c 2
 414 291 l 2
 466 291 515 367 561 517 c 1
 578 517 l 2
 592 517 603 495 612 450 c 1
 574 288 506 207 408 207 c 0
 336 207 280 270 240 395 c 1
 217 397 l 1
 155 363 115 309 97 235 c 1
 64 207 l 1
 41 207 l 2
 35 207 30 214 24 229 c 1
 24 343 94 442 233 529 c 1
 250 529 l 2
EndSplineSet
Validated: 1
EndChar

StartChar: dollar
Encoding: 5 36 110
Width: 492
GlyphClass: 2
Flags: W
LayerCount: 2
Fore
SplineSet
286 711 m 1
 304 699 314 681 314 659 c 1
 301 613 295 577 295 551 c 1
 374 536 413 502 413 447 c 0
 413 430 405 418 389 410 c 1
 366 410 l 2
 360 410 352 429 342 466 c 1
 319 476 305 480 300 480 c 2
 286 480 l 1
 282 418 278 356 271 297 c 1
 326 281 370 253 403 212 c 1
 399 161 383 136 356 136 c 1
 356 130 322 120 253 108 c 1
 253 42 l 2
 253 32 256 10 262 -24 c 1
 238 -38 l 1
 229 -38 l 2
 191 -38 173 -5 173 61 c 2
 173 94 l 2
 173 97 174 102 177 108 c 0
 177 117 157 126 116 136 c 1
 72 157 39 199 17 264 c 1
 23 267 28 268 31 268 c 0
 64 251 108 225 163 188 c 1
 173 188 177 190 177 193 c 0
 183 212 187 235 187 264 c 1
 111 291 74 332 74 386 c 2
 74 405 l 2
 74 444 119 491 210 546 c 1
 218 650 232 702 253 702 c 1
 286 711 l 1
154 381 m 1
 162 353 174 339 191 339 c 1
 194 348 198 353 201 353 c 1
 201 355 199 365 196 381 c 1
 199 413 201 436 201 452 c 1
 196 452 l 2
 180 452 166 429 154 381 c 1
262 226 m 1
 257 202 l 1
 257 193 l 2
 257 187 262 183 271 183 c 0
 276 183 290 187 314 193 c 1
 314 212 l 1
 267 226 l 1
 262 226 l 1
EndSplineSet
Validated: 1
EndChar

StartChar: softhyphen
Encoding: 98 173 112
Width: 447
GlyphClass: 3
Flags: W
LayerCount: 2
Fore
SplineSet
337 360 m 1
 337 358 348 346 369 326 c 1
 369 284 350 263 313 263 c 0
 264 263 225 255 197 239 c 1
 180 236 162 234 141 234 c 2
 125 234 l 1
 98 241 85 257 85 283 c 2
 85 307 l 1
 95 326 105 336 113 336 c 0
 153 336 228 344 337 360 c 1
EndSplineSet
Validated: 1
EndChar

StartChar: akesi
Encoding: 113 989441 113
Width: 796
GlyphClass: 3
Flags: W
LayerCount: 2
Fore
SplineSet
410 678 m 2
 435 678 l 1
 459 665 475 650 484 635 c 1
 484 567 l 1
 499 567 533 564 588 556 c 1
 662 536 699 495 699 433 c 2
 699 421 l 2
 699 271 602 121 409 -29 c 1
 372 -41 348 -47 335 -47 c 2
 298 -47 l 2
 292 -47 286 -41 280 -29 c 1
 280 -22 l 1
 378 58 l 2
 484 147 556 244 594 347 c 1
 610 374 618 405 618 439 c 2
 618 452 l 1
 610 462 606 470 606 476 c 1
 497 493 l 2
 481 493 469 432 460 309 c 1
 450 243 427 210 392 210 c 1
 371 228 361 259 361 302 c 1
 380 456 l 1
 367 463 l 1
 314 463 287 442 287 401 c 0
 287 312 273 259 244 241 c 1
 226 241 l 2
 220 241 208 253 189 278 c 1
 189 370 l 1
 183 383 l 1
 119 337 76 315 53 315 c 1
 20 321 4 335 4 358 c 1
 32 394 97 439 201 493 c 1
 201 543 l 1
 205 604 217 635 238 635 c 2
 250 635 l 2
 283 635 302 612 306 567 c 1
 302 560 300 552 300 543 c 2
 300 536 l 1
 353 536 380 547 380 567 c 0
 384 641 394 678 410 678 c 2
EndSplineSet
Validated: 1
Ligature2: "'liga' Standard Ligatures in Latin lookup 0 subtable" a k e s i
Ligature2: "'liga' Standard Ligatures in Latin lookup 0 subtable" A k e s i
EndChar

StartChar: ala
Encoding: 114 989442 114
Width: 648
GlyphClass: 3
Flags: W
LayerCount: 2
Fore
SplineSet
405 670 m 1
 455 645 476 617 466 584 c 0
 443 519 409 439 364 341 c 1
 393 309 431 277 479 246 c 1
 495 216 l 1
 493 211 l 1
 489 171 472 155 442 162 c 1
 393 208 351 241 316 262 c 1
 310 239 268 188 191 107 c 0
 114 26 58 -10 25 -1 c 1
 -7 12 -21 24 -17 37 c 0
 -14 44 -8 50 0 55 c 0
 49 83 128 173 235 323 c 1
 238 335 l 2
 244 353 223 390 178 445 c 1
 138 520 121 568 127 590 c 2
 132 607 l 2
 134 613 141 617 154 619 c 1
 191 608 228 556 264 463 c 1
 281 440 l 1
 287 438 l 1
 300 449 327 514 368 631 c 1
 366 644 l 1
 376 658 389 667 405 670 c 1
EndSplineSet
Validated: 33
Ligature2: "'liga' Standard Ligatures in Latin lookup 0 subtable" a l a
Ligature2: "'liga' Standard Ligatures in Latin lookup 0 subtable" A l a
EndChar

StartChar: alasa
Encoding: 115 989443 115
Width: 778
GlyphClass: 3
Flags: W
LayerCount: 2
Fore
SplineSet
260 728 m 1
 300 720 320 701 320 671 c 2
 320 491 l 1
 351 491 l 2
 433 491 506 500 569 519 c 1
 602 519 625 498 636 457 c 1
 636 451 l 1
 599 423 581 404 581 395 c 1
 457 273 371 198 320 169 c 1
 314 141 l 1
 322 62 326 7 326 -23 c 1
 322 -46 316 -57 308 -57 c 2
 290 -57 l 2
 270 -57 250 -8 229 90 c 1
 217 95 l 1
 196 75 157 47 102 11 c 1
 96 11 l 2
 64 11 42 22 29 45 c 1
 29 73 90 125 211 203 c 1
 223 220 l 1
 219 269 218 314 220 355 c 0
 222 397 207 417 175 417 c 1
 66 456 11 494 11 530 c 2
 11 536 l 2
 11 541 21 550 41 564 c 1
 78 564 l 1
 106 541 151 518 211 496 c 1
 212 504 216 508 223 508 c 1
 223 517 221 532 217 553 c 1
 217 669 231 728 260 728 c 1
332 400 m 2
 327 400 321 399 314 396 c 1
 313 269 l 1
 330 291 369 327 429 377 c 0
 440 388 449 397 457 406 c 1
 332 400 l 2
EndSplineSet
Validated: 33
Ligature2: "'liga' Standard Ligatures in Latin lookup 0 subtable" a l a s a
Ligature2: "'liga' Standard Ligatures in Latin lookup 0 subtable" A l a s a
EndChar

StartChar: ale
Encoding: 116 989444 116
Width: 658
GlyphClass: 3
Flags: W
LayerCount: 2
Fore
SplineSet
482 688 m 0
 482 686 484 680 490 669 c 1
 486 653 l 1
 470 644 374 624 199 592 c 1
 180 574 134 568 61 572 c 1
 30 580 l 1
 16 592 10 603 13 614 c 0
 22 647 83 668 196 680 c 1
 307 707 403 710 482 688 c 0
384 531 m 2
 409 524 l 2
 415 522 424 508 437 482 c 1
 433 466 l 1
 329 391 243 336 176 299 c 1
 174 294 l 1
 181 292 l 1
 343 282 l 1
 398 267 l 1
 481 229 514 184 500 130 c 2
 497 119 l 2
 480 58 428 12 341 -17 c 1
 276 -30 221 -31 175 -18 c 0
 86 11 44 32 47 45 c 2
 49 51 l 2
 51 59 80 61 136 56 c 0
 287 45 374 79 395 158 c 1
 397 164 l 2
 400 174 385 186 353 199 c 1
 266 205 174 199 78 181 c 1
 47 190 l 2
 10 200 -2 226 9 269 c 0
 12 280 53 317 132 380 c 1
 133 385 l 1
 127 387 l 1
 87 375 59 371 45 375 c 2
 33 378 l 2
 11 384 0 393 0 404 c 2
 3 415 l 2
 10 443 65 466 167 486 c 1
 293 521 365 536 384 531 c 2
EndSplineSet
Validated: 33
Ligature2: "'liga' Standard Ligatures in Latin lookup 0 subtable" a l i
Ligature2: "'liga' Standard Ligatures in Latin lookup 0 subtable" a l e
Ligature2: "'liga' Standard Ligatures in Latin lookup 0 subtable" A l i
Ligature2: "'liga' Standard Ligatures in Latin lookup 0 subtable" A l e
EndChar

StartChar: anpa
Encoding: 117 989445 117
Width: 780
GlyphClass: 3
Flags: W
LayerCount: 2
Fore
SplineSet
510 636 m 0
 514 635 516 633 516 629 c 1
 545 634 l 1
 598 631 l 2
 603 630 612 618 626 594 c 1
 624 564 l 2
 623 552 550 545 404 542 c 1
 404 537 370 527 302 512 c 1
 298 505 296 499 296 495 c 0
 295 485 291 448 283 384 c 1
 284 327 289 256 300 171 c 1
 318 170 l 1
 343 192 363 202 378 201 c 2
 390 201 l 2
 398 199 402 195 401 188 c 2
 401 176 l 2
 398 135 384 97 358 61 c 1
 348 18 325 -2 290 0 c 0
 243 6 220 23 222 51 c 1
 201 125 185 220 174 337 c 1
 177 378 l 1
 188 434 193 464 194 466 c 1
 182 466 l 1
 123 446 87 437 74 437 c 0
 27 440 4 457 6 489 c 2
 7 506 l 1
 14 524 80 547 206 577 c 1
 207 586 278 601 421 623 c 0
 436 622 466 627 510 636 c 0
337 392 m 2
 354 391 l 1
 502 359 574 323 572 284 c 1
 584 284 590 258 591 206 c 0
 589 167 572 149 541 150 c 2
 517 152 l 2
 499 153 484 189 470 261 c 1
 314 305 l 1
 303 324 l 1
 305 359 l 1
 320 382 331 393 337 392 c 2
EndSplineSet
Validated: 33
Ligature2: "'liga' Standard Ligatures in Latin lookup 0 subtable" a n p a
Ligature2: "'liga' Standard Ligatures in Latin lookup 0 subtable" A n p a
EndChar

StartChar: ante
Encoding: 118 989446 118
Width: 626
GlyphClass: 3
Flags: W
LayerCount: 2
Fore
SplineSet
133 669 m 2
 144 669 l 1
 174 654 196 625 211 581 c 1
 211 562 216 548 226 540 c 1
 397 638 l 1
 421 633 433 626 433 617 c 2
 433 607 l 2
 433 578 419 558 391 545 c 1
 386 531 341 502 257 457 c 1
 257 437 l 2
 257 423 268 403 288 375 c 1
 305 388 342 405 402 426 c 1
 437 426 462 414 479 390 c 1
 479 359 l 2
 479 352 452 338 397 318 c 1
 352 294 329 280 329 277 c 0
 337 237 368 179 422 101 c 1
 457 41 474 1 474 -17 c 1
 464 -25 446 -32 417 -38 c 1
 330 -17 266 0 226 14 c 1
 206 39 l 1
 206 45 l 2
 206 58 233 67 288 70 c 0
 302 67 315 65 329 65 c 2
 335 65 l 1
 330 81 301 133 247 220 c 1
 242 220 l 2
 232 220 215 211 190 194 c 0
 186 194 167 187 133 173 c 1
 85 179 61 196 61 225 c 2
 61 230 l 2
 61 260 106 288 195 313 c 0
 195 316 197 322 201 328 c 1
 183 371 175 395 175 400 c 1
 164 400 l 1
 122 366 92 349 77 349 c 0
 39 349 20 363 20 390 c 0
 20 420 53 447 118 473 c 0
 128 480 133 486 133 493 c 0
 120 576 113 625 113 643 c 1
 120 659 126 667 133 669 c 2
EndSplineSet
Validated: 1
Ligature2: "'liga' Standard Ligatures in Latin lookup 0 subtable" a n t e
Ligature2: "'liga' Standard Ligatures in Latin lookup 0 subtable" A n t e
EndChar

StartChar: anu
Encoding: 119 989447 119
Width: 803
GlyphClass: 3
Flags: W
LayerCount: 2
Fore
SplineSet
444 688 m 1
 458 688 l 2
 464 688 471 681 478 668 c 1
 478 661 l 2
 478 627 399 532 239 373 c 1
 239 366 l 2
 239 359 282 343 369 319 c 1
 573 176 680 83 691 38 c 1
 691 4 l 2
 691 -3 684 -10 670 -17 c 1
 655 -17 598 24 499 106 c 1
 348 211 238 262 169 258 c 1
 157 214 130 161 88 99 c 0
 86 99 74 90 54 72 c 1
 33 72 l 1
 15 78 6 97 6 127 c 1
 65 420 102 586 116 627 c 1
 143 661 l 1
 170 661 l 1
 198 644 213 620 215 590 c 1
 206 541 200 498 198 462 c 1
 203 462 274 535 410 681 c 1
 444 688 l 1
EndSplineSet
Validated: 33
Ligature2: "'liga' Standard Ligatures in Latin lookup 0 subtable" a n u
Ligature2: "'liga' Standard Ligatures in Latin lookup 0 subtable" A n u
EndChar

StartChar: awen
Encoding: 120 989448 120
Width: 964
GlyphClass: 3
Flags: W
LayerCount: 2
Fore
SplineSet
493 595 m 1
 540 575 564 549 564 517 c 1
 536 405 522 311 522 235 c 0
 522 210 535 190 562 175 c 1
 634 174 l 1
 761 179 l 1
 752 218 747 244 747 256 c 2
 747 298 l 2
 747 305 757 315 776 326 c 1
 783 326 l 1
 805 322 838 263 882 150 c 1
 882 136 l 1
 868 103 842 86 804 86 c 1
 755 93 l 2
 733 93 663 91 543 86 c 1
 492 105 450 134 418 175 c 0
 407 195 403 228 407 273 c 0
 420 487 444 595 479 595 c 2
 493 595 l 1
260 552 m 1
 317 552 l 1
 350 529 360 511 346 499 c 1
 333 410 278 285 183 122 c 1
 128 75 88 51 63 51 c 1
 20 64 -1 75 -1 86 c 2
 -1 100 l 1
 37 119 70 147 98 185 c 0
 192 317 239 416 239 482 c 2
 239 531 l 2
 239 538 246 545 260 552 c 1
EndSplineSet
Validated: 33
Ligature2: "'liga' Standard Ligatures in Latin lookup 0 subtable" a w e n
Ligature2: "'liga' Standard Ligatures in Latin lookup 0 subtable" A w e n
EndChar

StartChar: colonspace
Encoding: 234 -1 121
Width: 650
GlyphClass: 3
Flags: W
LayerCount: 2
Fore
SplineSet
114 433 m 1
 161 418 194 400 216 378 c 1
 216 330 196 303 155 297 c 1
 92 303 60 325 60 365 c 2
 60 372 l 2
 60 401 78 421 114 433 c 1
112 126 m 1
 177 112 209 98 209 86 c 2
 209 63 l 2
 209 44 200 27 181 12 c 1
 84 12 l 2
 78 12 70 20 61 35 c 1
 76 96 93 126 112 126 c 1
EndSplineSet
Validated: 1
Ligature2: "'liga' Standard Ligatures in Latin lookup 0 subtable" colon space
EndChar

StartChar: commaspace
Encoding: 232 -1 122
Width: 650
GlyphClass: 3
Flags: W
LayerCount: 2
Fore
SplineSet
123 122 m 0
 169 122 192 89 192 23 c 1
 160 -87 128 -145 96 -153 c 0
 64 -160 44 -164 36 -164 c 1
 19 -147 11 -130 11 -115 c 1
 55 -113 l 1
 73 -78 82 -45 80 -15 c 2
 80 -9 l 1
 75 44 73 75 73 85 c 1
 92 108 108 120 123 122 c 0
EndSplineSet
Validated: 33
Ligature2: "'liga' Standard Ligatures in Latin lookup 0 subtable" comma space
EndChar

StartChar: e
Encoding: 121 989449 123
AltUni2: 000065.ffffffff.0
Width: 627
GlyphClass: 3
Flags: W
LayerCount: 2
Fore
SplineSet
433 621 m 1
 493 621 523 609 523 584 c 0
 523 560 479 456 390 272 c 1
 348 166 318 97 300 66 c 1
 300 41 283 29 248 29 c 2
 237 29 l 2
 227 29 220 45 216 77 c 1
 216 132 255 243 332 410 c 1
 332 415 l 2
 332 422 327 426 316 426 c 1
 276 401 241 389 211 389 c 2
 158 389 l 1
 52 409 -1 457 -1 531 c 0
 -1 551 8 565 25 574 c 1
 82 570 110 546 110 500 c 1
 122 486 142 479 168 479 c 0
 221 479 305 524 422 616 c 1
 433 621 l 1
EndSplineSet
Validated: 1
EndChar

StartChar: en
Encoding: 122 989450 124
Width: 731
GlyphClass: 3
Flags: W
LayerCount: 2
Fore
SplineSet
462 585 m 1
 544 578 585 561 585 534 c 0
 585 505 565 491 527 491 c 1
 460 480 426 468 426 455 c 0
 420 427 417 403 416 383 c 0
 404 311 395 249 390 196 c 2
 383 154 l 1
 422 167 l 1
 598 229 l 1
 624 213 l 1
 611 168 l 1
 520 109 451 70 404 49 c 1
 359 16 297 0 217 0 c 0
 156 0 95 38 36 115 c 1
 29 132 26 148 25 163 c 0
 28 185 38 200 57 210 c 1
 91 214 l 2
 112 218 120 194 115 140 c 1
 129 120 161 110 212 109 c 1
 253 130 l 1
 267 130 l 1
 272 207 284 303 303 419 c 1
 275 447 222 424 145 348 c 1
 138 333 125 324 104 324 c 2
 79 325 l 1
 26 332 0 344 0 361 c 0
 0 424 120 496 361 577 c 1
 387 577 421 580 462 585 c 1
EndSplineSet
Validated: 33
Ligature2: "'liga' Standard Ligatures in Latin lookup 0 subtable" e n
Ligature2: "'liga' Standard Ligatures in Latin lookup 0 subtable" E n
EndChar

StartChar: esun
Encoding: 123 989451 125
Width: 666
GlyphClass: 3
Flags: W
LayerCount: 2
Fore
SplineSet
337 693 m 1
 359 691 l 1
 379 679 389 664 386 644 c 2
 383 617 l 1
 350 516 l 1
 356 515 l 1
 495 533 l 1
 512 531 l 2
 535 529 550 512 556 482 c 1
 553 458 498 438 390 423 c 1
 379 416 347 409 294 401 c 1
 237 313 207 265 206 256 c 1
 228 254 280 270 361 305 c 1
 419 299 446 278 442 241 c 1
 349 193 281 171 236 176 c 1
 204 185 190 204 193 230 c 2
 193 236 l 1
 200 246 l 1
 194 246 l 1
 118 156 53 113 -1 119 c 1
 -10 137 l 2
 -10 142 9 164 46 202 c 1
 119 297 156 350 157 361 c 1
 81 363 l 2
 57 366 40 379 30 402 c 1
 33 429 l 2
 34 445 101 463 231 485 c 1
 285 617 321 687 337 693 c 1
216 139 m 2
 221 139 l 1
 325 83 l 1
 363 76 384 72 390 71 c 0
 424 78 445 81 452 81 c 0
 476 73 488 64 487 55 c 2
 484 22 l 1
 449 -11 411 -25 369 -20 c 0
 232 6 167 48 174 106 c 0
 176 131 190 142 216 139 c 2
EndSplineSet
Validated: 33
Ligature2: "'liga' Standard Ligatures in Latin lookup 0 subtable" e s u n
Ligature2: "'liga' Standard Ligatures in Latin lookup 0 subtable" E s u n
EndChar

StartChar: exclamspace
Encoding: 235 -1 126
Width: 671
GlyphClass: 3
Flags: W
LayerCount: 2
Fore
SplineSet
169 617 m 2
 174 617 l 2
 188 617 202 590 214 537 c 1
 201 320 186 212 169 212 c 2
 146 212 l 2
 117 212 96 229 83 263 c 1
 112 548 l 2
 112 555 108 566 100 582 c 1
 121 605 144 617 169 617 c 2
125 113 m 2
 160 113 l 2
 164 113 180 98 205 67 c 1
 201 22 192 -1 177 -1 c 2
 137 -1 l 1
 95 24 74 45 74 62 c 0
 79 96 96 113 125 113 c 2
EndSplineSet
Validated: 1
Ligature2: "'liga' Standard Ligatures in Latin lookup 0 subtable" exclam space
EndChar

StartChar: ijo
Encoding: 124 989452 128
Width: 796
GlyphClass: 3
Flags: W
LayerCount: 2
Fore
SplineSet
389 671 m 1
 403 665 l 1
 412 669 419 671 424 671 c 0
 465 640 486 611 486 585 c 2
 486 538 l 1
 493 486 509 457 535 452 c 0
 561 448 573 452 573 465 c 1
 608 465 636 448 657 413 c 1
 657 390 l 1
 635 356 591 350 525 373 c 0
 459 396 409 432 375 481 c 1
 361 510 l 1
 340 510 l 1
 340 504 326 487 298 458 c 1
 373 386 410 334 410 302 c 1
 428 266 437 223 437 175 c 0
 432 110 403 52 350 2 c 1
 258 -59 165 -43 72 50 c 1
 47 84 34 116 34 146 c 0
 34 212 69 306 138 429 c 0
 138 435 103 450 34 475 c 1
 11 490 -1 507 -1 527 c 2
 -1 550 l 2
 -1 556 8 564 27 573 c 1
 73 573 131 552 201 510 c 1
 285 578 339 630 361 665 c 1
 371 665 381 667 389 671 c 1
128 150 m 1
 137 77 164 41 208 41 c 2
 237 41 l 1
 294 75 323 119 323 173 c 1
 330 173 334 189 334 221 c 0
 334 273 306 325 248 377 c 1
 221 364 194 334 168 287 c 0
 142 248 128 203 128 150 c 1
EndSplineSet
Validated: 33
Ligature2: "'liga' Standard Ligatures in Latin lookup 0 subtable" i j o
Ligature2: "'liga' Standard Ligatures in Latin lookup 0 subtable" I j o
EndChar

StartChar: ike
Encoding: 125 989453 129
Width: 643
GlyphClass: 3
Flags: W
LayerCount: 2
Fore
SplineSet
248 678 m 1
 268 678 l 2
 312 678 334 639 334 562 c 2
 334 552 l 1
 329 501 l 1
 332 501 334 499 334 496 c 1
 344 501 l 1
 395 501 l 2
 469 501 513 418 526 253 c 1
 492 101 443 25 380 25 c 0
 333 25 304 44 294 81 c 1
 294 86 l 1
 329 86 l 1
 370 92 390 109 390 137 c 1
 406 160 419 197 430 248 c 1
 422 359 409 415 390 415 c 2
 385 415 l 1
 327 408 299 382 299 339 c 1
 275 265 221 163 137 35 c 1
 121 21 106 9 91 0 c 1
 71 0 l 2
 53 0 39 7 30 20 c 1
 30 40 l 1
 83 120 130 198 172 273 c 1
 172 278 l 2
 172 285 169 289 162 289 c 2
 86 243 l 1
 81 243 l 2
 27 243 0 263 0 304 c 2
 0 309 l 2
 0 326 34 346 101 370 c 1
 177 415 219 445 228 461 c 0
 231 474 233 487 233 501 c 2
 233 587 l 2
 233 591 229 610 223 643 c 1
 223 653 l 2
 223 658 231 666 248 678 c 1
EndSplineSet
Validated: 1
Ligature2: "'liga' Standard Ligatures in Latin lookup 0 subtable" i k e
Ligature2: "'liga' Standard Ligatures in Latin lookup 0 subtable" I k e
EndChar

StartChar: ilo
Encoding: 126 989454 130
Width: 759
GlyphClass: 3
Flags: W
LayerCount: 2
Fore
SplineSet
328 661 m 2
 333 661 l 2
 365 661 383 638 388 590 c 1
 388 541 l 1
 383 503 l 1
 393 497 l 1
 427 508 453 514 470 514 c 0
 552 514 606 488 634 437 c 1
 649 380 656 344 656 328 c 0
 656 252 619 192 546 148 c 1
 514 142 l 1
 481 142 l 2
 474 142 470 146 470 153 c 1
 539 239 574 295 574 322 c 0
 574 399 546 437 492 437 c 0
 456 437 422 423 388 393 c 1
 388 268 l 2
 388 237 386 204 383 169 c 1
 388 142 l 1
 384 111 383 86 383 66 c 0
 383 62 384 48 388 22 c 1
 386 22 377 15 361 0 c 1
 317 0 295 35 295 104 c 2
 295 164 l 2
 295 187 293 211 290 235 c 1
 301 328 l 1
 290 333 l 1
 284 333 l 1
 231 290 193 248 169 208 c 0
 169 202 158 193 137 180 c 1
 98 180 74 220 66 301 c 1
 38 397 16 451 0 465 c 1
 0 481 l 2
 0 506 13 519 38 519 c 2
 49 519 l 2
 78 519 109 477 142 393 c 1
 142 344 l 1
 148 344 l 1
 194 384 242 418 290 448 c 1
 295 475 l 1
 295 579 l 1
 299 634 310 661 328 661 c 2
EndSplineSet
Validated: 1
Ligature2: "'liga' Standard Ligatures in Latin lookup 0 subtable" i l o
Ligature2: "'liga' Standard Ligatures in Latin lookup 0 subtable" I l o
EndChar

StartChar: insa
Encoding: 127 989455 131
Width: 741
GlyphClass: 3
Flags: W
LayerCount: 2
Fore
SplineSet
338 684 m 1
 367 666 382 647 382 629 c 1
 336 539 299 478 271 446 c 1
 194 323 155 251 155 230 c 1
 148 206 149 180 158 152 c 1
 196 101 264 82 362 96 c 0
 460 110 526 156 560 235 c 1
 567 263 571 278 571 280 c 0
 563 302 556 319 548 330 c 1
 548 346 l 2
 550 354 553 357 560 357 c 2
 565 357 l 1
 613 323 637 280 637 230 c 1
 647 137 565 63 393 8 c 1
 332 -7 295 -14 283 -14 c 0
 180 -14 108 36 66 136 c 0
 59 160 55 176 55 185 c 2
 55 191 l 2
 55 258 96 346 177 457 c 0
 188 475 194 488 194 496 c 1
 188 496 l 1
 163 482 135 458 105 424 c 1
 97 424 86 418 72 407 c 1
 66 407 l 1
 37 418 19 431 11 446 c 1
 11 457 l 1
 189 608 298 684 338 684 c 1
294 330 m 1
 332 330 l 1
 395 295 430 267 438 246 c 1
 438 230 l 2
 438 224 430 217 415 208 c 1
 410 208 l 2
 367 208 321 233 271 285 c 1
 271 307 l 2
 271 313 279 321 294 330 c 1
EndSplineSet
Validated: 33
Ligature2: "'liga' Standard Ligatures in Latin lookup 0 subtable" i n s a
Ligature2: "'liga' Standard Ligatures in Latin lookup 0 subtable" I n s a
EndChar

StartChar: jaki
Encoding: 128 989456 132
Width: 873
GlyphClass: 3
Flags: W
LayerCount: 2
Fore
SplineSet
440 677 m 1
 484 656 506 628 506 593 c 1
 641 519 709 436 709 342 c 2
 709 313 l 2
 709 149 637 25 494 -58 c 1
 446 -58 l 2
 437 -58 431 -48 428 -28 c 1
 536 109 590 207 590 265 c 1
 594 265 596 287 596 330 c 0
 596 388 578 426 542 444 c 1
 526 468 504 480 476 480 c 1
 452 389 426 319 398 271 c 1
 398 259 l 1
 452 199 l 1
 452 157 l 2
 452 151 444 145 428 139 c 1
 398 139 370 153 345 181 c 1
 336 181 302 163 243 127 c 1
 165 127 l 1
 66 140 16 182 16 253 c 1
 12 253 10 259 10 271 c 2
 10 307 l 2
 10 354 44 407 112 468 c 1
 121 468 129 476 135 492 c 1
 112 540 100 582 100 617 c 2
 100 629 l 2
 100 635 108 643 124 653 c 1
 130 653 l 2
 177 653 208 617 225 546 c 1
 231 546 l 1
 343 573 398 599 398 623 c 0
 398 659 412 677 440 677 c 1
273 438 m 1
 281 413 297 389 321 366 c 1
 330 366 344 402 363 474 c 1
 357 474 l 2
 316 474 288 462 273 438 c 1
76 223 m 1
 90 199 108 187 130 187 c 2
 147 187 l 1
 227 208 267 230 267 253 c 2
 267 271 l 1
 218 346 190 384 183 384 c 0
 112 335 76 293 76 259 c 2
 76 223 l 1
EndSplineSet
Validated: 1
Ligature2: "'liga' Standard Ligatures in Latin lookup 0 subtable" j a k i
Ligature2: "'liga' Standard Ligatures in Latin lookup 0 subtable" J a k i
EndChar

StartChar: jan
Encoding: 129 989457 133
Width: 663
GlyphClass: 3
Flags: W
LayerCount: 2
Fore
SplineSet
289 689 m 1
 290 683 l 1
 300 691 l 1
 328 698 l 1
 432 704 493 669 511 593 c 1
 515 594 519 585 523 567 c 1
 520 504 493 444 441 389 c 1
 395 351 339 314 272 279 c 1
 274 272 273 267 269 267 c 1
 287 189 342 105 433 16 c 1
 435 11 l 2
 438 -4 433 -17 420 -28 c 1
 409 -31 l 2
 368 -40 321 -10 270 61 c 1
 247 75 213 136 169 243 c 1
 79 222 l 1
 28 233 -7 246 -24 263 c 1
 -28 280 l 1
 -17 306 l 1
 77 312 135 318 156 323 c 1
 163 333 167 384 167 478 c 1
 192 582 227 649 273 679 c 0
 280 685 285 688 289 689 c 1
261 377 m 1
 263 371 l 1
 268 372 l 1
 390 440 443 505 428 568 c 1
 427 574 l 2
 420 603 402 622 373 632 c 1
 300 615 262 530 261 377 c 1
EndSplineSet
Validated: 33
Ligature2: "'liga' Standard Ligatures in Latin lookup 0 subtable" j a n
Ligature2: "'liga' Standard Ligatures in Latin lookup 0 subtable" J a n
EndChar

StartChar: jelo
Encoding: 130 989458 134
Width: 753
GlyphClass: 3
Flags: W
LayerCount: 2
Fore
SplineSet
258 691 m 1
 283 691 l 1
 313 669 328 656 328 651 c 2
 328 551 l 1
 333 541 l 2
 337 541 338 542 338 546 c 1
 406 536 441 515 444 486 c 1
 454 464 459 449 459 441 c 2
 459 426 l 2
 459 383 425 332 358 270 c 1
 358 264 357 260 353 260 c 1
 358 235 l 1
 358 155 l 1
 363 145 l 1
 373 150 l 1
 403 150 l 1
 460 164 525 156 600 126 c 0
 615 122 632 104 650 71 c 1
 650 38 633 21 600 21 c 0
 596 21 595 23 595 26 c 0
 470 91 311 76 118 -20 c 1
 68 -20 l 2
 60 -17 44 0 23 30 c 1
 23 50 l 2
 23 70 63 83 143 90 c 1
 164 99 211 113 283 130 c 1
 283 135 l 2
 283 157 280 180 273 205 c 1
 263 205 l 1
 213 179 166 165 123 165 c 1
 93 174 78 183 78 190 c 2
 78 215 l 1
 84 223 113 234 163 250 c 1
 223 278 256 298 263 310 c 1
 260 394 255 436 248 436 c 1
 158 365 l 1
 138 360 l 1
 105 367 88 384 88 411 c 0
 88 438 130 473 213 516 c 0
 233 522 243 531 243 541 c 0
 240 577 238 609 238 636 c 2
 238 646 l 2
 238 671 245 686 258 691 c 1
338 451 m 2
 338 421 l 1
 343 386 l 1
 348 386 l 2
 362 386 370 407 373 451 c 1
 365 457 360 461 358 461 c 2
 348 461 l 2
 342 460 338 456 338 451 c 2
EndSplineSet
Validated: 33
Ligature2: "'liga' Standard Ligatures in Latin lookup 0 subtable" j e l o
Ligature2: "'liga' Standard Ligatures in Latin lookup 0 subtable" J e l o
EndChar

StartChar: jo
Encoding: 131 989459 135
Width: 928
GlyphClass: 3
Flags: W
LayerCount: 2
Fore
SplineSet
557 636 m 1
 601 636 664 605 747 544 c 1
 824 452 827 319 757 144 c 1
 691 48 626 0 564 0 c 2
 524 0 l 1
 485 14 465 43 465 85 c 2
 465 125 l 2
 465 192 509 264 596 341 c 1
 644 354 668 374 668 400 c 2
 668 426 l 1
 651 492 612 526 551 531 c 1
 480 531 406 467 327 339 c 1
 299 261 290 189 302 121 c 1
 289 97 271 84 247 81 c 1
 190 85 l 1
 103 116 40 169 0 242 c 1
 10 273 19 288 26 288 c 2
 79 288 l 1
 135 256 170 230 184 210 c 1
 184 357 267 488 433 603 c 1
 465 620 507 631 557 636 c 1
680 279 m 1
 569 248 524 194 545 116 c 1
 555 98 l 1
 651 121 692 181 680 279 c 1
EndSplineSet
Validated: 33
Ligature2: "'liga' Standard Ligatures in Latin lookup 0 subtable" j o
Ligature2: "'liga' Standard Ligatures in Latin lookup 0 subtable" J o
EndChar

StartChar: kala
Encoding: 132 989460 136
Width: 789
GlyphClass: 3
Flags: W
LayerCount: 2
Fore
SplineSet
461 667 m 1
 506 691 530 684 532 646 c 0
 532 632 490 588 407 516 c 1
 401 505 l 1
 477 420 515 332 515 241 c 2
 515 219 l 2
 515 142 482 79 418 30 c 0
 400 12 374 3 342 3 c 0
 235 3 170 64 148 187 c 1
 148 262 l 2
 148 310 189 387 272 494 c 1
 253 514 204 537 126 565 c 1
 112 580 104 589 104 592 c 2
 104 597 l 2
 104 622 115 635 137 635 c 0
 163 635 228 611 331 565 c 1
 347 565 388 599 455 667 c 1
 461 667 l 1
547 484 m 0
 601 484 640 428 666 316 c 0
 666 311 655 300 634 284 c 1
 623 284 l 2
 584 284 544 332 504 430 c 1
 510 466 524 484 547 484 c 0
120 473 m 2
 139 473 155 456 169 424 c 1
 154 363 115 313 52 274 c 1
 14 285 -9 297 -15 311 c 1
 -15 317 l 1
 32 421 73 473 108 473 c 2
 120 473 l 2
236 238 m 0
 236 158 262 112 314 102 c 1
 323 102 l 2
 375 102 406 160 416 277 c 1
 395 359 369 409 338 427 c 1
 270 351 236 288 236 238 c 0
EndSplineSet
Validated: 33
Ligature2: "'liga' Standard Ligatures in Latin lookup 0 subtable" k a l a
Ligature2: "'liga' Standard Ligatures in Latin lookup 0 subtable" K a l a
EndChar

StartChar: kalama
Encoding: 133 989461 137
Width: 898
GlyphClass: 3
Flags: W
LayerCount: 2
Fore
SplineSet
432 625 m 1
 503 609 539 576 539 524 c 1
 542 524 544 509 544 479 c 0
 544 345 511 227 443 125 c 0
 414 84 382 63 348 63 c 0
 291 68 263 87 263 119 c 0
 263 125 286 132 331 142 c 1
 417 256 460 376 460 501 c 1
 453 528 446 541 437 541 c 0
 417 541 368 526 291 496 c 1
 297 456 l 1
 297 434 l 1
 273 324 255 268 246 268 c 1
 212 232 184 214 161 211 c 1
 128 215 111 221 111 228 c 2
 111 240 l 1
 146 291 174 356 196 434 c 1
 184 434 148 411 89 366 c 0
 77 359 65 355 55 355 c 2
 50 355 l 2
 29 355 12 366 -1 389 c 1
 -1 400 l 2
 -1 433 78 490 235 569 c 1
 235 582 301 601 432 625 c 1
617 406 m 2
 651 406 l 2
 674 406 710 372 758 305 c 1
 758 277 l 2
 758 271 752 266 741 260 c 1
 735 260 l 1
 642 282 595 316 595 361 c 2
 595 378 l 1
 605 396 612 406 617 406 c 2
561 271 m 1
 584 271 l 2
 616 271 661 230 719 147 c 1
 719 130 l 1
 696 113 l 1
 690 113 l 2
 647 113 594 143 533 203 c 1
 533 243 l 2
 533 248 542 257 561 271 c 1
EndSplineSet
Validated: 1
Ligature2: "'liga' Standard Ligatures in Latin lookup 0 subtable" k a l a m a
Ligature2: "'liga' Standard Ligatures in Latin lookup 0 subtable" K a l a m a
EndChar

StartChar: kama
Encoding: 134 989462 138
Width: 800
GlyphClass: 3
Flags: W
LayerCount: 2
Fore
SplineSet
452 657 m 1
 496 636 518 590 518 518 c 1
 530 512 l 1
 573 512 l 2
 637 510 669 500 669 482 c 2
 669 464 l 2
 669 449 625 435 536 422 c 1
 536 414 534 410 530 410 c 1
 536 368 l 1
 536 195 444 74 259 6 c 0
 237 2 219 0 205 0 c 2
 163 0 l 2
 132 0 114 8 108 24 c 1
 114 37 152 56 223 78 c 1
 372 138 446 241 446 386 c 2
 446 398 l 2
 446 406 440 410 428 410 c 1
 415 402 367 392 283 380 c 1
 283 271 l 2
 283 240 273 220 253 211 c 1
 223 220 l 1
 207 220 193 256 181 328 c 1
 187 341 l 1
 183 357 175 365 163 365 c 1
 111 339 81 325 72 325 c 0
 24 337 0 355 0 380 c 0
 0 406 56 436 169 467 c 0
 181 472 191 505 199 564 c 1
 223 582 l 1
 271 576 295 542 295 482 c 1
 330 489 374 495 428 500 c 1
 428 518 l 1
 420 577 416 609 416 615 c 2
 416 627 l 1
 427 647 440 657 452 657 c 1
EndSplineSet
Validated: 1
Ligature2: "'liga' Standard Ligatures in Latin lookup 0 subtable" k a m a
Ligature2: "'liga' Standard Ligatures in Latin lookup 0 subtable" K a m a
EndChar

StartChar: kasi
Encoding: 135 989463 139
Width: 746
GlyphClass: 3
Flags: W
LayerCount: 2
Fore
SplineSet
391 674 m 1
 426 678 457 617 483 493 c 1
 478 492 476 490 476 486 c 1
 484 486 l 1
 490 427 477 385 446 359 c 1
 448 331 449 297 449 258 c 2
 441 119 l 1
 578 119 649 96 654 50 c 1
 641 18 619 0 585 -3 c 1
 450 27 329 36 220 25 c 0
 186 22 138 11 76 -9 c 1
 46 -12 l 1
 15 5 l 1
 8 78 79 115 229 115 c 1
 340 122 l 1
 358 256 l 2
 362 281 347 282 315 259 c 1
 234 251 183 287 163 368 c 1
 162 375 l 1
 182 429 213 459 257 463 c 2
 293 467 l 2
 312 469 335 460 363 441 c 1
 377 443 l 1
 376 459 360 517 330 616 c 1
 335 635 353 655 383 674 c 1
 391 674 l 1
321 345 m 1
 319 362 302 378 271 393 c 1
 262 392 257 387 258 378 c 0
 261 355 272 340 292 335 c 1
 307 337 l 1
 321 345 l 1
EndSplineSet
Validated: 33
Ligature2: "'liga' Standard Ligatures in Latin lookup 0 subtable" k a s i
Ligature2: "'liga' Standard Ligatures in Latin lookup 0 subtable" K a s i
EndChar

StartChar: ken
Encoding: 136 989464 140
Width: 697
GlyphClass: 3
Flags: W
LayerCount: 2
Fore
SplineSet
181 626 m 1
 192 608 l 1
 192 561 l 2
 192 545 187 512 175 461 c 1
 428 512 549 518 539 479 c 1
 539 467 l 1
 513 420 464 396 392 396 c 1
 353 344 327 279 314 202 c 1
 320 144 l 1
 345 124 369 114 392 114 c 2
 416 114 l 2
 440 114 479 130 533 161 c 1
 545 161 l 2
 553 160 557 156 557 149 c 0
 550 80 504 35 422 14 c 1
 381 14 l 1
 296 39 245 86 228 155 c 1
 228 173 226 185 222 190 c 1
 228 280 238 331 251 343 c 1
 247 351 245 357 245 361 c 0
 164 375 120 354 116 296 c 1
 120 265 122 232 122 196 c 2
 122 173 l 1
 117 141 103 126 81 126 c 0
 38 126 16 163 16 237 c 1
 36 401 67 525 110 608 c 1
 143 620 167 626 181 626 c 1
EndSplineSet
Validated: 33
Ligature2: "'liga' Standard Ligatures in Latin lookup 0 subtable" k e n
Ligature2: "'liga' Standard Ligatures in Latin lookup 0 subtable" K e n
EndChar

StartChar: kepeken
Encoding: 137 989465 141
Width: 878
GlyphClass: 3
Flags: W
LayerCount: 2
Fore
SplineSet
574 -5 m 1
 559 0 l 1
 495 53 471 103 487 152 c 2
 489 157 l 2
 491 162 500 167 516 170 c 1
 526 167 l 1
 597 101 629 58 623 40 c 2
 621 35 l 2
 612 9 596 -5 574 -5 c 1
286 660 m 2
 310 660 l 1
 322 655 334 636 347 605 c 1
 347 526 l 2
 348 517 352 513 359 513 c 0
 400 530 437 538 469 538 c 2
 517 538 l 1
 614 524 656 483 644 415 c 0
 630 353 606 303 572 263 c 0
 542 226 493 208 427 208 c 0
 421 208 414 210 406 214 c 1
 415 228 440 248 481 275 c 0
 522 302 544 340 548 391 c 1
 548 428 l 2
 548 434 542 440 530 446 c 1
 487 446 l 1
 393 424 347 408 347 397 c 2
 347 385 l 1
 337 105 314 -35 280 -35 c 0
 256 -35 242 -1 237 68 c 1
 245 140 251 230 255 337 c 1
 242 337 197 308 121 251 c 1
 109 251 l 2
 84 251 62 265 42 294 c 1
 42 306 l 1
 50 316 54 322 54 324 c 2
 54 343 l 1
 38 406 20 463 -1 513 c 1
 -1 519 l 1
 8 544 28 556 60 556 c 0
 88 556 115 509 139 416 c 1
 145 416 l 1
 219 445 255 470 255 489 c 2
 255 593 l 1
 261 637 272 660 286 660 c 2
611 248 m 1
 625 248 l 1
 691 225 725 192 725 149 c 2
 725 144 l 2
 725 139 718 133 706 126 c 1
 697 126 l 1
 622 158 584 182 584 198 c 2
 584 203 l 2
 584 226 593 242 611 248 c 1
EndSplineSet
Validated: 33
Ligature2: "'liga' Standard Ligatures in Latin lookup 0 subtable" k e p e k e n
Ligature2: "'liga' Standard Ligatures in Latin lookup 0 subtable" K e p e k e n
EndChar

StartChar: kili
Encoding: 138 989466 142
Width: 677
GlyphClass: 3
Flags: W
LayerCount: 2
Fore
SplineSet
298 736 m 2
 313 741 331 717 351 665 c 1
 367 607 365 558 346 516 c 1
 328 511 321 455 325 347 c 1
 327 343 l 1
 468 294 537 233 531 157 c 0
 525 81 463 22 345 -21 c 1
 332 -20 l 1
 333 -24 l 1
 183 -59 105 -65 99 -43 c 2
 96 -33 l 2
 93 -21 146 1 258 31 c 2
 357 59 l 1
 412 94 437 129 432 163 c 0
 426 197 396 223 342 240 c 1
 317 233 l 1
 318 183 295 151 250 138 c 1
 244 137 l 1
 225 140 215 144 214 149 c 2
 210 163 l 1
 201 222 201 258 207 269 c 0
 206 272 194 277 170 284 c 0
 106 292 72 302 69 312 c 0
 64 329 69 343 85 352 c 1
 115 361 l 1
 160 364 188 363 202 359 c 1
 215 363 l 1
 228 451 l 1
 148 425 l 1
 61 442 12 469 2 508 c 2
 -2 522 l 2
 -10 553 17 581 81 606 c 1
 106 612 l 2
 148 624 188 615 227 585 c 1
 239 588 l 1
 247 600 241 620 222 649 c 1
 228 695 247 722 280 731 c 2
 298 736 l 2
119 540 m 1
 108 532 l 1
 112 519 128 510 156 504 c 1
 168 508 l 1
 160 521 144 532 119 540 c 1
EndSplineSet
Validated: 33
Ligature2: "'liga' Standard Ligatures in Latin lookup 0 subtable" k i l i
Ligature2: "'liga' Standard Ligatures in Latin lookup 0 subtable" K i l i
EndChar

StartChar: kin
Encoding: 240 989561 143
Width: 515
GlyphClass: 3
Flags: W
LayerCount: 2
Fore
SplineSet
327 654 m 0
 349 654 368 639 384 610 c 1
 384 559 342 441 258 258 c 0
 242 221 230 202 220 201 c 2
 208 201 l 1
 161 210 138 231 138 264 c 2
 138 270 l 1
 221 490 288 620 340 659 c 1
 322 656 318 654 327 654 c 0
48 228 m 1
 76 171 110 139 151 132 c 1
 192 115 246 105 315 101 c 1
 327 82 l 1
 327 63 l 2
 327 25 294 4 226 0 c 1
 133 0 64 46 20 138 c 0
 8 168 2 198 3 229 c 0
 3 259 18 259 48 228 c 1
EndSplineSet
Validated: 37
Ligature2: "'liga' Standard Ligatures in Latin lookup 0 subtable" K i n
Ligature2: "'liga' Standard Ligatures in Latin lookup 0 subtable" k i n
EndChar

StartChar: kipisi
Encoding: 241 989563 144
Width: 881
GlyphClass: 3
Flags: W
LayerCount: 2
Fore
SplineSet
542 702 m 1
 560 678 l 1
 545 642 525 603 499 562 c 1
 493 562 473 534 438 477 c 1
 438 452 l 1
 496 349 529 297 536 294 c 1
 569 306 626 312 706 312 c 2
 755 312 l 2
 761 312 767 306 773 294 c 1
 773 288 l 1
 764 268 708 250 603 233 c 0
 562 225 542 217 542 209 c 2
 542 105 l 1
 524 52 494 13 450 -11 c 1
 389 -17 l 1
 339 -17 298 36 267 142 c 1
 243 142 l 1
 146 97 85 74 60 74 c 2
 48 74 l 2
 43 74 26 91 -1 123 c 1
 -1 162 64 197 194 227 c 0
 251 239 279 261 279 294 c 0
 279 325 296 372 328 434 c 1
 304 478 259 516 194 550 c 1
 188 562 l 1
 188 593 l 2
 188 599 196 607 212 617 c 1
 225 617 l 2
 258 617 307 589 371 532 c 1
 383 532 l 1
 448 645 501 702 542 702 c 1
359 270 m 1
 391 274 414 280 426 288 c 1
 405 327 395 349 395 355 c 1
 389 355 l 2
 379 355 368 326 359 270 c 1
340 160 m 1
 340 93 359 59 395 56 c 1
 432 77 450 120 450 184 c 1
 443 188 435 190 426 190 c 0
 390 182 362 172 340 160 c 1
EndSplineSet
Validated: 1
Ligature2: "'liga' Standard Ligatures in Latin lookup 0 subtable" K i p i s i
Ligature2: "'liga' Standard Ligatures in Latin lookup 0 subtable" k i p i s i
EndChar

StartChar: kiwen
Encoding: 139 989467 145
Width: 704
GlyphClass: 3
Flags: W
LayerCount: 2
Fore
SplineSet
210 712 m 1
 254 712 284 688 298 640 c 1
 317 537 332 480 345 468 c 1
 400 510 428 551 428 593 c 0
 428 598 433 603 444 608 c 1
 470 608 l 1
 494 586 506 566 506 546 c 1
 489 485 464 445 433 427 c 1
 424 407 399 383 361 354 c 1
 361 349 l 1
 381 250 l 1
 447 250 508 229 563 188 c 1
 579 167 l 1
 579 136 l 2
 579 125 556 120 511 120 c 1
 470 158 425 177 376 177 c 1
 371 167 l 1
 371 131 l 2
 371 72 348 26 303 -10 c 1
 276 -17 243 -20 205 -20 c 1
 118 10 57 53 23 110 c 1
 23 125 l 2
 23 199 82 242 200 255 c 1
 267 255 l 1
 277 260 l 1
 271 299 264 318 257 318 c 0
 253 318 251 316 251 312 c 1
 138 312 67 359 39 453 c 1
 39 483 35 502 28 510 c 1
 28 533 40 551 65 562 c 1
 116 562 142 530 142 468 c 1
 157 423 181 401 215 401 c 0
 236 403 246 410 246 421 c 0
 219 521 198 607 184 681 c 1
 184 686 l 2
 184 691 193 700 210 712 c 1
111 136 m 2
 111 131 l 2
 111 98 146 72 215 53 c 1
 241 53 l 1
 262 64 272 71 272 73 c 0
 272 85 276 113 283 157 c 1
 272 183 l 1
 165 170 111 154 111 136 c 2
EndSplineSet
Validated: 1
Ligature2: "'liga' Standard Ligatures in Latin lookup 0 subtable" k i w e n
Ligature2: "'liga' Standard Ligatures in Latin lookup 0 subtable" K i w e n
EndChar

StartChar: ko
Encoding: 140 989468 146
Width: 763
GlyphClass: 3
Flags: W
LayerCount: 2
Fore
SplineSet
402 699 m 1
 472 653 503 598 497 532 c 1
 496 526 l 2
 493 492 460 448 397 393 c 1
 409 301 412 227 407 171 c 1
 376 25 333 -44 276 -39 c 0
 254 -41 241 -42 238 -41 c 0
 199 -38 161 -7 124 50 c 1
 125 62 l 2
 127 70 131 74 138 73 c 2
 163 71 l 1
 221 57 254 50 259 49 c 1
 284 87 298 129 302 174 c 0
 312 276 307 328 286 330 c 1
 235 306 183 297 130 302 c 0
 55 309 18 364 16 467 c 1
 17 479 l 2
 28 589 45 643 70 641 c 2
 88 639 l 1
 111 624 121 600 118 568 c 2
 111 495 l 2
 104 426 111 390 132 388 c 0
 141 387 149 385 156 380 c 1
 235 390 275 402 276 417 c 1
 246 494 224 545 211 572 c 1
 214 602 l 2
 219 614 232 619 252 617 c 2
 289 614 l 1
 317 590 344 547 369 483 c 1
 381 481 l 1
 400 511 411 531 412 540 c 2
 412 546 l 1
 390 602 367 641 343 664 c 1
 336 702 356 713 402 699 c 1
513 247 m 2
 531 245 l 1
 592 198 621 150 616 101 c 2
 615 95 l 1
 599 84 584 79 571 81 c 0
 524 85 484 124 452 197 c 1
 454 215 l 1
 471 238 490 249 513 247 c 2
99 243 m 0
 139 234 158 212 154 176 c 0
 151 144 115 125 44 119 c 1
 20 122 l 2
 14 122 5 133 -8 155 c 1
 -6 173 l 1
 43 222 78 245 99 243 c 0
EndSplineSet
Validated: 33
Ligature2: "'liga' Standard Ligatures in Latin lookup 0 subtable" k o
Ligature2: "'liga' Standard Ligatures in Latin lookup 0 subtable" K o
EndChar

StartChar: kon
Encoding: 141 989469 147
Width: 725
GlyphClass: 3
Flags: W
LayerCount: 2
Fore
SplineSet
149 671 m 2
 160 671 l 2
 165 671 176 660 193 638 c 1
 193 594 l 1
 163 544 141 511 127 495 c 1
 130 488 132 483 132 479 c 1
 143 479 l 1
 166 502 238 535 359 578 c 0
 480 622 556 596 589 501 c 1
 589 429 l 1
 562 348 525 308 479 308 c 2
 457 308 l 2
 451 308 446 314 440 325 c 1
 440 336 l 1
 473 383 490 416 490 435 c 2
 490 473 l 2
 490 491 480 504 462 512 c 1
 432 512 366 490 264 446 c 1
 158 383 96 352 77 352 c 0
 26 361 0 381 0 413 c 0
 0 449 39 532 116 660 c 1
 128 668 139 671 149 671 c 2
281 385 m 1
 306 374 322 359 330 341 c 1
 286 248 l 1
 297 242 l 1
 308 242 l 2
 323 242 344 244 369 248 c 1
 409 237 441 215 462 182 c 0
 466 175 468 168 468 160 c 0
 468 110 424 60 336 11 c 0
 330 11 314 7 286 0 c 1
 260 4 248 9 248 17 c 2
 248 28 l 1
 326 96 366 140 369 160 c 1
 365 160 359 161 352 165 c 1
 312 150 286 143 275 143 c 2
 248 143 l 2
 219 143 193 165 171 209 c 1
 209 323 240 380 264 380 c 0
 268 380 273 381 281 385 c 1
EndSplineSet
Validated: 33
Ligature2: "'liga' Standard Ligatures in Latin lookup 0 subtable" k o n
Ligature2: "'liga' Standard Ligatures in Latin lookup 0 subtable" K o n
EndChar

StartChar: kule
Encoding: 142 989470 148
Width: 744
GlyphClass: 3
Flags: W
LayerCount: 2
Fore
SplineSet
267 694 m 2
 278 693 l 2
 320 690 337 649 331 569 c 1
 340 559 364 548 402 537 c 1
 449 504 471 475 469 448 c 2
 466 411 l 1
 454 364 421 321 367 282 c 0
 334 260 317 241 315 223 c 1
 381 138 447 88 514 72 c 1
 550 44 568 25 567 15 c 0
 557 -5 544 -15 528 -14 c 0
 452 -8 369 39 282 126 c 1
 276 126 l 1
 218 47 177 8 152 10 c 2
 110 13 l 2
 105 14 98 21 91 36 c 1
 92 55 115 79 160 109 c 1
 191 154 207 179 207 184 c 0
 204 185 202 186 202 190 c 1
 71 189 l 1
 33 198 15 214 17 236 c 1
 32 249 43 255 50 254 c 0
 54 254 59 252 65 248 c 1
 185 259 246 282 249 318 c 2
 250 333 l 2
 251 348 251 362 248 375 c 1
 253 389 256 402 257 417 c 0
 255 438 250 449 243 449 c 2
 228 451 l 2
 219 451 167 422 74 363 c 1
 58 364 l 2
 23 366 6 389 6 431 c 1
 92 500 170 538 240 544 c 1
 242 565 l 1
 235 613 232 646 234 665 c 2
 235 681 l 2
 239 691 250 696 267 694 c 2
344 463 m 2
 343 442 l 2
 340 403 343 384 354 383 c 1
 374 416 384 436 385 444 c 0
 382 461 377 471 371 471 c 2
 355 472 l 2
 348 472 345 468 344 463 c 2
EndSplineSet
Validated: 33
Ligature2: "'liga' Standard Ligatures in Latin lookup 0 subtable" k u l e
Ligature2: "'liga' Standard Ligatures in Latin lookup 0 subtable" K u l e
EndChar

StartChar: kulupu
Encoding: 143 989471 149
Width: 633
GlyphClass: 3
Flags: W
LayerCount: 2
Fore
SplineSet
327 701 m 1
 362 701 386 691 400 671 c 1
 400 656 l 2
 400 640 396 631 388 631 c 1
 394 621 l 1
 342 542 280 467 206 398 c 1
 206 393 l 1
 224 393 l 1
 295 403 338 408 351 408 c 0
 440 395 485 375 485 348 c 1
 500 342 510 303 515 229 c 1
 490 136 454 71 406 35 c 0
 379 12 336 0 279 0 c 0
 219 0 165 35 115 104 c 1
 115 171 198 204 364 204 c 2
 370 204 l 2
 394 204 406 217 406 244 c 2
 406 268 l 2
 406 308 386 328 345 328 c 1
 254 310 188 288 145 263 c 1
 97 263 l 2
 57 263 36 293 36 353 c 0
 36 360 77 404 158 487 c 1
 158 492 l 1
 151 492 l 1
 125 476 92 464 55 457 c 1
 18 461 0 468 0 477 c 0
 0 507 34 541 103 577 c 1
 159 616 233 657 327 701 c 1
236 99 m 0
 239 91 249 82 267 75 c 1
 303 75 l 1
 336 92 358 110 370 129 c 1
 366 136 364 141 364 144 c 1
 358 144 l 1
 347 137 309 127 242 114 c 1
 238 108 236 103 236 99 c 0
EndSplineSet
Validated: 1
Ligature2: "'liga' Standard Ligatures in Latin lookup 0 subtable" k u l u p u
Ligature2: "'liga' Standard Ligatures in Latin lookup 0 subtable" K u l u p u
EndChar

StartChar: kute
Encoding: 144 989472 150
Width: 717
GlyphClass: 3
Flags: W
LayerCount: 2
Fore
SplineSet
417 639 m 2
 473 639 l 1
 551 602 590 534 590 435 c 1
 568 180 496 53 374 53 c 1
 349 62 337 71 337 77 c 1
 419 166 466 259 479 355 c 0
 483 355 485 357 485 361 c 0
 485 378 487 415 491 472 c 1
 487 521 475 546 454 546 c 0
 359 538 310 521 306 497 c 1
 319 475 323 441 318 395 c 0
 314 349 274 283 197 198 c 1
 184 190 173 186 166 186 c 0
 137 190 123 196 123 204 c 0
 123 213 154 271 216 377 c 1
 214 357 214 368 214 410 c 2
 214 447 l 1
 195 447 l 1
 142 402 103 380 78 380 c 2
 66 380 l 2
 34 380 13 392 4 417 c 1
 4 423 l 2
 4 458 57 501 164 552 c 1
 260 610 345 639 417 639 c 2
EndSplineSet
Validated: 41
Ligature2: "'liga' Standard Ligatures in Latin lookup 0 subtable" k u t e
Ligature2: "'liga' Standard Ligatures in Latin lookup 0 subtable" K u t e
EndChar

StartChar: la
Encoding: 145 989473 151
Width: 498
GlyphClass: 3
Flags: W
LayerCount: 2
Fore
SplineSet
308 645 m 2
 349 645 369 627 369 590 c 2
 369 585 l 1
 321 496 257 416 177 343 c 1
 162 317 l 1
 165 301 187 276 228 242 c 1
 264 198 317 156 389 115 c 1
 399 102 404 92 404 85 c 1
 384 65 l 1
 339 65 l 1
 251 86 159 161 61 292 c 1
 54 314 51 329 51 338 c 1
 152 444 l 2
 211 503 262 571 303 645 c 1
 308 645 l 2
EndSplineSet
Validated: 1
Ligature2: "'liga' Standard Ligatures in Latin lookup 0 subtable" l a
Ligature2: "'liga' Standard Ligatures in Latin lookup 0 subtable" L a
EndChar

StartChar: lape
Encoding: 146 989474 152
Width: 765
GlyphClass: 3
Flags: W
LayerCount: 2
Fore
SplineSet
432 674 m 0
 498 674 530 631 530 545 c 0
 530 499 477 446 369 387 c 1
 295 360 250 329 236 292 c 0
 217 246 208 221 208 218 c 0
 209 211 213 208 219 208 c 0
 284 263 337 292 381 297 c 1
 421 297 l 1
 452 276 467 261 467 253 c 0
 463 197 461 154 461 124 c 2
 461 119 l 2
 461 111 471 106 490 104 c 1
 540 114 596 155 657 228 c 1
 673 223 680 211 680 193 c 2
 680 169 l 1
 675 135 644 99 588 59 c 1
 553 40 520 29 490 25 c 1
 406 38 363 68 363 114 c 0
 367 172 369 207 369 218 c 1
 363 218 l 1
 260 152 187 84 144 15 c 1
 132 5 122 0 115 0 c 0
 77 0 58 18 58 55 c 2
 58 59 l 1
 81 139 115 228 161 327 c 1
 150 332 l 1
 144 332 l 2
 136 332 128 330 121 327 c 0
 45 338 5 354 0 377 c 0
 0 394 8 406 23 411 c 1
 36 411 65 405 110 392 c 1
 183 392 219 406 219 436 c 1
 309 595 380 674 432 674 c 0
444 610 m 1
 375 538 335 484 323 446 c 1
 323 441 l 1
 329 441 l 1
 421 485 467 532 467 580 c 1
 459 600 452 610 444 610 c 1
EndSplineSet
Validated: 1
Ligature2: "'liga' Standard Ligatures in Latin lookup 0 subtable" l a p e
Ligature2: "'liga' Standard Ligatures in Latin lookup 0 subtable" L a p e
EndChar

StartChar: laso
Encoding: 147 989475 153
Width: 712
GlyphClass: 3
Flags: W
LayerCount: 2
Fore
SplineSet
116 688 m 1
 138 688 l 2
 166 688 192 667 217 625 c 1
 228 625 233 616 233 598 c 1
 266 605 293 609 312 609 c 2
 323 609 l 1
 415 605 461 587 461 556 c 1
 471 535 l 1
 471 478 431 420 349 360 c 1
 360 127 l 1
 343 42 320 0 291 0 c 0
 259 0 222 16 180 48 c 1
 180 55 199 64 238 74 c 1
 252 94 259 165 259 286 c 1
 249 291 l 1
 238 291 l 1
 187 259 138 244 90 244 c 0
 37 246 11 253 11 265 c 1
 110 308 184 347 233 381 c 1
 233 397 l 1
 212 482 l 1
 206 482 l 2
 190 482 158 464 111 429 c 0
 94 418 79 413 69 413 c 2
 37 413 l 2
 12 413 0 425 0 450 c 2
 0 455 l 1
 23 484 72 519 148 561 c 1
 148 572 l 1
 113 604 95 634 95 662 c 2
 95 667 l 2
 95 673 102 680 116 688 c 1
296 514 m 1
 312 466 l 1
 323 466 l 1
 355 488 371 509 371 529 c 1
 360 535 l 1
 318 535 296 528 296 514 c 1
450 228 m 0
 496 228 535 192 566 122 c 1
 566 106 l 2
 566 100 558 95 540 90 c 1
 483 90 441 118 413 175 c 1
 413 206 l 1
 419 221 431 228 450 228 c 0
116 196 m 2
 122 196 l 2
 141 196 155 187 164 169 c 1
 164 148 l 2
 164 121 134 91 74 58 c 1
 21 58 l 2
 13 58 8 67 5 85 c 1
 58 159 95 196 116 196 c 2
EndSplineSet
Validated: 1
Ligature2: "'liga' Standard Ligatures in Latin lookup 0 subtable" l a s o
Ligature2: "'liga' Standard Ligatures in Latin lookup 0 subtable" L a s o
EndChar

StartChar: lawa
Encoding: 148 989476 154
Width: 755
GlyphClass: 3
Flags: W
LayerCount: 2
Fore
SplineSet
409 709 m 2
 523 709 590 663 610 571 c 1
 604 469 560 402 478 370 c 0
 459 363 415 353 346 342 c 1
 340 330 l 1
 340 264 373 160 438 20 c 1
 444 20 450 3 455 -31 c 1
 420 -60 l 1
 372 -60 309 -20 231 60 c 1
 231 72 l 1
 237 83 l 1
 259 80 284 72 311 60 c 1
 317 72 l 1
 317 78 l 1
 291 127 265 209 237 324 c 1
 230 328 223 330 214 330 c 2
 157 330 l 1
 122 324 l 1
 56 337 20 353 13 370 c 1
 13 405 l 2
 13 407 19 413 30 422 c 1
 75 418 108 416 128 416 c 2
 202 416 l 2
 233 416 248 428 248 451 c 2
 248 496 l 2
 248 598 300 669 403 709 c 1
 409 709 l 2
345 453 m 2
 345 448 l 1
 350 439 l 1
 408 439 454 464 487 514 c 1
 487 523 490 532 496 542 c 1
 496 590 480 613 449 613 c 2
 435 613 l 1
 375 593 345 540 345 453 c 2
19 628 m 1
 53 628 l 2
 98 628 136 590 168 514 c 1
 162 498 148 491 128 491 c 1
 79 504 35 531 -4 571 c 1
 -4 605 l 2
 -4 611 4 619 19 628 c 1
EndSplineSet
Validated: 1
Ligature2: "'liga' Standard Ligatures in Latin lookup 0 subtable" l a w a
Ligature2: "'liga' Standard Ligatures in Latin lookup 0 subtable" L a w a
EndChar

StartChar: leko
Encoding: 242 989564 155
Width: 788
GlyphClass: 3
Flags: W
LayerCount: 2
Fore
SplineSet
585 642 m 1
 585 640 595 623 615 593 c 1
 613 580 l 2
 610 561 543 543 413 525 c 1
 401 515 357 503 279 490 c 1
 278 481 257 471 217 462 c 1
 151 473 122 500 129 541 c 0
 133 567 174 583 252 590 c 1
 292 614 403 632 585 642 c 1
612 421 m 1
 629 411 642 396 649 377 c 1
 642 335 591 314 498 313 c 1
 446 305 417 286 412 257 c 1
 397 221 389 199 388 191 c 1
 412 172 479 129 589 62 c 0
 589 58 588 41 587 11 c 1
 567 -2 549 -8 533 -5 c 0
 498 1 427 38 323 107 c 1
 245 39 193 8 167 12 c 2
 117 20 l 2
 111 21 104 31 97 49 c 1
 98 56 l 1
 204 129 270 195 296 251 c 0
 302 258 305 266 307 275 c 1
 174 255 103 246 92 248 c 0
 22 260 -9 290 -1 340 c 0
 2 359 63 368 182 366 c 1
 612 421 l 1
EndSplineSet
Validated: 33
Ligature2: "'liga' Standard Ligatures in Latin lookup 0 subtable" L e k o
Ligature2: "'liga' Standard Ligatures in Latin lookup 0 subtable" l e k o
EndChar

StartChar: len
Encoding: 149 989477 156
Width: 771
GlyphClass: 3
Flags: W
LayerCount: 2
Fore
SplineSet
572 666 m 2
 601 666 618 645 624 603 c 1
 615 603 595 520 562 354 c 0
 562 350 558 310 551 234 c 1
 614 211 645 182 645 146 c 1
 638 125 624 114 603 114 c 2
 593 114 l 2
 585 114 564 123 530 140 c 1
 530 135 l 2
 530 128 529 125 525 125 c 1
 530 114 l 1
 530 109 l 2
 530 106 529 104 525 104 c 1
 530 94 l 1
 530 52 l 1
 526 17 510 0 484 0 c 0
 455 0 408 33 343 99 c 1
 343 104 l 2
 343 114 362 120 400 120 c 1
 401 113 405 109 411 109 c 0
 428 114 437 132 437 161 c 2
 437 177 l 2
 437 186 397 193 317 198 c 0
 260 198 175 172 62 120 c 1
 52 120 l 2
 24 120 7 139 0 177 c 1
 47 265 l 1
 73 270 l 1
 88 270 l 1
 104 256 112 250 114 250 c 2
 120 250 l 1
 166 267 226 281 302 291 c 1
 317 291 l 2
 331 291 374 288 447 281 c 1
 459 364 469 423 478 458 c 1
 478 463 l 1
 468 468 l 1
 448 453 427 443 406 437 c 1
 395 442 l 1
 389 438 382 437 374 437 c 0
 325 459 292 494 276 541 c 1
 255 540 214 496 151 411 c 1
 120 390 l 1
 99 390 l 2
 94 390 87 399 78 416 c 1
 90 483 137 547 218 608 c 1
 260 633 289 645 307 645 c 2
 312 645 l 2
 354 645 376 610 380 541 c 1
 390 536 l 1
 405 536 453 579 536 666 c 1
 572 666 l 2
EndSplineSet
Validated: 1
Ligature2: "'liga' Standard Ligatures in Latin lookup 0 subtable" l e n
Ligature2: "'liga' Standard Ligatures in Latin lookup 0 subtable" L e n
EndChar

StartChar: lete
Encoding: 150 989478 157
Width: 697
GlyphClass: 3
Flags: W
LayerCount: 2
Fore
SplineSet
262 668 m 1
 267 668 l 2
 291 666 302 660 302 651 c 2
 302 633 l 2
 302 623 293 602 274 573 c 0
 255 543 238 520 223 503 c 1
 217 485 211 464 205 440 c 1
 179 391 179 367 206 368 c 1
 244 355 l 1
 318 355 367 327 389 273 c 1
 395 238 l 1
 390 175 349 104 273 23 c 1
 251 8 238 0 232 0 c 0
 198 10 180 19 180 29 c 2
 180 41 l 1
 227 97 255 158 264 222 c 0
 266 245 257 258 238 262 c 2
 180 273 l 1
 107 295 70 326 70 366 c 0
 70 445 122 538 227 645 c 1
 234 645 246 653 262 668 c 1
76 221 m 0
 118 221 139 203 139 169 c 1
 122 99 89 64 41 64 c 1
 17 72 3 81 0 93 c 1
 38 178 63 221 76 221 c 0
436 157 m 2
 442 157 l 1
 511 133 563 93 599 35 c 1
 599 23 l 2
 597 15 587 8 570 0 c 1
 461 24 407 59 407 105 c 2
 407 122 l 1
 420 145 430 157 436 157 c 2
EndSplineSet
Validated: 33
Ligature2: "'liga' Standard Ligatures in Latin lookup 0 subtable" l e t e
Ligature2: "'liga' Standard Ligatures in Latin lookup 0 subtable" L e t e
EndChar

StartChar: li
Encoding: 151 989479 158
Width: 809
GlyphClass: 3
Flags: W
LayerCount: 2
Fore
SplineSet
612 642 m 1
 693 622 733 582 733 521 c 2
 733 501 l 1
 682 375 653 311 647 311 c 0
 642 311 618 307 578 298 c 1
 571 298 l 2
 565 298 558 304 551 318 c 1
 551 325 l 1
 600 405 625 475 625 534 c 2
 625 541 l 2
 625 548 618 554 605 561 c 1
 475 527 369 455 288 345 c 1
 349 250 406 169 456 102 c 0
 456 100 465 73 483 21 c 1
 456 1 l 1
 450 1 l 1
 364 90 308 148 281 174 c 0
 262 194 242 219 220 251 c 1
 210 251 185 222 146 163 c 1
 109 163 79 177 58 204 c 1
 58 234 87 281 146 345 c 1
 51 469 4 539 4 555 c 2
 4 568 l 1
 20 582 36 588 51 588 c 0
 106 588 160 539 213 440 c 1
 220 440 l 1
 361 575 471 642 551 642 c 2
 612 642 l 1
EndSplineSet
Validated: 1
Ligature2: "'liga' Standard Ligatures in Latin lookup 0 subtable" l i
Ligature2: "'liga' Standard Ligatures in Latin lookup 0 subtable" L i
EndChar

StartChar: lili
Encoding: 152 989480 159
Width: 749
GlyphClass: 3
Flags: W
LayerCount: 2
Fore
SplineSet
362 602 m 1
 391 595 l 1
 416 564 427 542 424 527 c 2
 355 384 l 1
 394 336 472 276 587 203 c 1
 605 175 612 153 609 137 c 1
 587 126 569 122 557 125 c 0
 450 174 366 230 303 293 c 1
 292 295 l 2
 287 296 258 267 204 206 c 1
 128 142 71 108 35 105 c 1
 23 107 l 1
 -17 127 -35 143 -32 157 c 1
 53 194 120 246 168 312 c 1
 251 392 303 478 324 568 c 1
 326 580 l 2
 328 585 340 592 362 602 c 1
286 160 m 1
 315 153 l 2
 346 146 383 97 427 6 c 1
 415 -24 404 -38 393 -35 c 2
 364 -29 l 2
 327 -20 287 26 244 109 c 1
 246 120 l 2
 251 141 264 155 286 160 c 1
EndSplineSet
Validated: 33
Ligature2: "'liga' Standard Ligatures in Latin lookup 0 subtable" l i l i
Ligature2: "'liga' Standard Ligatures in Latin lookup 0 subtable" L i l i
EndChar

StartChar: linja
Encoding: 153 989481 160
Width: 851
GlyphClass: 3
Flags: W
LayerCount: 2
Fore
SplineSet
291 535 m 2
 366 535 416 454 442 291 c 1
 470 253 486 233 492 233 c 2
 499 233 l 2
 565 233 628 329 686 521 c 1
 708 521 l 2
 725 521 740 492 751 434 c 1
 703 229 617 126 492 126 c 0
 401 126 329 206 278 366 c 1
 249 367 l 1
 170 324 119 256 97 162 c 1
 54 126 l 1
 26 126 l 2
 18 126 11 135 4 154 c 1
 4 298 93 425 270 535 c 1
 291 535 l 2
EndSplineSet
Validated: 1
Ligature2: "'liga' Standard Ligatures in Latin lookup 0 subtable" l i n j a
Ligature2: "'liga' Standard Ligatures in Latin lookup 0 subtable" L i n j a
EndChar

StartChar: lipu
Encoding: 154 989482 161
Width: 887
GlyphClass: 3
Flags: W
LayerCount: 2
Fore
SplineSet
559 624 m 1
 559 620 584 606 634 582 c 1
 701 535 733 475 729 402 c 2
 727 364 l 1
 694 245 644 159 578 107 c 0
 543 80 506 67 466 69 c 2
 461 69 l 1
 456 80 l 1
 457 102 l 1
 546 199 604 293 630 385 c 1
 633 462 597 507 521 521 c 1
 499 522 l 1
 438 519 384 503 338 475 c 1
 306 429 272 407 236 409 c 2
 209 410 l 2
 204 410 195 420 183 439 c 1
 184 472 l 1
 267 574 372 622 498 616 c 1
 498 621 519 624 559 624 c 1
82 636 m 1
 125 606 l 1
 118 533 113 479 111 442 c 0
 118 245 130 145 147 145 c 1
 166 168 185 184 204 191 c 1
 253 189 l 2
 260 187 264 184 263 177 c 2
 263 161 l 2
 261 123 222 72 146 8 c 1
 124 9 l 2
 70 11 40 66 33 172 c 2
 8 458 l 1
 14 579 39 638 82 636 c 1
EndSplineSet
Validated: 33
Ligature2: "'liga' Standard Ligatures in Latin lookup 0 subtable" l i p u
Ligature2: "'liga' Standard Ligatures in Latin lookup 0 subtable" L i p u
EndChar

StartChar: loje
Encoding: 155 989483 162
Width: 629
GlyphClass: 3
Flags: W
LayerCount: 2
Fore
SplineSet
214 688 m 2
 256 688 l 2
 275 688 287 659 292 601 c 1
 286 591 l 1
 297 469 304 407 310 407 c 0
 318 407 322 405 322 402 c 1
 335 409 363 414 405 417 c 0
 452 417 496 399 536 363 c 1
 542 354 l 1
 542 330 l 2
 542 278 473 206 334 111 c 1
 338 55 340 19 340 5 c 1
 328 0 l 1
 292 0 l 2
 283 1 269 28 250 82 c 1
 203 82 l 2
 188 82 170 76 149 63 c 1
 143 63 l 2
 122 63 110 68 107 78 c 2
 107 87 l 1
 147 139 185 165 220 165 c 1
 232 179 l 1
 232 237 l 1
 226 271 l 1
 203 271 l 1
 168 251 124 235 71 223 c 1
 66 223 l 2
 35 223 13 239 0 271 c 1
 0 294 71 328 214 373 c 1
 214 388 l 2
 214 408 193 421 149 427 c 1
 77 474 42 515 42 548 c 1
 71 567 l 1
 107 567 l 2
 114 567 141 544 191 499 c 1
 197 499 l 1
 197 533 l 2
 197 564 195 601 191 645 c 1
 197 674 205 688 214 688 c 2
459 630 m 1
 488 601 l 1
 488 572 l 1
 466 514 441 478 411 465 c 1
 387 465 l 2
 367 465 355 470 351 480 c 1
 351 509 l 1
 363 541 387 576 423 616 c 1
 423 622 435 627 459 630 c 1
316 305 m 1
 316 237 l 2
 317 231 321 228 328 228 c 0
 395 270 429 304 429 330 c 1
 417 334 l 1
 357 326 323 316 316 305 c 1
EndSplineSet
Validated: 1
Ligature2: "'liga' Standard Ligatures in Latin lookup 0 subtable" l o j e
Ligature2: "'liga' Standard Ligatures in Latin lookup 0 subtable" L o j e
EndChar

StartChar: lon
Encoding: 156 989484 163
Width: 766
GlyphClass: 3
Flags: W
LayerCount: 2
Fore
SplineSet
365 651 m 1
 380 649 l 1
 403 634 411 608 406 570 c 0
 405 561 396 532 379 483 c 1
 386 482 l 1
 456 498 505 503 532 500 c 1
 560 484 573 472 572 464 c 2
 569 442 l 1
 560 421 480 385 328 332 c 1
 315 297 l 1
 329 287 l 1
 380 280 l 2
 467 268 549 206 625 95 c 1
 624 87 l 2
 623 80 615 74 599 68 c 1
 584 70 l 2
 574 72 514 108 404 179 c 1
 293 194 189 146 90 34 c 1
 80 36 62 31 35 20 c 1
 3 41 -13 56 -11 64 c 0
 -2 130 70 195 204 259 c 1
 212 258 l 1
 221 325 l 2
 223 336 222 346 218 355 c 1
 275 534 311 632 327 649 c 1
 365 651 l 1
EndSplineSet
Validated: 33
Ligature2: "'liga' Standard Ligatures in Latin lookup 0 subtable" l o n
Ligature2: "'liga' Standard Ligatures in Latin lookup 0 subtable" L o n
EndChar

StartChar: luka
Encoding: 157 989485 164
Width: 881
GlyphClass: 3
Flags: W
LayerCount: 2
Fore
SplineSet
587 690 m 0
 670 690 729 633 764 519 c 1
 764 446 l 2
 764 379 721 284 633 164 c 1
 535 41 445 -20 364 -20 c 1
 351 0 l 1
 351 6 l 1
 556 194 659 345 659 460 c 2
 659 486 l 2
 659 556 627 591 561 591 c 1
 493 574 421 517 344 420 c 0
 330 400 310 359 285 295 c 1
 291 282 l 1
 291 276 l 1
 279 219 265 190 252 190 c 2
 226 190 l 1
 126 225 60 262 29 302 c 1
 16 306 9 319 9 341 c 0
 9 365 18 380 35 387 c 1
 48 387 l 2
 74 387 116 359 173 302 c 1
 186 302 l 1
 191 392 272 506 429 644 c 1
 491 674 543 690 587 690 c 0
EndSplineSet
Validated: 1
Ligature2: "'liga' Standard Ligatures in Latin lookup 0 subtable" l u k a
Ligature2: "'liga' Standard Ligatures in Latin lookup 0 subtable" L u k a
EndChar

StartChar: lukin
Encoding: 158 989486 165
Width: 819
GlyphClass: 3
Flags: W
LayerCount: 2
Fore
SplineSet
251 667 m 2
 272 667 l 1
 293 655 303 641 303 622 c 2
 303 548 l 1
 307 548 312 547 319 543 c 1
 337 550 383 555 455 558 c 1
 535 542 575 519 575 489 c 1
 579 489 580 487 580 484 c 0
 580 420 528 347 424 267 c 1
 343 210 l 1
 339 149 338 104 338 76 c 1
 312 25 289 0 267 0 c 1
 256 12 251 24 251 35 c 2
 251 148 l 1
 235 148 l 1
 218 135 178 122 115 109 c 1
 89 109 l 2
 59 109 36 119 21 138 c 1
 21 143 l 1
 38 155 81 172 150 193 c 1
 210 220 243 238 247 247 c 1
 247 385 243 443 234 421 c 1
 141 389 94 354 94 316 c 1
 77 285 59 268 42 267 c 0
 30 267 16 272 0 282 c 1
 0 346 54 417 162 494 c 1
 207 509 230 521 230 529 c 0
 227 575 225 614 225 647 c 1
 240 660 249 667 251 667 c 2
331 444 m 0
 334 439 336 428 339 413 c 1
 335 413 l 1
 339 406 l 1
 339 341 l 1
 342 324 l 1
 350 324 l 1
 427 385 466 426 466 447 c 0
 466 457 450 464 419 468 c 1
 404 468 l 1
 356 462 331 454 331 444 c 0
433 214 m 1
 440 214 l 2
 482 214 523 165 561 67 c 1
 561 60 l 1
 532 40 l 1
 489 40 441 78 390 154 c 1
 390 179 404 199 433 214 c 1
535 305 m 1
 542 305 l 2
 580 305 616 261 650 173 c 1
 650 167 l 1
 624 149 l 1
 585 149 543 183 497 251 c 1
 497 273 510 291 535 305 c 1
EndSplineSet
Validated: 33
Ligature2: "'liga' Standard Ligatures in Latin lookup 0 subtable" l u k i n
Ligature2: "'liga' Standard Ligatures in Latin lookup 0 subtable" L u k i n
EndChar

StartChar: lupa
Encoding: 159 989487 166
Width: 711
GlyphClass: 3
Flags: W
LayerCount: 2
Fore
SplineSet
466 673 m 1
 491 668 l 2
 499 665 502 660 501 653 c 2
 498 641 l 1
 468 613 382 583 242 552 c 1
 240 543 210 536 154 532 c 1
 123 538 l 2
 94 544 83 562 89 590 c 2
 90 597 l 1
 138 630 171 644 189 640 c 1
 252 661 345 672 466 673 c 1
386 535 m 1
 440 524 462 496 452 451 c 1
 425 427 346 368 216 274 c 0
 171 245 146 214 139 181 c 2
 131 144 l 2
 129 132 143 121 175 109 c 1
 296 84 418 110 539 188 c 0
 540 192 545 193 553 192 c 0
 569 184 575 174 572 162 c 0
 552 64 445 13 251 10 c 0
 230 10 203 13 170 20 c 0
 89 37 40 81 24 153 c 1
 35 209 l 2
 39 225 86 280 179 373 c 1
 108 342 l 2
 93 336 79 335 68 337 c 2
 44 342 l 2
 19 347 5 363 2 390 c 1
 10 428 138 477 386 535 c 1
EndSplineSet
Validated: 33
Ligature2: "'liga' Standard Ligatures in Latin lookup 0 subtable" l u p a
Ligature2: "'liga' Standard Ligatures in Latin lookup 0 subtable" L u p a
EndChar

StartChar: ma
Encoding: 160 989488 167
Width: 753
GlyphClass: 3
Flags: W
LayerCount: 2
Fore
SplineSet
394 637 m 1
 405 635 l 2
 442 631 458 610 453 574 c 0
 450 552 420 502 362 423 c 2
 221 235 l 1
 237 233 l 1
 305 275 386 297 479 297 c 1
 575 285 623 211 625 74 c 1
 614 53 598 44 577 47 c 0
 543 51 514 104 490 206 c 1
 463 210 l 1
 391 211 267 148 93 22 c 1
 93 15 83 12 65 15 c 2
 32 19 l 1
 13 30 -1 51 -11 80 c 1
 -9 96 l 2
 -7 106 53 184 171 330 c 1
 327 550 l 1
 349 601 372 630 394 637 c 1
EndSplineSet
Validated: 33
Ligature2: "'liga' Standard Ligatures in Latin lookup 0 subtable" m a
Ligature2: "'liga' Standard Ligatures in Latin lookup 0 subtable" M a
EndChar

StartChar: mama
Encoding: 161 989489 168
Width: 725
GlyphClass: 3
Flags: W
LayerCount: 2
Fore
SplineSet
563 672 m 1
 602 632 618 593 612 553 c 2
 607 523 l 1
 542 419 487 370 443 377 c 1
 415 362 351 358 250 365 c 1
 152 245 l 1
 122 213 l 1
 120 201 l 1
 140 195 147 177 142 148 c 1
 142 142 l 2
 139 126 109 115 50 107 c 1
 -4 116 l 2
 -10 117 -17 126 -24 144 c 1
 -18 186 l 1
 85 291 138 357 142 382 c 2
 145 400 l 1
 139 401 l 2
 80 410 45 434 34 473 c 1
 38 497 l 1
 59 514 76 521 90 519 c 2
 200 477 l 1
 220 474 262 516 325 605 c 1
 379 643 422 667 453 677 c 0
 455 677 465 679 481 684 c 0
 498 689 525 685 563 672 c 1
327 463 m 1
 338 455 l 1
 427 441 489 481 523 574 c 1
 526 592 l 1
 514 594 l 2
 466 601 404 558 327 463 c 1
442 288 m 1
 473 270 493 251 501 231 c 0
 510 212 507 172 491 113 c 0
 475 54 396 17 255 1 c 1
 231 5 l 2
 219 11 215 24 218 44 c 1
 337 94 400 145 409 198 c 1
 397 204 392 209 392 213 c 1
 344 196 308 190 285 193 c 0
 253 201 240 218 243 243 c 0
 249 280 315 295 442 288 c 1
EndSplineSet
Validated: 33
Ligature2: "'liga' Standard Ligatures in Latin lookup 0 subtable" m a m a
Ligature2: "'liga' Standard Ligatures in Latin lookup 0 subtable" M a m a
EndChar

StartChar: mani
Encoding: 162 989490 169
Width: 671
GlyphClass: 3
Flags: W
LayerCount: 2
Fore
SplineSet
482 632 m 2
 503 626 l 2
 508 625 516 612 527 587 c 1
 511 567 467 554 395 548 c 1
 393 543 l 1
 387 516 383 479 382 429 c 1
 413 421 l 2
 453 411 473 397 474 378 c 1
 472 368 l 2
 471 364 436 352 369 333 c 1
 349 283 329 240 308 203 c 1
 380 154 441 87 491 2 c 0
 493 -5 493 -12 491 -20 c 2
 487 -36 l 2
 486 -41 479 -45 468 -48 c 1
 436 -40 l 1
 405 -10 368 35 325 93 c 1
 317 96 299 107 273 129 c 0
 267 130 238 106 188 56 c 1
 140 46 97 45 60 54 c 0
 -10 72 -37 108 -24 164 c 0
 -8 227 51 262 153 270 c 1
 189 261 l 1
 214 249 l 1
 246 286 l 1
 254 317 l 1
 250 318 245 321 239 326 c 1
 192 316 135 310 68 308 c 1
 58 310 l 1
 18 329 1 352 8 378 c 0
 13 397 87 408 233 411 c 0
 261 414 277 419 281 427 c 1
 280 466 283 499 289 525 c 1
 268 530 l 1
 222 515 191 510 175 514 c 0
 148 521 130 539 122 567 c 1
 124 577 l 2
 128 592 197 608 331 625 c 0
 415 634 466 636 482 632 c 2
50 146 m 1
 56 137 62 132 68 130 c 0
 104 121 141 132 176 164 c 1
 175 172 174 177 175 181 c 1
 170 182 l 1
 98 192 58 180 50 146 c 1
EndSplineSet
Validated: 33
Ligature2: "'liga' Standard Ligatures in Latin lookup 0 subtable" m a n i
Ligature2: "'liga' Standard Ligatures in Latin lookup 0 subtable" M a n i
EndChar

StartChar: meli
Encoding: 163 989491 170
Width: 782
GlyphClass: 3
Flags: W
LayerCount: 2
Fore
SplineSet
328 666 m 1
 419 637 464 579 464 492 c 0
 464 450 413 396 310 331 c 1
 310 306 338 250 396 164 c 1
 396 150 419 113 464 53 c 1
 469 30 471 12 471 -3 c 1
 467 -3 454 -11 433 -28 c 1
 415 -28 l 1
 369 -11 334 -3 310 -3 c 2
 204 -3 l 2
 182 -3 168 5 161 22 c 1
 200 55 235 71 266 71 c 2
 322 71 l 2
 330 71 334 77 334 90 c 1
 305 131 266 203 217 307 c 1
 177 298 153 294 142 294 c 0
 115 294 92 309 74 338 c 1
 74 369 l 1
 81 385 95 393 118 393 c 0
 127 393 135 391 142 387 c 1
 184 391 204 404 204 424 c 1
 196 438 192 448 192 455 c 0
 204 540 225 596 254 623 c 0
 261 634 286 648 328 666 c 1
285 443 m 1
 297 437 l 1
 359 457 390 494 390 548 c 1
 384 577 376 592 365 592 c 2
 334 592 l 1
 305 582 291 553 291 505 c 0
 291 485 289 465 285 443 c 1
471 251 m 1
 489 251 l 1
 561 216 604 183 619 152 c 1
 619 133 l 2
 619 127 613 121 601 114 c 1
 545 114 l 1
 467 139 427 172 427 214 c 0
 427 221 442 234 471 251 c 1
74 201 m 1
 111 201 l 2
 117 201 127 191 142 170 c 1
 142 139 l 1
 107 77 72 46 37 46 c 1
 18 54 8 63 6 71 c 2
 6 102 l 1
 32 160 55 193 74 201 c 1
EndSplineSet
Validated: 1
Ligature2: "'liga' Standard Ligatures in Latin lookup 0 subtable" m e l i
Ligature2: "'liga' Standard Ligatures in Latin lookup 0 subtable" M e l i
EndChar

StartChar: mi
Encoding: 164 989492 171
Width: 712
GlyphClass: 3
Flags: W
LayerCount: 2
Fore
SplineSet
471 691 m 1
 551 673 591 640 591 593 c 2
 591 559 l 1
 558 437 499 375 413 375 c 0
 394 375 381 349 373 295 c 1
 340 228 316 191 299 186 c 1
 287 186 l 2
 257 186 238 195 230 215 c 1
 264 287 281 333 281 352 c 2
 281 364 l 2
 281 369 256 377 207 387 c 1
 123 421 73 450 57 473 c 1
 57 507 l 2
 57 513 73 521 103 530 c 1
 198 481 259 456 287 456 c 2
 310 456 l 2
 317 456 332 509 356 616 c 1
 386 666 424 691 471 691 c 1
419 467 m 1
 425 467 l 2
 468 467 499 513 517 605 c 1
 511 620 497 628 477 628 c 0
 460 628 441 574 419 467 c 1
29 287 m 1
 40 287 l 2
 80 287 116 247 149 166 c 1
 194 113 248 86 310 86 c 1
 310 82 323 78 350 75 c 0
 357 78 365 80 373 80 c 1
 385 63 l 1
 385 57 l 1
 380 19 346 0 281 0 c 0
 162 0 70 65 6 195 c 1
 0 235 l 1
 0 258 l 2
 0 263 10 273 29 287 c 1
EndSplineSet
Validated: 1
Ligature2: "'liga' Standard Ligatures in Latin lookup 0 subtable" m i
Ligature2: "'liga' Standard Ligatures in Latin lookup 0 subtable" M i
EndChar

StartChar: mije
Encoding: 165 989493 172
Width: 690
GlyphClass: 3
Flags: W
LayerCount: 2
Fore
SplineSet
393 708 m 1
 435 708 l 1
 452 702 460 689 460 668 c 2
 460 640 l 1
 417 588 373 561 326 561 c 1
 318 574 314 585 314 595 c 0
 314 609 322 626 338 646 c 1
 338 660 357 680 393 708 c 1
84 629 m 1
 115 629 160 595 217 527 c 1
 217 510 l 2
 217 505 211 499 199 494 c 1
 157 494 l 2
 106 494 67 525 41 589 c 1
 41 602 55 615 84 629 c 1
405 527 m 0
 486 527 535 492 551 420 c 1
 551 403 l 2
 551 328 494 278 381 251 c 1
 314 251 l 2
 306 250 302 246 302 240 c 2
 302 223 l 2
 302 200 298 157 290 93 c 0
 290 74 298 38 314 -14 c 0
 314 -20 306 -28 290 -37 c 1
 260 -37 l 1
 206 8 189 104 211 251 c 1
 211 262 l 1
 197 278 161 297 102 319 c 1
 41 355 11 383 11 403 c 2
 11 431 l 2
 11 439 23 445 47 448 c 0
 71 448 119 422 193 369 c 0
 206 362 218 358 229 358 c 2
 247 358 l 1
 278 460 316 510 363 510 c 1
 363 519 377 525 405 527 c 0
323 341 m 1
 323 330 l 2
 325 322 329 318 335 318 c 2
 372 318 l 1
 432 355 463 389 463 420 c 0
 463 450 445 465 408 465 c 0
 387 465 359 424 323 341 c 1
EndSplineSet
Validated: 33
Ligature2: "'liga' Standard Ligatures in Latin lookup 0 subtable" m i j e
Ligature2: "'liga' Standard Ligatures in Latin lookup 0 subtable" M i j e
EndChar

StartChar: moku
Encoding: 166 989494 173
Width: 771
GlyphClass: 3
Flags: W
LayerCount: 2
Fore
SplineSet
466 688 m 0
 551 682 593 659 593 616 c 2
 593 564 l 1
 540 457 472 355 392 258 c 0
 342 193 317 143 317 108 c 0
 317 86 327 73 347 69 c 1
 473 100 558 144 601 199 c 1
 606 225 613 238 623 238 c 2
 646 238 l 2
 661 238 671 208 676 147 c 1
 586 58 508 8 444 -3 c 0
 412 -12 389 -16 377 -16 c 2
 362 -16 l 1
 252 13 197 61 197 127 c 0
 197 166 272 288 422 492 c 0
 451 535 466 566 466 584 c 1
 459 584 l 1
 354 548 282 494 242 421 c 1
 212 323 l 1
 197 316 l 1
 182 316 l 2
 135 316 88 358 40 440 c 0
 30 463 18 483 3 499 c 1
 3 525 l 2
 3 532 13 540 33 551 c 1
 63 551 l 1
 108 545 130 526 130 492 c 1
 152 492 l 1
 186 558 266 617 392 668 c 0
 424 681 449 688 466 688 c 0
EndSplineSet
Validated: 1
Ligature2: "'liga' Standard Ligatures in Latin lookup 0 subtable" m o k u
Ligature2: "'liga' Standard Ligatures in Latin lookup 0 subtable" M o k u
EndChar

StartChar: moli
Encoding: 167 989495 174
Width: 823
GlyphClass: 3
Flags: W
LayerCount: 2
Fore
SplineSet
515 622 m 1
 566 622 l 2
 571 622 579 612 589 594 c 1
 589 571 l 2
 589 553 498 519 317 469 c 1
 311 458 l 1
 315 424 317 403 317 395 c 2
 311 367 l 1
 323 361 l 1
 391 361 l 2
 395 361 416 358 453 350 c 1
 459 350 l 1
 459 356 l 2
 459 359 455 382 447 424 c 1
 453 439 462 451 476 458 c 1
 510 458 l 2
 535 458 554 407 566 305 c 1
 646 262 685 209 685 146 c 2
 685 129 l 1
 664 92 650 73 646 73 c 2
 640 73 l 2
 632 74 613 110 583 180 c 0
 581 180 572 188 555 203 c 0
 550 203 535 169 510 101 c 1
 471 56 440 33 419 33 c 0
 414 33 408 39 402 50 c 1
 402 67 l 1
 440 154 459 214 459 248 c 1
 447 258 417 266 368 271 c 1
 319 265 294 246 294 214 c 0
 282 108 242 56 176 56 c 1
 161 52 145 50 125 50 c 1
 42 76 0 118 0 175 c 1
 31 261 79 305 142 305 c 1
 142 311 170 321 226 333 c 1
 226 435 l 1
 221 446 l 1
 153 441 l 1
 130 441 l 2
 62 441 28 461 28 503 c 1
 32 533 40 548 51 548 c 0
 70 548 98 546 136 543 c 0
 180 543 258 560 368 594 c 1
 515 622 l 1
91 141 m 2
 91 129 l 2
 91 124 96 118 108 112 c 1
 136 112 l 2
 173 112 200 148 215 220 c 1
 215 226 l 1
 204 231 l 1
 128 206 91 176 91 141 c 2
EndSplineSet
Validated: 1
Ligature2: "'liga' Standard Ligatures in Latin lookup 0 subtable" m o l i
Ligature2: "'liga' Standard Ligatures in Latin lookup 0 subtable" M o l i
EndChar

StartChar: monsi
Encoding: 168 989496 175
Width: 749
GlyphClass: 3
Flags: W
LayerCount: 2
Fore
SplineSet
556 685 m 1
 583 685 606 667 624 631 c 1
 534 446 503 314 533 234 c 2
 568 137 l 2
 584 101 599 77 612 67 c 0
 624 56 629 48 626 42 c 0
 623 29 619 18 614 7 c 1
 556 0 l 1
 509 48 l 1
 470 129 l 2
 401 271 396 403 455 523 c 1
 446 527 439 529 434 529 c 0
 333 473 267 434 238 414 c 1
 238 407 231 401 217 394 c 1
 258 323 278 267 278 224 c 0
 278 171 247 142 183 136 c 1
 102 136 52 181 34 271 c 1
 34 296 54 341 95 407 c 1
 32 478 0 524 0 543 c 0
 0 549 7 556 20 563 c 1
 34 563 l 2
 60 563 99 534 149 475 c 1
 170 475 l 1
 255 539 384 609 556 685 c 1
129 265 m 2
 129 244 l 2
 129 237 138 228 156 217 c 1
 190 217 l 1
 190 231 l 2
 190 246 183 271 170 305 c 1
 149 305 l 1
 136 301 129 287 129 265 c 2
EndSplineSet
Validated: 33
Ligature2: "'liga' Standard Ligatures in Latin lookup 0 subtable" m o n s i
Ligature2: "'liga' Standard Ligatures in Latin lookup 0 subtable" M o n s i
EndChar

StartChar: monsuta
Encoding: 243 989565 176
Width: 833
GlyphClass: 3
Flags: W
LayerCount: 2
Fore
SplineSet
42 630 m 1
 53 630 l 1
 89 604 107 561 107 499 c 1
 113 499 l 1
 159 541 199 568 232 582 c 0
 232 585 242 593 262 606 c 1
 305 601 327 579 327 541 c 0
 327 511 285 426 202 285 c 1
 202 279 l 2
 203 271 207 267 214 267 c 1
 270 314 346 365 440 422 c 1
 440 434 l 1
 392 487 l 1
 392 523 l 1
 400 537 412 547 428 553 c 1
 473 531 507 509 529 487 c 1
 546 487 578 509 624 553 c 1
 630 553 l 2
 636 553 642 547 648 535 c 1
 648 523 l 2
 648 505 630 481 594 452 c 0
 590 444 588 438 588 434 c 0
 672 360 713 298 713 250 c 2
 713 196 l 2
 713 156 687 110 636 59 c 1
 586 20 513 0 416 0 c 1
 400 6 392 12 392 18 c 0
 392 24 440 50 535 95 c 1
 590 148 618 189 618 220 c 0
 618 274 584 326 517 374 c 1
 505 374 l 1
 456 333 354 257 202 149 c 1
 202 129 159 119 71 119 c 1
 65 131 l 1
 65 160 l 1
 107 291 l 1
 113 292 131 328 160 398 c 1
 157 398 155 400 155 404 c 1
 77 333 l 2
 70 329 62 327 53 327 c 2
 42 327 l 2
 20 327 6 335 0 351 c 1
 0 386 l 1
 12 438 18 471 18 487 c 2
 18 606 l 2
 18 612 26 620 42 630 c 1
EndSplineSet
Validated: 1
Ligature2: "'liga' Standard Ligatures in Latin lookup 0 subtable" M o n s u t a
Ligature2: "'liga' Standard Ligatures in Latin lookup 0 subtable" m o n s u t a
EndChar

StartChar: mu
Encoding: 169 989497 177
Width: 768
GlyphClass: 3
Flags: W
LayerCount: 2
Fore
SplineSet
429 662 m 0
 458 659 473 632 475 579 c 1
 482 550 488 535 495 535 c 2
 556 541 l 1
 581 538 602 524 618 498 c 1
 614 458 582 441 522 447 c 1
 522 443 513 438 497 432 c 1
 497 371 l 1
 495 353 l 2
 493 332 483 319 467 314 c 1
 443 316 l 1
 425 329 408 363 392 418 c 1
 386 419 l 1
 313 411 276 403 275 394 c 2
 273 376 l 1
 303 310 317 273 316 262 c 2
 315 250 l 2
 314 240 295 234 259 232 c 1
 224 246 197 244 178 226 c 0
 160 207 152 185 154 160 c 1
 152 143 l 1
 187 84 246 52 328 45 c 1
 404 76 471 120 531 177 c 0
 531 181 533 183 537 182 c 2
 555 180 l 1
 583 186 593 167 586 123 c 1
 520 47 461 0 409 -19 c 0
 358 -37 311 -42 271 -32 c 1
 151 -20 82 43 63 158 c 1
 64 169 l 1
 82 271 129 319 206 316 c 1
 201 346 191 365 176 373 c 1
 131 358 102 350 89 352 c 0
 30 364 1 379 3 397 c 2
 7 433 l 2
 9 452 52 462 137 462 c 1
 137 470 144 473 156 472 c 1
 156 475 159 524 164 616 c 1
 172 632 179 639 185 639 c 2
 215 636 l 2
 238 633 254 617 264 588 c 1
 255 559 l 1
 254 547 l 2
 251 515 257 498 273 497 c 0
 341 506 376 515 379 522 c 0
 381 588 381 622 377 625 c 1
 388 652 405 665 429 662 c 0
EndSplineSet
Validated: 33
Ligature2: "'liga' Standard Ligatures in Latin lookup 0 subtable" m u
Ligature2: "'liga' Standard Ligatures in Latin lookup 0 subtable" M u
EndChar

StartChar: mun
Encoding: 170 989498 178
Width: 833
GlyphClass: 3
Flags: W
LayerCount: 2
Fore
SplineSet
402 650 m 1
 493 650 l 1
 586 636 632 602 632 548 c 2
 632 487 l 1
 556 393 492 329 441 294 c 1
 452 162 l 1
 638 162 731 142 731 102 c 2
 731 90 l 2
 731 88 720 78 698 60 c 1
 649 68 584 72 501 72 c 0
 419 72 290 48 115 0 c 1
 57 0 l 1
 19 17 0 29 0 36 c 2
 0 42 l 2
 0 70 115 106 345 150 c 1
 345 168 l 1
 328 223 l 2
 325 223 286 213 213 193 c 1
 156 193 l 2
 147 193 137 201 123 217 c 1
 123 223 l 2
 124 230 193 266 328 331 c 1
 328 427 l 1
 351 455 368 469 378 469 c 2
 402 469 l 1
 411 456 419 442 425 427 c 1
 428 368 l 1
 464 420 491 469 509 518 c 1
 509 554 l 2
 506 566 487 572 452 572 c 0
 365 572 261 522 140 421 c 0
 134 421 126 419 115 415 c 1
 82 425 66 433 66 439 c 2
 66 445 l 2
 66 493 145 553 304 626 c 0
 307 626 339 634 402 650 c 1
EndSplineSet
Validated: 1
Ligature2: "'liga' Standard Ligatures in Latin lookup 0 subtable" m u n
Ligature2: "'liga' Standard Ligatures in Latin lookup 0 subtable" M u n
EndChar

StartChar: musi
Encoding: 171 989499 179
Width: 664
GlyphClass: 3
Flags: W
LayerCount: 2
Fore
SplineSet
321 684 m 2
 327 684 l 2
 334 684 343 678 353 666 c 1
 353 638 l 1
 197 518 118 414 118 327 c 2
 118 313 l 1
 130 288 152 276 184 276 c 1
 232 409 280 475 327 475 c 1
 359 494 394 503 432 503 c 1
 437 498 459 491 497 480 c 1
 497 474 506 463 523 447 c 1
 523 392 l 2
 523 342 477 289 386 234 c 1
 321 216 288 202 288 192 c 2
 288 159 l 1
 340 -8 l 1
 340 -17 l 1
 336 -26 323 -31 301 -31 c 2
 269 -31 l 2
 257 -31 235 -23 203 -8 c 0
 171 8 142 15 118 15 c 2
 73 15 l 2
 66 15 57 22 47 34 c 1
 51 40 53 45 53 48 c 1
 44 48 40 51 40 57 c 1
 59 76 85 85 118 85 c 0
 159 80 187 72 203 62 c 1
 210 71 l 1
 184 136 l 1
 184 197 l 1
 133 202 87 221 47 252 c 1
 25 275 14 301 14 331 c 2
 14 341 l 2
 14 440 75 536 197 628 c 0
 244 666 285 684 321 684 c 2
308 303 m 1
 321 299 l 1
 408 354 451 397 451 429 c 2
 451 443 l 1
 403 443 360 412 321 350 c 1
 312 325 308 309 308 303 c 1
EndSplineSet
Validated: 1
Ligature2: "'liga' Standard Ligatures in Latin lookup 0 subtable" m u s i
Ligature2: "'liga' Standard Ligatures in Latin lookup 0 subtable" M u s i
EndChar

StartChar: mute
Encoding: 172 989500 180
Width: 572
GlyphClass: 3
Flags: W
LayerCount: 2
Fore
SplineSet
352 682 m 1
 384 668 399 648 397 623 c 0
 395 595 337 529 225 427 c 1
 224 421 l 1
 235 415 l 1
 284 410 l 2
 329 406 372 364 412 283 c 1
 420 246 424 223 423 215 c 0
 400 140 362 81 307 36 c 1
 254 8 214 -6 187 -3 c 2
 116 3 l 1
 56 41 23 72 18 95 c 1
 85 100 l 1
 145 84 l 1
 223 99 269 117 284 138 c 0
 299 159 311 195 320 246 c 1
 314 295 290 321 249 324 c 0
 205 328 152 305 88 255 c 1
 49 258 l 2
 12 262 -4 282 -1 318 c 1
 13 332 37 352 71 380 c 0
 105 409 153 469 214 562 c 1
 138 535 94 523 83 523 c 2
 28 528 l 2
 23 529 13 541 -2 564 c 1
 0 594 39 620 115 643 c 1
 247 671 322 685 341 683 c 2
 352 682 l 1
EndSplineSet
Validated: 33
Ligature2: "'liga' Standard Ligatures in Latin lookup 0 subtable" m u t e
Ligature2: "'liga' Standard Ligatures in Latin lookup 0 subtable" M u t e
EndChar

StartChar: namako
Encoding: 244 989560 181
Width: 691
GlyphClass: 3
Flags: W
LayerCount: 2
Fore
SplineSet
447 431 m 1
 468 428 l 2
 508 421 528 368 526 270 c 1
 524 259 l 1
 514 240 498 232 478 235 c 1
 448 257 429 310 419 394 c 1
 420 399 l 2
 423 417 432 428 447 431 c 1
327 382 m 0
 347 379 365 357 380 315 c 0
 379 313 377 307 371 295 c 1
 379 277 380 254 375 226 c 1
 375 221 l 2
 374 215 366 209 350 203 c 1
 340 205 l 2
 298 212 278 263 281 358 c 1
 291 378 307 386 327 382 c 0
429 624 m 1
 441 618 l 2
 481 598 496 569 485 531 c 0
 482 526 443 506 368 472 c 1
 272 435 190 371 121 282 c 1
 102 214 110 171 145 153 c 2
 203 124 l 2
 237 110 277 106 323 112 c 1
 464 172 l 1
 511 198 499 167 428 79 c 1
 360 13 263 3 137 48 c 1
 49 92 6 152 8 229 c 1
 2 267 4 295 13 313 c 2
 45 378 l 2
 68 425 135 481 246 548 c 1
 340 597 401 622 429 624 c 1
EndSplineSet
Validated: 33
Ligature2: "'liga' Standard Ligatures in Latin lookup 0 subtable" N a m a k o
Ligature2: "'liga' Standard Ligatures in Latin lookup 0 subtable" n a m a k o
EndChar

StartChar: nanpa
Encoding: 173 989501 182
Width: 694
GlyphClass: 3
Flags: W
LayerCount: 2
Fore
SplineSet
336 651 m 1
 415 655 l 1
 404 653 413 642 442 624 c 1
 457 579 416 552 320 543 c 1
 319 530 l 2
 319 516 317 483 313 429 c 0
 316 422 316 417 312 414 c 1
 393 429 451 435 487 433 c 2
 556 423 l 2
 561 423 570 414 584 396 c 1
 584 385 l 2
 584 366 503 346 340 324 c 1
 318 301 l 1
 318 290 l 1
 312 244 327 192 364 135 c 1
 401 172 427 191 441 191 c 1
 458 169 l 1
 458 163 l 1
 426 52 402 -3 386 -3 c 0
 369 -3 358 -5 353 -9 c 1
 318 -9 277 71 231 230 c 1
 225 230 223 246 224 279 c 1
 218 279 l 1
 75 224 l 1
 47 224 l 1
 14 231 -3 241 -3 252 c 2
 -3 279 l 1
 15 301 88 338 217 391 c 1
 225 507 l 1
 218 507 214 509 214 513 c 1
 207 509 189 506 159 502 c 0
 134 502 112 515 92 541 c 1
 92 557 l 2
 92 574 135 590 219 607 c 1
 231 614 269 629 336 651 c 1
EndSplineSet
Validated: 33
Ligature2: "'liga' Standard Ligatures in Latin lookup 0 subtable" n a n p a
Ligature2: "'liga' Standard Ligatures in Latin lookup 0 subtable" N a n p a
EndChar

StartChar: nasa
Encoding: 174 989502 183
Width: 749
GlyphClass: 3
Flags: W
LayerCount: 2
Fore
SplineSet
511 680 m 2
 537 675 554 657 562 625 c 1
 557 598 l 1
 501 539 469 490 461 449 c 0
 458 431 482 413 535 396 c 1
 600 328 628 267 617 212 c 1
 517 49 416 -23 313 -3 c 2
 291 1 l 2
 284 2 281 7 282 14 c 2
 283 19 l 2
 285 26 335 63 433 130 c 1
 483 173 511 213 518 248 c 0
 525 288 497 317 434 337 c 1
 374 372 349 420 361 480 c 0
 368 499 373 513 375 522 c 1
 364 524 l 1
 307 486 269 453 249 423 c 1
 267 372 275 302 276 211 c 1
 255 103 203 57 120 73 c 1
 39 96 4 135 14 189 c 1
 10 223 l 1
 20 276 59 345 128 430 c 1
 129 435 l 1
 124 452 92 482 34 526 c 1
 29 536 26 542 27 544 c 2
 30 560 l 2
 34 580 48 594 72 603 c 1
 77 601 l 1
 102 597 143 565 198 505 c 1
 204 504 l 2
 213 505 244 531 297 581 c 1
 419 651 488 684 506 681 c 2
 511 680 l 2
85 181 m 1
 87 173 88 167 87 163 c 1
 125 156 l 2
 150 151 166 167 173 203 c 1
 176 331 l 1
 165 333 l 1
 138 312 112 261 85 181 c 1
EndSplineSet
Validated: 33
Ligature2: "'liga' Standard Ligatures in Latin lookup 0 subtable" n a s a
Ligature2: "'liga' Standard Ligatures in Latin lookup 0 subtable" N a s a
EndChar

StartChar: nasin
Encoding: 175 989503 184
Width: 851
GlyphClass: 3
Flags: W
LayerCount: 2
Fore
SplineSet
79 597 m 2
 99 597 l 2
 132 597 155 585 168 559 c 1
 168 546 l 2
 168 500 164 460 156 426 c 0
 156 422 158 419 162 419 c 1
 156 375 l 1
 156 337 l 2
 156 231 164 178 181 178 c 0
 185 178 202 182 232 191 c 1
 251 191 l 2
 258 191 266 182 276 165 c 1
 276 140 l 1
 209 81 169 51 156 51 c 0
 121 51 88 89 54 165 c 1
 41 210 35 254 35 299 c 2
 35 362 l 2
 35 519 50 597 79 597 c 2
410 489 m 1
 473 489 l 2
 545 489 581 468 581 426 c 1
 552 405 453 375 283 337 c 1
 225 337 193 354 187 388 c 1
 187 434 230 458 315 458 c 0
 316 460 348 471 410 489 c 1
397 280 m 1
 411 271 436 263 473 254 c 1
 721 267 l 1
 742 251 753 234 753 216 c 2
 753 210 l 2
 753 181 694 158 575 140 c 1
 393 140 302 172 302 235 c 2
 302 248 l 2
 302 266 334 277 397 280 c 1
EndSplineSet
Validated: 1
Ligature2: "'liga' Standard Ligatures in Latin lookup 0 subtable" n a s i n
Ligature2: "'liga' Standard Ligatures in Latin lookup 0 subtable" N a s i n
EndChar

StartChar: nena
Encoding: 176 989504 185
Width: 826
GlyphClass: 3
Flags: W
LayerCount: 2
Fore
SplineSet
299 645 m 0
 329 639 389 562 477 413 c 1
 550 315 623 235 696 172 c 1
 702 158 703 145 701 134 c 2
 700 128 l 2
 699 120 681 116 648 114 c 1
 588 138 505 218 397 354 c 0
 398 359 361 414 287 517 c 1
 269 521 l 1
 173 404 111 338 82 322 c 1
 40 330 l 2
 35 331 27 343 16 365 c 1
 49 421 118 498 222 598 c 1
 242 635 268 651 299 645 c 0
272 409 m 2
 296 404 l 1
 318 390 327 372 322 350 c 1
 325 342 325 332 322 319 c 1
 204 148 101 71 12 88 c 1
 -15 99 -27 109 -25 120 c 2
 -24 126 l 1
 135 224 221 308 235 379 c 1
 255 400 267 410 272 409 c 2
EndSplineSet
Validated: 33
Ligature2: "'liga' Standard Ligatures in Latin lookup 0 subtable" n e n a
Ligature2: "'liga' Standard Ligatures in Latin lookup 0 subtable" N e n a
EndChar

StartChar: ni
Encoding: 177 989505 186
Width: 704
GlyphClass: 3
Flags: W
LayerCount: 2
Fore
SplineSet
496 649 m 1
 516 643 l 2
 549 630 562 613 555 592 c 0
 535 528 445 404 287 219 c 1
 257 192 228 183 201 191 c 2
 176 199 l 2
 171 201 166 210 162 226 c 1
 283 350 349 430 360 466 c 1
 328 455 291 447 248 441 c 1
 181 463 144 513 136 593 c 1
 139 620 l 1
 149 641 160 656 170 665 c 1
 212 652 233 625 232 584 c 1
 236 571 236 560 233 551 c 1
 253 545 l 2
 284 535 365 569 496 649 c 1
32 209 m 1
 72 208 108 178 140 121 c 1
 171 82 246 61 364 57 c 2
 385 56 l 2
 412 56 428 48 432 34 c 1
 432 13 l 2
 431 -15 381 -29 283 -30 c 2
 267 -30 l 1
 191 -21 127 5 75 50 c 1
 27 97 4 136 5 167 c 2
 5 188 l 2
 5 192 14 199 32 209 c 1
EndSplineSet
Validated: 33
Ligature2: "'liga' Standard Ligatures in Latin lookup 0 subtable" n i
Ligature2: "'liga' Standard Ligatures in Latin lookup 0 subtable" N i
EndChar

StartChar: nimi
Encoding: 178 989506 187
Width: 768
GlyphClass: 2
Flags: W
LayerCount: 2
Fore
SplineSet
221 696 m 1
 266 672 310 629 351 566 c 1
 346 538 l 2
 344 531 339 528 331 529 c 2
 312 532 l 2
 265 541 216 575 165 635 c 1
 167 646 l 2
 172 674 190 690 221 696 c 1
544 512 m 1
 594 504 l 2
 599 503 607 491 619 466 c 1
 613 438 l 2
 611 424 558 415 454 410 c 0
 423 405 407 400 406 394 c 2
 393 321 l 2
 392 317 382 299 364 268 c 1
 359 245 l 1
 368 242 429 191 542 91 c 1
 569 74 587 54 595 31 c 1
 590 3 l 2
 584 -8 570 -12 549 -9 c 2
 543 -8 l 1
 493 9 421 60 328 146 c 0
 321 151 315 154 310 154 c 0
 264 99 203 50 129 9 c 1
 92 14 l 2
 83 16 80 20 81 27 c 0
 88 65 122 110 183 162 c 1
 228 218 263 278 288 343 c 1
 292 365 l 1
 288 377 l 1
 154 347 80 333 68 335 c 0
 33 341 11 359 2 392 c 1
 6 414 l 2
 10 434 102 455 280 476 c 1
 358 495 446 506 544 512 c 1
EndSplineSet
Validated: 33
Ligature2: "'liga' Standard Ligatures in Latin lookup 0 subtable" n i m i
Ligature2: "'liga' Standard Ligatures in Latin lookup 0 subtable" N i m i
EndChar

StartChar: noka
Encoding: 179 989507 188
Width: 925
GlyphClass: 3
Flags: W
LayerCount: 2
Fore
SplineSet
646 627 m 0
 646 624 655 611 673 589 c 1
 670 576 l 2
 666 555 558 536 346 521 c 0
 342 522 325 494 297 437 c 1
 251 376 223 323 215 278 c 2
 213 265 l 2
 198 188 258 137 392 112 c 0
 513 90 589 87 618 104 c 1
 603 147 600 214 608 307 c 1
 622 311 l 1
 628 309 l 1
 662 280 692 200 719 72 c 1
 727 70 731 64 729 57 c 0
 721 10 680 -7 606 6 c 1
 546 -1 478 3 401 17 c 2
 336 29 l 2
 202 53 127 129 111 257 c 0
 111 280 113 302 116 323 c 0
 117 330 147 382 205 480 c 1
 208 493 l 1
 203 494 201 497 202 501 c 1
 188 495 147 489 79 483 c 1
 59 487 l 2
 17 498 -2 517 3 544 c 0
 10 580 82 598 220 598 c 1
 420 631 562 641 646 627 c 0
EndSplineSet
Validated: 33
Ligature2: "'liga' Standard Ligatures in Latin lookup 0 subtable" n o k a
Ligature2: "'liga' Standard Ligatures in Latin lookup 0 subtable" N o k a
EndChar

StartChar: oko
Encoding: 245 989562 189
Width: 700
GlyphClass: 3
Flags: W
LayerCount: 2
Fore
SplineSet
380 692 m 2
 399 692 l 2
 405 692 420 679 444 653 c 1
 444 614 l 2
 444 583 440 559 431 542 c 1
 547 510 605 468 605 414 c 1
 618 406 624 393 624 375 c 2
 624 370 l 1
 602 300 561 249 502 214 c 1
 490 214 471 201 444 175 c 1
 457 2 l 1
 444 -13 433 -20 425 -20 c 0
 373 -20 347 15 347 86 c 1
 343 86 341 102 341 136 c 2
 341 141 l 1
 328 141 322 143 322 147 c 1
 289 141 l 1
 251 141 l 1
 126 154 64 171 64 191 c 0
 65 199 70 203 77 203 c 0
 249 203 335 217 335 247 c 1
 328 286 l 1
 328 347 l 2
 328 356 330 363 335 370 c 1
 324 396 316 409 309 409 c 2
 302 409 l 1
 235 372 165 328 90 275 c 1
 58 275 l 1
 33 287 16 300 6 314 c 1
 6 336 l 1
 56 382 99 412 135 425 c 1
 183 461 247 492 328 520 c 1
 332 526 335 534 335 542 c 2
 335 598 l 2
 335 601 337 603 341 603 c 1
 341 607 339 609 335 609 c 1
 341 637 l 1
 341 676 l 1
 345 687 358 692 380 692 c 2
431 381 m 1
 438 370 l 1
 433 350 431 333 431 319 c 2
 431 303 l 2
 431 295 438 292 450 292 c 0
 473 292 494 319 515 375 c 1
 515 403 l 2
 515 436 493 453 450 453 c 0
 441 453 434 429 431 381 c 1
EndSplineSet
Validated: 1
Ligature2: "'liga' Standard Ligatures in Latin lookup 0 subtable" O k o
Ligature2: "'liga' Standard Ligatures in Latin lookup 0 subtable" o k o
EndChar

StartChar: olin
Encoding: 180 989509 190
Width: 715
GlyphClass: 3
Flags: W
LayerCount: 2
Fore
SplineSet
389 635 m 0
 474 624 526 583 544 512 c 0
 562 441 556 367 526 290 c 0
 497 212 406 116 254 1 c 1
 203 -18 168 -27 148 -25 c 2
 126 -22 l 2
 121 -22 116 -16 112 -4 c 1
 113 12 l 1
 230 98 295 156 308 188 c 1
 410 277 455 352 442 413 c 0
 429 474 396 515 342 535 c 0
 287 556 211 528 111 451 c 1
 105 437 88 431 60 434 c 2
 55 435 l 2
 35 437 20 450 9 473 c 1
 11 489 l 1
 156 597 281 646 389 635 c 0
173 411 m 0
 194 409 228 389 276 351 c 1
 289 349 302 335 315 308 c 1
 314 297 l 1
 277 263 l 1
 214 270 164 302 129 361 c 1
 130 366 l 2
 140 398 154 413 173 411 c 0
57 303 m 1
 79 301 l 2
 86 300 118 278 176 235 c 0
 181 235 192 221 210 193 c 1
 209 188 l 1
 198 167 182 158 162 160 c 0
 77 173 30 207 20 263 c 1
 21 274 l 2
 25 286 37 296 57 303 c 1
EndSplineSet
Validated: 33
Ligature2: "'liga' Standard Ligatures in Latin lookup 0 subtable" o l i n
Ligature2: "'liga' Standard Ligatures in Latin lookup 0 subtable" O l i n
EndChar

StartChar: ona
Encoding: 181 989510 191
Width: 810
GlyphClass: 3
Flags: W
LayerCount: 2
Fore
SplineSet
560 669 m 0
 577 669 610 637 658 572 c 1
 658 543 l 1
 641 486 610 444 566 417 c 1
 557 405 526 392 474 377 c 1
 500 201 525 98 549 68 c 2
 560 51 l 1
 560 22 l 1
 554 7 541 -1 520 -1 c 0
 460 5 426 67 418 185 c 0
 410 303 399 361 387 358 c 0
 374 356 325 346 239 329 c 1
 247 243 251 142 251 26 c 1
 222 8 l 1
 205 8 l 2
 182 8 149 29 108 71 c 1
 108 79 127 85 165 89 c 1
 165 100 l 1
 142 312 l 1
 101 308 74 306 61 306 c 1
 23 321 4 336 4 352 c 0
 4 387 36 404 101 404 c 0
 107 404 120 411 142 427 c 1
 138 476 134 505 131 513 c 1
 134 533 136 550 136 564 c 2
 136 622 l 1
 146 644 161 656 182 656 c 2
 188 656 l 1
 212 643 231 624 245 599 c 1
 241 534 239 485 239 450 c 0
 239 442 245 438 257 438 c 2
 402 465 l 1
 408 561 442 628 503 664 c 1
 523 668 542 669 560 669 c 0
480 492 m 1
 484 492 486 490 486 486 c 1
 524 501 552 530 572 572 c 1
 572 593 562 604 543 606 c 1
 501 578 480 540 480 492 c 1
EndSplineSet
Validated: 33
Ligature2: "'liga' Standard Ligatures in Latin lookup 0 subtable" o n a
Ligature2: "'liga' Standard Ligatures in Latin lookup 0 subtable" O n a
EndChar

StartChar: open
Encoding: 182 989511 192
Width: 840
GlyphClass: 3
Flags: W
LayerCount: 2
Fore
SplineSet
264 633 m 1
 297 633 315 608 319 559 c 1
 319 547 l 1
 248 403 212 311 211 269 c 2
 208 183 l 2
 206 124 230 102 278 117 c 0
 327 132 369 176 404 249 c 0
 439 323 469 387 493 442 c 1
 483 479 478 504 478 516 c 1
 488 522 l 1
 533 522 l 1
 609 477 650 455 657 455 c 2
 707 455 l 1
 715 463 722 467 727 467 c 0
 757 459 772 443 772 418 c 1
 757 373 718 350 657 350 c 1
 604 387 568 377 549 319 c 0
 519 225 488 159 453 123 c 1
 386 41 326 0 274 0 c 2
 234 0 l 1
 151 22 110 92 110 209 c 2
 110 221 l 2
 110 265 126 334 159 430 c 1
 154 430 l 1
 99 381 57 356 30 356 c 2
 25 356 l 2
 21 356 12 369 0 393 c 1
 0 399 l 2
 0 428 27 453 80 473 c 1
 82 481 144 535 264 633 c 1
EndSplineSet
Validated: 33
Ligature2: "'liga' Standard Ligatures in Latin lookup 0 subtable" o p e n
Ligature2: "'liga' Standard Ligatures in Latin lookup 0 subtable" O p e n
EndChar

StartChar: pakala
Encoding: 183 989512 193
Width: 680
GlyphClass: 3
Flags: W
LayerCount: 2
Fore
SplineSet
408 674 m 1
 428 661 441 646 447 629 c 1
 410 528 368 450 323 396 c 1
 323 385 l 1
 329 385 l 1
 406 423 463 442 498 442 c 1
 540 429 561 409 561 379 c 2
 561 368 l 1
 526 283 458 183 357 68 c 0
 339 50 307 27 261 0 c 1
 227 0 l 1
 215 6 l 1
 261 86 318 171 385 261 c 1
 404 294 413 312 413 317 c 1
 402 317 l 1
 215 221 l 1
 162 221 136 242 136 283 c 0
 136 292 157 322 198 374 c 1
 300 544 351 644 351 674 c 1
 408 674 l 1
28 578 m 1
 74 578 l 1
 168 533 215 506 215 498 c 2
 215 481 l 1
 206 463 189 453 164 453 c 0
 101 453 47 478 0 527 c 1
 0 550 9 567 28 578 c 1
EndSplineSet
Validated: 1
Ligature2: "'liga' Standard Ligatures in Latin lookup 0 subtable" p a k a l a
Ligature2: "'liga' Standard Ligatures in Latin lookup 0 subtable" P a k a l a
EndChar

StartChar: pake
Encoding: 246 989600 194
Width: 732
GlyphClass: 3
Flags: W
LayerCount: 2
Fore
SplineSet
533 627 m 1
 575 618 596 606 596 592 c 2
 596 581 l 1
 582 494 502 369 354 206 c 1
 354 190 435 163 596 125 c 1
 604 113 608 103 608 97 c 0
 590 74 557 62 510 62 c 0
 472 62 384 85 245 131 c 1
 205 100 151 79 83 68 c 1
 66 75 56 83 54 91 c 1
 175 177 l 1
 175 189 l 1
 95 257 54 303 54 327 c 0
 54 348 62 361 77 367 c 1
 112 367 l 2
 132 367 182 331 262 258 c 1
 316 305 364 363 406 431 c 1
 406 448 l 1
 360 437 318 431 279 431 c 2
 233 431 l 2
 151 431 80 460 20 517 c 0
 20 521 18 527 14 535 c 1
 21 552 29 562 37 563 c 2
 66 563 l 1
 152 536 221 521 273 517 c 1
 374 517 460 554 533 627 c 1
EndSplineSet
Validated: 1
Ligature2: "'liga' Standard Ligatures in Latin lookup 0 subtable" P a k e
Ligature2: "'liga' Standard Ligatures in Latin lookup 0 subtable" p a k e
EndChar

StartChar: pali
Encoding: 184 989513 195
Width: 648
GlyphClass: 3
Flags: W
LayerCount: 2
Fore
SplineSet
59 700 m 1
 97 686 115 666 114 639 c 2
 113 622 l 2
 112 602 108 574 102 536 c 1
 113 529 l 1
 119 529 l 1
 185 591 250 620 315 616 c 0
 413 611 472 575 493 508 c 1
 493 494 497 467 506 427 c 1
 503 367 466 319 395 283 c 0
 391 283 375 280 348 274 c 1
 319 275 l 2
 314 276 308 282 303 294 c 1
 303 299 l 1
 368 352 401 395 402 427 c 0
 406 492 385 526 339 528 c 0
 266 532 209 505 167 445 c 1
 143 430 123 404 105 368 c 1
 73 350 51 342 40 343 c 2
 17 344 l 2
 14 344 8 350 0 362 c 1
 1 372 4 387 9 408 c 1
 10 507 13 591 17 661 c 1
 17 667 l 1
 33 689 47 700 59 700 c 1
167 353 m 2
 173 353 l 2
 194 351 211 339 223 315 c 1
 222 292 l 2
 222 288 217 267 207 230 c 1
 204 178 l 2
 203 154 220 127 257 94 c 1
 349 89 l 1
 359 95 390 101 443 107 c 1
 443 115 469 123 519 132 c 1
 534 125 541 119 541 113 c 2
 540 96 l 1
 461 37 390 5 327 -2 c 1
 287 0 l 2
 199 5 140 56 110 154 c 1
 108 181 107 204 108 223 c 0
 119 307 131 349 144 348 c 1
 151 352 159 353 167 353 c 2
EndSplineSet
Validated: 33
Ligature2: "'liga' Standard Ligatures in Latin lookup 0 subtable" p a l i
Ligature2: "'liga' Standard Ligatures in Latin lookup 0 subtable" P a l i
EndChar

StartChar: palisa
Encoding: 185 989514 196
Width: 487
GlyphClass: 3
Flags: W
LayerCount: 2
Fore
SplineSet
222 657 m 2
 239 657 l 1
 254 651 263 640 269 624 c 1
 269 582 265 509 257 405 c 1
 261 313 273 232 292 164 c 1
 304 164 l 1
 340 191 l 1
 363 191 l 1
 379 183 387 174 387 164 c 0
 370 54 341 -1 298 -1 c 2
 292 -1 l 2
 245 -1 217 32 210 98 c 1
 178 216 163 312 163 389 c 2
 163 432 l 2
 163 446 164 462 168 482 c 1
 163 493 l 1
 170 603 190 657 222 657 c 2
47 549 m 0
 67 549 87 538 106 516 c 1
 106 499 l 2
 106 496 104 494 100 494 c 1
 100 490 102 488 106 488 c 1
 102 410 100 351 100 313 c 2
 100 274 l 2
 100 269 94 264 83 258 c 1
 41 258 l 1
 14 287 0 320 0 357 c 2
 0 494 l 2
 0 530 16 549 47 549 c 0
EndSplineSet
Validated: 1
Ligature2: "'liga' Standard Ligatures in Latin lookup 0 subtable" p a l i s a
Ligature2: "'liga' Standard Ligatures in Latin lookup 0 subtable" P a l i s a
EndChar

StartChar: pan
Encoding: 186 989515 197
Width: 613
GlyphClass: 3
Flags: W
LayerCount: 2
Fore
SplineSet
226 721 m 1
 246 730 264 730 280 721 c 1
 337 620 349 546 316 497 c 1
 318 475 328 430 344 362 c 1
 346 358 l 1
 427 347 473 330 483 309 c 1
 469 289 461 278 457 277 c 0
 434 266 397 264 346 271 c 1
 319 212 301 183 290 185 c 1
 262 173 l 1
 247 172 233 176 223 185 c 1
 225 196 l 1
 250 234 257 258 244 270 c 1
 249 283 225 271 174 237 c 0
 145 220 140 191 158 152 c 1
 157 109 257 87 460 87 c 1
 504 70 507 49 467 25 c 1
 399 8 334 4 271 12 c 0
 143 29 66 65 40 121 c 0
 12 183 40 244 124 302 c 1
 152 315 l 2
 171 324 203 337 248 354 c 1
 249 371 242 400 228 441 c 1
 107 403 38 402 21 439 c 0
 -2 489 7 524 47 542 c 2
 58 547 l 2
 115 569 146 575 151 564 c 1
 177 576 206 576 238 564 c 1
 244 566 l 1
 219 621 l 2
 201 660 203 694 226 721 c 1
200 504 m 1
 159 516 128 519 108 512 c 1
 116 488 146 482 197 493 c 1
 200 504 l 1
EndSplineSet
Validated: 33
Ligature2: "'liga' Standard Ligatures in Latin lookup 0 subtable" p a n
Ligature2: "'liga' Standard Ligatures in Latin lookup 0 subtable" P a n
EndChar

StartChar: pana
Encoding: 187 989516 198
Width: 674
GlyphClass: 3
Flags: W
LayerCount: 2
Fore
SplineSet
382 -33 m 1
 347 21 305 62 257 90 c 1
 249 106 252 123 266 143 c 1
 295 143 323 136 348 121 c 2
 373 106 l 2
 423 78 448 35 447 -20 c 1
 428 -43 406 -47 382 -33 c 1
212 689 m 1
 248 676 264 655 260 626 c 1
 232 592 212 560 201 529 c 1
 200 524 l 1
 284 558 354 571 409 564 c 1
 465 538 490 497 483 441 c 0
 471 354 391 261 242 163 c 1
 192 139 153 129 126 133 c 0
 82 144 61 156 63 170 c 2
 63 175 l 1
 69 189 91 199 130 206 c 1
 253 265 334 335 372 416 c 1
 381 443 l 1
 384 465 l 2
 385 473 382 477 375 478 c 2
 352 481 l 2
 347 482 251 436 63 344 c 1
 52 346 l 1
 23 379 8 398 9 402 c 2
 10 408 l 1
 94 535 137 604 139 617 c 1
 201 690 l 1
 212 689 l 1
510 77 m 1
 434 147 394 198 391 230 c 1
 399 245 l 2
 402 249 415 251 438 251 c 1
 465 238 l 2
 510 216 544 172 569 105 c 1
 559 88 539 78 510 77 c 1
EndSplineSet
Validated: 33
Ligature2: "'liga' Standard Ligatures in Latin lookup 0 subtable" p a n a
Ligature2: "'liga' Standard Ligatures in Latin lookup 0 subtable" P a n a
EndChar

StartChar: periodspace
Encoding: 233 -1 199
Width: 650
GlyphClass: 3
Flags: W
LayerCount: 2
Fore
SplineSet
107 138 m 1
 162 120 202 99 227 74 c 1
 227 17 203 -15 155 -22 c 1
 80 -16 43 11 43 58 c 2
 43 66 l 2
 43 100 64 124 107 138 c 1
EndSplineSet
Validated: 1
LCarets2: 1 0
Ligature2: "'liga' Standard Ligatures in Latin lookup 0 subtable" period space
EndChar

StartChar: pi
Encoding: 188 989517 200
Width: 888
GlyphClass: 3
Flags: W
LayerCount: 2
Fore
SplineSet
463 654 m 0
 525 647 581 623 632 581 c 1
 700 501 735 412 735 316 c 2
 735 280 l 2
 735 203 688 130 595 59 c 1
 514 30 l 1
 426 59 382 116 382 199 c 1
 400 296 427 362 463 397 c 0
 483 417 517 442 566 471 c 1
 538 534 491 566 426 566 c 1
 354 558 281 519 206 449 c 1
 127 366 88 277 88 184 c 1
 107 166 163 131 257 81 c 1
 257 67 l 1
 250 47 242 37 235 37 c 0
 141 37 63 86 0 184 c 1
 0 228 l 2
 0 298 27 377 81 463 c 1
 82 479 106 501 154 529 c 1
 179 575 250 614 367 647 c 0
 399 652 431 654 463 654 c 0
588 383 m 1
 529 309 499 243 499 184 c 2
 499 148 l 2
 501 138 506 133 514 133 c 2
 522 133 l 1
 585 183 617 244 617 316 c 1
 612 361 602 383 588 383 c 1
EndSplineSet
Validated: 1
Ligature2: "'liga' Standard Ligatures in Latin lookup 0 subtable" p i
Ligature2: "'liga' Standard Ligatures in Latin lookup 0 subtable" P i
EndChar

StartChar: pilin
Encoding: 189 989518 201
Width: 715
GlyphClass: 3
Flags: W
LayerCount: 2
Fore
SplineSet
488 641 m 1
 529 616 555 572 566 509 c 1
 513 270 382 107 175 19 c 1
 153 11 l 1
 82 26 l 2
 76 28 71 36 67 50 c 1
 211 149 293 215 314 250 c 1
 323 248 350 287 393 367 c 1
 406 364 l 1
 412 391 429 445 456 527 c 1
 440 544 l 1
 433 546 l 2
 384 557 277 520 113 436 c 1
 96 435 78 437 61 441 c 0
 35 447 21 465 20 497 c 1
 25 523 121 571 307 641 c 1
 392 649 453 649 488 641 c 1
EndSplineSet
Validated: 33
Ligature2: "'liga' Standard Ligatures in Latin lookup 0 subtable" p i l i n
Ligature2: "'liga' Standard Ligatures in Latin lookup 0 subtable" P i l i n
EndChar

StartChar: pimeja
Encoding: 190 989519 202
Width: 700
GlyphClass: 3
Flags: W
LayerCount: 2
Fore
SplineSet
138 697 m 2
 150 697 l 2
 164 697 176 675 186 631 c 1
 186 619 l 1
 180 546 l 1
 182 546 188 542 198 534 c 1
 241 542 269 552 283 564 c 1
 295 564 l 1
 363 559 397 525 397 462 c 2
 397 426 l 1
 361 344 329 288 301 258 c 1
 301 249 329 223 385 180 c 1
 413 198 443 242 475 312 c 1
 505 332 527 342 541 342 c 0
 561 342 571 324 571 288 c 1
 538 216 508 163 481 131 c 1
 495 103 517 89 547 89 c 1
 559 75 565 61 565 47 c 0
 565 42 559 36 547 29 c 1
 539 29 498 39 427 59 c 1
 415 59 l 1
 366 -5 330 -37 307 -37 c 2
 295 -37 l 2
 274 -37 262 -31 259 -19 c 1
 276 18 299 54 325 89 c 1
 325 101 l 1
 281 146 247 168 222 168 c 1
 193 130 159 102 120 83 c 1
 66 83 l 1
 50 92 42 102 42 113 c 0
 42 122 86 164 174 240 c 1
 174 252 l 1
 144 316 126 348 120 348 c 1
 82 300 60 276 54 276 c 0
 18 284 0 294 0 306 c 2
 0 324 l 2
 0 350 30 396 90 462 c 1
 82 492 78 520 78 546 c 2
 78 625 l 1
 87 673 107 697 138 697 c 2
204 438 m 1
 204 426 l 1
 224 374 238 348 247 348 c 2
 253 348 l 1
 281 400 295 436 295 456 c 1
 285 464 277 468 271 468 c 0
 237 448 215 438 204 438 c 1
EndSplineSet
Validated: 1
Ligature2: "'liga' Standard Ligatures in Latin lookup 0 subtable" p i m e j a
Ligature2: "'liga' Standard Ligatures in Latin lookup 0 subtable" P i m e j a
EndChar

StartChar: pini
Encoding: 191 989520 203
Width: 640
GlyphClass: 3
Flags: W
LayerCount: 2
Fore
SplineSet
465 623 m 2
 507 618 l 2
 512 617 518 610 522 598 c 1
 521 586 l 1
 514 572 472 555 393 535 c 1
 393 529 l 1
 447 449 466 333 452 183 c 0
 443 108 390 61 295 39 c 1
 224 48 l 1
 121 97 73 150 80 205 c 1
 99 215 l 1
 105 214 l 1
 128 183 171 156 234 132 c 1
 240 131 l 2
 315 122 358 157 368 236 c 0
 373 271 361 339 333 440 c 0
 324 464 312 491 297 522 c 1
 64 468 l 1
 38 471 18 487 4 517 c 1
 7 541 l 2
 10 564 83 583 226 599 c 1
 317 623 396 632 465 623 c 2
270 369 m 1
 309 358 328 348 326 338 c 2
 324 320 l 1
 314 281 276 266 210 274 c 1
 208 263 161 261 70 267 c 0
 50 270 34 286 21 316 c 1
 26 357 l 2
 30 385 111 389 270 369 c 1
EndSplineSet
Validated: 33
Ligature2: "'liga' Standard Ligatures in Latin lookup 0 subtable" p i n i
Ligature2: "'liga' Standard Ligatures in Latin lookup 0 subtable" P i n i
EndChar

StartChar: pipi
Encoding: 192 989521 204
Width: 932
GlyphClass: 3
Flags: W
LayerCount: 2
Fore
SplineSet
458 518 m 1
 445 455 l 1
 470 442 l 1
 487 442 496 450 496 467 c 2
 496 518 l 1
 458 518 l 1
275 323 m 1
 275 312 l 2
 278 290 283 279 292 279 c 0
 301 279 306 295 309 328 c 1
 303 328 l 1
 275 323 l 1
467 668 m 2
 513 668 l 2
 536 668 555 606 571 480 c 1
 643 480 703 456 753 409 c 1
 753 402 l 2
 753 380 746 367 733 363 c 1
 713 363 691 366 668 370 c 1
 651 366 636 363 623 363 c 1
 623 370 l 1
 610 366 603 361 603 357 c 0
 670 171 731 78 785 78 c 1
 794 62 798 45 798 26 c 2
 798 19 l 2
 798 9 781 3 746 0 c 0
 700 0 637 56 558 169 c 1
 528 223 508 270 500 311 c 1
 485 346 461 363 428 363 c 0
 398 363 368 294 337 156 c 1
 316 138 303 130 298 130 c 0
 250 130 222 171 214 253 c 1
 205 296 197 318 188 318 c 2
 71 286 l 1
 24 304 0 319 0 331 c 2
 0 337 l 2
 0 380 54 411 162 428 c 1
 162 448 l 1
 145 474 136 500 136 526 c 1
 145 545 153 556 162 558 c 2
 188 558 l 2
 228 558 256 523 273 454 c 1
 305 454 l 2
 341 454 365 476 376 519 c 1
 412 614 434 661 441 662 c 0
 449 666 457 668 467 668 c 2
EndSplineSet
Validated: 1
Ligature2: "'liga' Standard Ligatures in Latin lookup 0 subtable" p i p i
Ligature2: "'liga' Standard Ligatures in Latin lookup 0 subtable" P i p i
EndChar

StartChar: poka
Encoding: 193 989522 205
Width: 867
GlyphClass: 3
Flags: W
LayerCount: 2
Fore
SplineSet
105 678 m 1
 116 678 l 2
 166 678 208 617 242 494 c 0
 245 494 247 491 247 484 c 1
 267 484 339 522 463 599 c 1
 468 617 480 626 500 626 c 2
 515 626 l 1
 554 611 573 578 573 526 c 2
 573 521 l 1
 517 418 489 340 489 284 c 2
 489 279 l 2
 489 159 547 100 662 101 c 2
 715 101 l 1
 736 88 747 72 747 54 c 0
 747 31 731 17 699 12 c 1
 668 12 l 2
 501 11 406 91 384 252 c 1
 384 314 405 393 447 489 c 0
 447 496 433 491 406 474 c 0
 379 457 335 428 273 389 c 1
 291 346 300 297 300 242 c 2
 300 237 l 2
 300 192 293 133 279 58 c 1
 279 21 l 2
 279 11 263 4 231 0 c 0
 214 1 174 32 110 95 c 1
 110 100 l 2
 112 107 115 110 121 110 c 2
 158 110 l 1
 167 100 180 95 195 95 c 1
 214 167 214 250 195 342 c 1
 129 303 89 284 74 284 c 2
 47 284 l 2
 16 284 0 298 0 326 c 1
 12 345 69 380 168 431 c 1
 174 442 l 1
 84 641 l 1
 84 657 l 2
 84 663 91 670 105 678 c 1
EndSplineSet
Validated: 33
Ligature2: "'liga' Standard Ligatures in Latin lookup 0 subtable" p o k a
Ligature2: "'liga' Standard Ligatures in Latin lookup 0 subtable" P o k a
EndChar

StartChar: poki
Encoding: 194 989523 206
Width: 721
GlyphClass: 3
Flags: W
LayerCount: 2
Fore
SplineSet
471 661 m 1
 491 656 506 626 513 570 c 1
 510 558 l 1
 431 480 365 420 314 377 c 0
 217 297 150 233 114 184 c 1
 108 154 l 1
 147 116 198 90 259 76 c 2
 265 75 l 2
 290 70 338 71 410 80 c 1
 483 99 526 116 541 133 c 1
 547 131 l 2
 556 129 562 111 566 77 c 1
 535 36 501 12 463 6 c 1
 388 -23 328 -33 281 -22 c 2
 245 -14 l 2
 96 19 13 85 -4 185 c 1
 -3 191 l 1
 23 261 74 323 151 376 c 1
 291 501 l 1
 292 507 l 2
 294 515 291 520 283 521 c 0
 210 511 155 496 117 477 c 0
 102 472 89 471 79 473 c 0
 35 485 18 508 25 541 c 2
 26 547 l 1
 36 556 141 583 344 627 c 1
 401 645 443 657 471 661 c 1
EndSplineSet
Validated: 33
Ligature2: "'liga' Standard Ligatures in Latin lookup 0 subtable" p o k i
Ligature2: "'liga' Standard Ligatures in Latin lookup 0 subtable" P o k i
EndChar

StartChar: pona
Encoding: 195 989524 207
Width: 786
GlyphClass: 3
Flags: W
LayerCount: 2
Fore
SplineSet
434 619 m 1
 500 585 552 547 589 503 c 1
 615 444 621 384 607 323 c 1
 591 279 l 2
 564 210 510 144 428 80 c 1
 338 19 258 2 190 28 c 1
 167 43 157 55 161 64 c 1
 265 96 343 137 394 187 c 1
 424 203 458 245 498 314 c 1
 520 414 507 473 460 491 c 0
 397 515 369 550 376 597 c 1
 396 611 416 618 434 619 c 1
93 527 m 0
 110 527 145 515 197 492 c 1
 259 480 290 457 290 422 c 2
 290 411 l 2
 290 402 275 394 244 387 c 1
 152 387 85 418 41 480 c 1
 41 511 58 527 93 527 c 0
29 335 m 2
 35 335 l 1
 186 323 261 298 261 260 c 0
 261 246 226 234 157 225 c 1
 99 225 l 1
 33 236 0 256 0 283 c 1
 9 318 18 335 29 335 c 2
EndSplineSet
Validated: 33
Ligature2: "'liga' Standard Ligatures in Latin lookup 0 subtable" p o n a
Ligature2: "'liga' Standard Ligatures in Latin lookup 0 subtable" P o n a
EndChar

StartChar: pu
Encoding: 196 989525 208
Width: 807
GlyphClass: 3
Flags: W
LayerCount: 2
Fore
SplineSet
267 715 m 0
 294 712 330 678 372 614 c 1
 368 578 l 2
 368 572 361 567 348 562 c 1
 294 567 l 1
 244 600 216 627 212 648 c 1
 216 690 l 1
 229 708 246 717 267 715 c 0
511 539 m 0
 618 529 675 451 681 307 c 1
 680 302 l 1
 675 251 655 190 619 121 c 0
 565 24 529 -24 510 -22 c 1
 470 -7 451 16 454 46 c 0
 451 52 450 58 451 65 c 0
 454 65 456 66 456 70 c 1
 480 63 l 1
 506 78 531 127 554 210 c 0
 578 294 577 352 554 385 c 0
 530 419 496 436 451 438 c 0
 407 440 328 415 216 361 c 1
 187 359 l 1
 168 361 l 1
 153 371 146 384 148 402 c 1
 262 506 383 551 511 539 c 0
90 532 m 1
 105 525 119 512 130 494 c 1
 120 433 114 392 112 371 c 0
 116 302 133 213 162 103 c 1
 173 102 l 1
 190 113 205 118 218 117 c 2
 224 116 l 2
 229 116 234 110 239 100 c 1
 238 91 l 1
 218 13 187 -24 145 -20 c 2
 118 -17 l 2
 94 -15 62 103 21 337 c 1
 22 379 24 414 26 442 c 0
 32 506 52 536 84 532 c 1
 90 532 l 1
316 326 m 2
 321 326 l 1
 357 322 396 289 437 226 c 1
 434 200 l 1
 427 186 415 181 396 182 c 2
 370 185 l 1
 300 220 267 258 271 299 c 1
 281 319 295 328 316 326 c 2
EndSplineSet
Validated: 33
Ligature2: "'liga' Standard Ligatures in Latin lookup 0 subtable" p u
Ligature2: "'liga' Standard Ligatures in Latin lookup 0 subtable" P u
EndChar

StartChar: questionspace
Encoding: 236 -1 209
Width: 691
GlyphClass: 3
Flags: W
LayerCount: 2
Fore
SplineSet
239 675 m 2
 296 675 l 2
 329 675 353 647 369 591 c 1
 369 568 l 2
 369 526 325 444 239 321 c 1
 215 267 196 237 183 231 c 1
 155 231 l 1
 121 238 105 251 105 271 c 0
 105 306 144 380 222 495 c 0
 245 534 256 558 256 568 c 1
 234 568 l 1
 136 463 83 411 76 411 c 0
 31 411 9 428 9 462 c 2
 9 467 l 1
 72 573 135 636 200 658 c 1
 214 669 227 675 239 675 c 2
183 102 m 0
 236 100 262 81 262 46 c 1
 266 46 267 44 267 40 c 2
 267 12 l 1
 258 -7 243 -16 222 -16 c 0
 171 -16 143 14 138 74 c 1
 158 93 173 102 183 102 c 0
EndSplineSet
Validated: 1
Ligature2: "'liga' Standard Ligatures in Latin lookup 0 subtable" question space
EndChar

StartChar: sama
Encoding: 197 989526 210
Width: 758
GlyphClass: 3
Flags: W
LayerCount: 2
Fore
SplineSet
66 230 m 1
 94 230 l 2
 137 230 160 224 162 211 c 2
 162 175 l 2
 163 154 174 144 194 147 c 0
 443 213 577 246 596 246 c 1
 615 225 625 208 625 196 c 1
 593 155 491 110 319 61 c 1
 259 52 216 47 191 47 c 0
 88 59 35 82 29 116 c 0
 24 150 36 188 66 230 c 1
389 610 m 1
 498 591 553 553 553 497 c 2
 553 480 l 2
 553 450 527 427 474 412 c 1
 446 412 425 434 411 480 c 1
 438 489 451 496 451 502 c 0
 444 517 432 525 417 525 c 0
 333 525 225 487 94 412 c 0
 88 408 78 406 66 406 c 2
 54 406 l 1
 35 415 26 433 26 463 c 2
 26 468 l 2
 26 477 81 509 190 565 c 1
 255 587 321 603 389 610 c 1
EndSplineSet
Validated: 33
Ligature2: "'liga' Standard Ligatures in Latin lookup 0 subtable" s a m a
Ligature2: "'liga' Standard Ligatures in Latin lookup 0 subtable" S a m a
EndChar

StartChar: seli
Encoding: 198 989527 211
Width: 700
GlyphClass: 3
Flags: W
LayerCount: 2
Fore
SplineSet
359 673 m 1
 385 662 398 642 398 614 c 1
 315 501 272 423 268 379 c 1
 268 359 l 1
 416 340 490 309 490 268 c 2
 490 248 l 2
 490 171 438 94 333 20 c 0
 316 7 297 0 274 0 c 2
 268 0 l 2
 236 0 218 7 215 20 c 2
 215 26 l 1
 333 139 392 209 392 235 c 1
 387 248 383 255 379 255 c 0
 231 255 157 294 157 372 c 2
 157 398 l 1
 170 444 l 1
 165 452 163 459 163 464 c 1
 137 444 l 1
 63 444 18 472 0 529 c 1
 0 549 l 2
 0 555 13 568 39 588 c 1
 67 588 108 558 162 499 c 1
 164 487 170 479 178 476 c 1
 194 490 226 538 274 620 c 1
 309 655 338 673 359 673 c 1
529 633 m 1
 568 624 588 613 588 601 c 2
 588 588 l 1
 544 479 485 424 411 424 c 1
 392 433 381 442 379 451 c 0
 383 476 431 537 522 633 c 1
 529 633 l 1
EndSplineSet
Validated: 1
Ligature2: "'liga' Standard Ligatures in Latin lookup 0 subtable" s e l i
Ligature2: "'liga' Standard Ligatures in Latin lookup 0 subtable" S e l i
EndChar

StartChar: selo
Encoding: 199 989528 212
Width: 698
GlyphClass: 3
Flags: W
LayerCount: 2
Fore
SplineSet
339 412 m 0
 351 410 354 409 349 409 c 1
 350 403 l 1
 448 345 499 253 502 125 c 1
 495 82 481 43 458 8 c 0
 439 -19 398 -39 338 -52 c 1
 241 -19 191 24 190 78 c 2
 189 142 l 1
 232 220 276 259 319 260 c 1
 350 276 365 286 365 290 c 0
 348 304 328 320 305 339 c 1
 299 338 292 349 282 370 c 1
 298 397 317 411 339 412 c 0
268 85 m 1
 275 61 287 46 303 37 c 1
 332 38 l 2
 374 39 396 75 398 146 c 1
 394 182 386 199 373 199 c 1
 314 163 279 125 268 85 c 1
316 736 m 2
 325 734 l 2
 347 729 359 706 359 666 c 1
 358 662 l 2
 357 659 355 658 352 658 c 1
 355 649 l 1
 336 599 321 564 309 544 c 1
 359 550 398 554 425 555 c 0
 451 557 477 555 501 549 c 1
 521 516 l 1
 517 499 l 2
 512 486 426 467 258 441 c 1
 242 433 212 396 167 330 c 1
 110 266 67 229 38 218 c 1
 30 220 l 2
 -2 228 -15 245 -9 271 c 1
 10 280 53 325 121 406 c 1
 112 408 l 1
 90 407 78 407 75 407 c 2
 58 412 l 2
 38 416 25 432 18 458 c 1
 22 475 l 2
 25 486 78 499 182 515 c 1
 194 503 226 555 277 672 c 1
 288 715 l 1
 302 730 312 737 316 736 c 2
EndSplineSet
Validated: 33
Ligature2: "'liga' Standard Ligatures in Latin lookup 0 subtable" s e l o
Ligature2: "'liga' Standard Ligatures in Latin lookup 0 subtable" S e l o
EndChar

StartChar: seme
Encoding: 200 989529 213
Width: 592
GlyphClass: 3
Flags: W
LayerCount: 2
Fore
SplineSet
185 678 m 1
 229 678 l 2
 235 678 242 671 251 656 c 1
 230 619 199 573 158 520 c 1
 132 477 119 453 119 448 c 0
 123 442 125 435 125 426 c 1
 137 426 192 456 289 514 c 1
 313 521 329 525 338 525 c 2
 344 525 l 2
 348 525 349 523 349 520 c 1
 360 525 l 1
 382 525 l 1
 433 497 459 466 459 432 c 2
 459 416 l 2
 459 325 411 250 317 191 c 1
 275 184 246 180 229 180 c 2
 223 180 l 2
 218 180 213 186 207 197 c 1
 207 207 247 247 327 317 c 0
 348 337 362 377 371 437 c 1
 360 443 l 1
 349 443 l 2
 329 443 298 428 256 399 c 1
 242 377 204 357 141 339 c 1
 130 339 l 2
 89 339 60 363 43 410 c 0
 39 416 37 424 37 432 c 2
 37 459 l 1
 67 560 116 633 185 678 c 1
15 213 m 1
 48 213 l 2
 68 213 85 200 98 175 c 0
 113 150 125 137 136 136 c 1
 136 116 171 101 240 92 c 1
 263 76 305 63 366 54 c 1
 377 41 382 28 382 16 c 1
 366 -6 341 -17 306 -17 c 1
 205 -4 132 18 87 49 c 1
 30 95 1 133 -1 164 c 2
 -1 197 l 2
 -1 202 4 207 15 213 c 1
EndSplineSet
Validated: 1
Ligature2: "'liga' Standard Ligatures in Latin lookup 0 subtable" s e m e
Ligature2: "'liga' Standard Ligatures in Latin lookup 0 subtable" S e m e
EndChar

StartChar: sewi
Encoding: 201 989530 214
Width: 800
GlyphClass: 3
Flags: W
LayerCount: 2
Fore
SplineSet
470 690 m 1
 486 690 l 1
 521 674 538 640 538 587 c 1
 542 587 543 581 543 570 c 0
 547 434 549 339 549 285 c 1
 606 285 l 2
 639 285 665 262 684 217 c 1
 684 211 l 1
 675 192 662 183 643 183 c 1
 616 190 588 194 559 194 c 1
 559 190 557 188 554 188 c 1
 561 103 573 29 590 -34 c 1
 590 -40 l 2
 587 -55 568 -62 533 -62 c 1
 428 34 l 1
 428 40 l 2
 429 48 433 52 439 52 c 2
 475 52 l 1
 472 115 467 157 460 177 c 1
 363 171 262 140 157 86 c 1
 157 81 120 64 47 34 c 1
 42 34 l 1
 14 56 0 77 0 97 c 1
 12 131 40 148 84 148 c 1
 183 198 244 222 266 222 c 1
 266 228 l 1
 256 258 247 315 240 399 c 0
 240 422 254 435 282 439 c 1
 303 439 l 1
 338 424 355 386 355 325 c 2
 355 262 l 2
 355 255 360 251 371 251 c 0
 430 259 460 266 460 274 c 2
 455 342 l 2
 455 346 456 348 460 348 c 1
 455 376 l 1
 455 416 l 2
 455 444 454 465 453 479 c 0
 453 493 448 540 439 622 c 1
 449 673 l 1
 470 690 l 1
EndSplineSet
Validated: 1
Ligature2: "'liga' Standard Ligatures in Latin lookup 0 subtable" s e w i
Ligature2: "'liga' Standard Ligatures in Latin lookup 0 subtable" S e w i
EndChar

StartChar: sijelo
Encoding: 202 989531 215
Width: 694
GlyphClass: 3
Flags: W
LayerCount: 2
Fore
SplineSet
393 647 m 1
 412 622 420 598 416 573 c 2
 415 568 l 2
 402 484 372 402 324 322 c 1
 321 305 l 1
 343 277 395 235 475 176 c 1
 524 123 547 89 545 73 c 1
 518 50 503 39 499 39 c 2
 493 40 l 2
 458 46 434 63 421 92 c 1
 411 94 397 106 380 128 c 1
 260 211 l 1
 254 211 l 1
 152 85 88 24 63 28 c 1
 62 24 55 23 40 26 c 2
 34 27 l 2
 29 27 24 34 20 46 c 1
 22 57 l 1
 204 260 310 449 338 626 c 1
 360 642 379 649 393 647 c 1
177 600 m 2
 189 598 l 1
 215 568 225 537 220 506 c 0
 214 466 182 396 123 296 c 1
 82 248 50 227 26 230 c 1
 3 244 -8 256 -9 265 c 2
 -6 282 l 1
 39 348 62 383 62 387 c 0
 80 399 99 445 119 522 c 1
 125 562 l 2
 130 592 147 605 177 600 c 2
EndSplineSet
Validated: 33
Ligature2: "'liga' Standard Ligatures in Latin lookup 0 subtable" s i j e l o
Ligature2: "'liga' Standard Ligatures in Latin lookup 0 subtable" S i j e l o
EndChar

StartChar: sike
Encoding: 203 989532 216
Width: 704
GlyphClass: 3
Flags: W
LayerCount: 2
Fore
SplineSet
540 701 m 1
 580 696 600 679 600 649 c 2
 600 638 l 2
 600 625 567 614 499 603 c 1
 430 560 381 526 351 500 c 1
 459 429 513 377 513 345 c 1
 521 345 530 321 538 272 c 0
 549 205 525 143 465 86 c 0
 401 29 333 0 263 0 c 0
 165 0 93 48 47 144 c 0
 38 159 34 180 34 207 c 2
 34 259 l 2
 34 286 76 351 162 454 c 1
 162 465 l 2
 162 478 135 486 81 488 c 0
 76 488 69 486 61 483 c 1
 30 493 10 505 0 517 c 1
 8 537 26 555 54 569 c 1
 67 569 l 2
 72 569 74 567 74 563 c 1
 83 567 90 569 94 569 c 0
 100 569 151 557 250 534 c 1
 391 638 l 1
 540 701 l 1
270 437 m 1
 180 332 135 261 135 224 c 2
 135 207 l 1
 147 119 191 74 267 72 c 0
 343 70 398 121 432 224 c 1
 432 253 l 2
 432 330 378 391 270 437 c 1
250 299 m 1
 310 299 l 2
 334 299 356 270 378 213 c 1
 378 195 l 2
 378 186 362 181 330 178 c 1
 250 195 209 224 209 264 c 1
 213 264 226 276 250 299 c 1
EndSplineSet
Validated: 33
Ligature2: "'liga' Standard Ligatures in Latin lookup 0 subtable" s i k e
Ligature2: "'liga' Standard Ligatures in Latin lookup 0 subtable" S i k e
EndChar

StartChar: sin
Encoding: 204 989533 217
Width: 697
GlyphClass: 3
Flags: W
LayerCount: 2
Fore
SplineSet
501 603 m 1
 535 603 l 2
 541 603 554 590 575 563 c 1
 575 546 l 2
 575 522 474 486 273 438 c 1
 255 412 240 344 227 232 c 1
 236 175 249 147 267 147 c 0
 344 146 391 153 407 169 c 1
 464 169 l 2
 470 169 477 161 487 146 c 1
 487 140 l 2
 487 98 417 66 279 44 c 1
 211 72 167 102 146 133 c 0
 125 165 114 190 113 209 c 2
 113 215 l 2
 113 284 121 347 136 403 c 1
 132 403 130 405 130 409 c 1
 73 403 l 1
 67 403 l 1
 42 415 19 434 -1 460 c 1
 -1 472 l 2
 -1 496 48 511 147 518 c 1
 254 540 372 569 501 603 c 1
478 392 m 1
 504 381 521 368 530 352 c 1
 530 312 486 290 398 284 c 1
 383 276 363 272 336 272 c 1
 279 285 250 306 250 335 c 1
 270 373 327 392 421 392 c 2
 478 392 l 1
EndSplineSet
Validated: 33
Ligature2: "'liga' Standard Ligatures in Latin lookup 0 subtable" s i n
Ligature2: "'liga' Standard Ligatures in Latin lookup 0 subtable" S i n
EndChar

StartChar: sina
Encoding: 205 989534 218
Width: 639
GlyphClass: 3
Flags: W
LayerCount: 2
Fore
SplineSet
381 703 m 2
 387 703 l 2
 448 703 494 648 523 537 c 1
 523 507 l 1
 473 438 419 394 363 376 c 1
 297 341 l 1
 297 240 l 2
 299 232 303 228 309 228 c 2
 381 228 l 2
 441 228 479 218 494 198 c 1
 494 186 l 2
 494 174 430 156 303 133 c 1
 333 2 l 1
 303 -16 l 1
 252 -7 226 29 226 91 c 0
 226 103 214 109 190 109 c 1
 65 85 l 1
 30 101 12 121 12 145 c 0
 12 180 63 198 167 198 c 1
 194 205 208 213 208 222 c 2
 208 263 l 1
 214 293 l 1
 190 293 l 1
 123 285 85 281 77 281 c 2
 48 281 l 1
 20 301 6 319 6 335 c 1
 26 359 38 370 42 370 c 2
 65 370 l 1
 165 378 214 394 214 418 c 0
 225 524 242 592 268 620 c 1
 298 676 336 703 381 703 c 2
309 458 m 1
 319 454 l 1
 328 454 l 1
 396 489 430 520 430 547 c 1
 416 575 397 589 374 589 c 0
 348 589 326 545 309 458 c 1
EndSplineSet
Validated: 1
Ligature2: "'liga' Standard Ligatures in Latin lookup 0 subtable" s i n a
Ligature2: "'liga' Standard Ligatures in Latin lookup 0 subtable" S i n a
EndChar

StartChar: sinpin
Encoding: 206 989535 219
Width: 788
GlyphClass: 3
Flags: W
LayerCount: 2
Fore
SplineSet
574 648 m 2
 580 648 l 2
 586 648 598 636 616 612 c 1
 616 601 l 2
 616 584 604 562 580 535 c 0
 541 486 521 456 521 445 c 1
 592 374 628 281 628 165 c 0
 628 82 590 40 515 40 c 0
 400 40 330 91 306 195 c 1
 306 219 l 1
 314 292 344 369 395 451 c 1
 374 475 349 487 318 487 c 1
 305 479 293 475 282 475 c 2
 276 475 l 2
 268 477 260 487 252 505 c 1
 268 543 286 569 306 583 c 1
 312 583 l 2
 328 583 376 565 455 529 c 1
 461 529 l 1
 506 608 543 648 574 648 c 2
46 632 m 1
 72 632 89 616 98 585 c 1
 91 537 88 499 88 471 c 2
 88 453 l 2
 88 392 101 292 129 155 c 1
 134 155 l 1
 179 199 203 221 206 221 c 2
 222 221 l 2
 226 221 232 215 237 203 c 1
 237 191 l 2
 237 173 215 121 170 36 c 1
 170 16 155 4 124 0 c 1
 57 0 16 161 0 483 c 1
 0 495 l 2
 0 499 2 501 5 501 c 1
 0 513 l 1
 0 578 15 617 46 632 c 1
407 231 m 1
 407 201 l 2
 407 160 433 136 485 129 c 1
 521 135 l 1
 521 201 l 2
 521 261 501 313 461 356 c 1
 446 347 428 305 407 231 c 1
EndSplineSet
Validated: 1
Ligature2: "'liga' Standard Ligatures in Latin lookup 0 subtable" s i n p i n
Ligature2: "'liga' Standard Ligatures in Latin lookup 0 subtable" S i n p i n
EndChar

StartChar: sitelen
Encoding: 207 989536 220
Width: 931
GlyphClass: 3
Flags: W
LayerCount: 2
Fore
SplineSet
638 635 m 1
 683 625 724 594 761 543 c 1
 773 494 777 459 774 439 c 0
 750 290 667 161 526 54 c 1
 496 53 l 1
 484 55 l 2
 460 59 442 82 429 124 c 1
 440 140 449 149 457 149 c 0
 466 148 473 145 480 140 c 0
 504 136 558 207 640 353 c 1
 642 366 650 391 664 427 c 1
 675 493 659 530 616 537 c 2
 552 547 l 1
 489 547 410 516 315 454 c 1
 313 444 291 440 247 441 c 1
 230 450 219 464 212 483 c 1
 217 518 l 1
 341 598 431 637 488 636 c 1
 520 648 l 1
 540 645 580 641 638 635 c 1
86 593 m 1
 113 555 126 523 124 497 c 1
 118 498 l 1
 122 485 l 1
 119 468 l 2
 108 397 116 298 143 170 c 1
 149 169 l 1
 202 205 242 220 270 215 c 1
 285 207 292 200 291 194 c 2
 290 188 l 1
 267 141 218 87 144 26 c 1
 108 26 l 1
 102 27 l 2
 65 33 45 84 43 180 c 1
 14 326 6 434 17 502 c 1
 23 501 l 1
 19 514 l 1
 22 532 l 1
 35 577 56 598 86 593 c 1
377 396 m 0
 429 388 475 350 515 284 c 1
 508 243 l 2
 504 231 488 228 459 233 c 2
 447 235 l 1
 368 266 333 308 342 360 c 1
 353 383 365 395 377 396 c 0
EndSplineSet
Validated: 33
Ligature2: "'liga' Standard Ligatures in Latin lookup 0 subtable" s i t e l e n
Ligature2: "'liga' Standard Ligatures in Latin lookup 0 subtable" S i t e l e n
EndChar

StartChar: sona
Encoding: 208 989537 221
Width: 833
GlyphClass: 3
Flags: W
LayerCount: 2
Fore
SplineSet
439 670 m 1
 477 652 495 632 495 608 c 2
 495 597 l 1
 482 597 465 557 445 478 c 1
 450 467 l 1
 484 484 l 1
 523 484 l 1
 550 470 563 460 563 456 c 2
 563 439 l 2
 563 427 520 414 433 400 c 1
 433 304 l 1
 440 177 485 98 568 68 c 1
 611 74 658 96 709 135 c 1
 720 135 l 1
 732 118 l 1
 732 79 l 1
 688 26 639 0 585 0 c 2
 535 0 l 1
 461 19 409 53 378 104 c 0
 347 155 332 215 332 285 c 0
 332 354 330 388 326 388 c 0
 274 378 248 367 248 355 c 2
 248 349 l 1
 261 349 274 304 287 214 c 1
 276 169 227 146 141 146 c 2
 107 146 l 1
 37 179 1 205 0 225 c 0
 0 276 34 328 101 383 c 1
 91 401 74 411 51 411 c 1
 51 415 49 420 45 428 c 1
 53 454 64 467 79 467 c 0
 103 467 136 454 180 428 c 1
 186 428 l 1
 295 454 349 477 349 495 c 0
 367 586 395 645 433 670 c 1
 439 670 l 1
101 236 m 1
 109 219 116 210 124 208 c 2
 146 208 l 2
 174 208 189 214 191 225 c 2
 191 265 l 2
 191 274 188 291 180 315 c 1
 169 315 l 1
 144 305 122 278 101 236 c 1
152 712 m 0
 179 709 215 675 257 611 c 1
 253 575 l 2
 253 569 246 564 233 559 c 1
 179 564 l 1
 129 597 101 624 97 645 c 1
 101 687 l 1
 114 705 131 714 152 712 c 0
EndSplineSet
Validated: 33
Ligature2: "'liga' Standard Ligatures in Latin lookup 0 subtable" s o n a
Ligature2: "'liga' Standard Ligatures in Latin lookup 0 subtable" S o n a
EndChar

StartChar: soweli
Encoding: 209 989538 222
Width: 932
GlyphClass: 3
Flags: W
LayerCount: 2
Fore
SplineSet
594 605 m 1
 650 605 678 579 678 528 c 2
 678 500 l 1
 671 466 l 1
 754 451 796 426 796 389 c 1
 778 375 757 368 733 368 c 2
 671 368 l 2
 664 368 647 322 622 229 c 1
 615 229 606 208 594 167 c 1
 563 130 544 111 539 111 c 2
 525 111 l 2
 518 111 511 118 504 132 c 1
 508 204 520 264 539 313 c 1
 534 322 532 329 532 334 c 1
 511 334 l 1
 406 292 l 1
 406 194 390 146 358 146 c 2
 337 146 l 1
 304 169 288 202 288 243 c 1
 281 243 l 1
 158 160 86 118 66 118 c 1
 33 138 17 149 17 153 c 2
 17 208 l 1
 59 254 122 294 205 327 c 0
 251 347 274 361 274 368 c 0
 265 462 260 516 260 528 c 1
 276 542 287 549 295 549 c 0
 351 530 379 498 379 452 c 0
 379 419 388 403 406 403 c 1
 513 429 566 452 566 473 c 0
 566 528 576 572 594 605 c 1
EndSplineSet
Validated: 1
Ligature2: "'liga' Standard Ligatures in Latin lookup 0 subtable" s o w e l i
Ligature2: "'liga' Standard Ligatures in Latin lookup 0 subtable" S o w e l i
EndChar

StartChar: suli
Encoding: 210 989539 223
Width: 736
GlyphClass: 3
Flags: W
LayerCount: 2
Fore
SplineSet
359 698 m 0
 382 698 405 681 427 646 c 1
 431 625 433 608 433 594 c 2
 433 519 l 2
 433 510 431 502 427 496 c 1
 431 488 433 483 433 478 c 1
 452 478 l 2
 463 478 510 494 594 525 c 1
 613 525 l 1
 631 518 646 507 656 490 c 1
 656 467 l 1
 649 448 576 418 439 374 c 0
 406 361 390 343 390 322 c 1
 427 254 493 168 588 62 c 1
 606 34 l 1
 606 5 l 2
 606 -1 596 -8 575 -18 c 1
 569 -18 l 2
 518 -18 477 5 445 51 c 0
 441 51 404 93 334 178 c 1
 290 105 265 68 260 68 c 0
 215 12 174 -21 136 -30 c 1
 86 -21 62 -6 62 16 c 0
 62 25 86 48 136 86 c 1
 186 152 228 222 260 294 c 1
 252 297 246 299 241 299 c 0
 154 268 94 253 62 253 c 1
 25 265 6 284 6 311 c 0
 6 334 91 367 260 409 c 1
 297 409 315 473 315 600 c 2
 315 617 l 1
 309 658 l 1
 329 684 345 697 359 698 c 0
EndSplineSet
Validated: 1
Ligature2: "'liga' Standard Ligatures in Latin lookup 0 subtable" s u l i
Ligature2: "'liga' Standard Ligatures in Latin lookup 0 subtable" S u l i
EndChar

StartChar: suno
Encoding: 211 989540 224
Width: 756
GlyphClass: 3
Flags: W
LayerCount: 2
Fore
SplineSet
437 693 m 1
 465 688 479 668 479 632 c 1
 476 615 l 1
 458 560 433 536 401 542 c 1
 399 534 394 531 386 533 c 2
 347 540 l 2
 340 542 335 550 331 567 c 1
 342 624 378 666 437 693 c 1
65 648 m 1
 132 612 186 589 227 582 c 1
 239 575 243 563 240 544 c 1
 221 520 197 511 167 517 c 0
 92 531 41 561 16 605 c 1
 20 627 l 1
 31 639 46 646 65 648 c 1
541 528 m 1
 599 519 627 498 627 465 c 1
 621 441 588 430 528 430 c 1
 509 411 467 388 402 361 c 0
 402 357 393 349 376 338 c 1
 376 327 420 293 508 234 c 1
 561 179 588 131 588 90 c 0
 588 50 552 17 482 -8 c 0
 458 -16 427 -20 389 -20 c 0
 338 -17 280 0 217 32 c 1
 146 77 111 125 111 176 c 2
 111 193 l 2
 111 217 129 252 164 297 c 0
 168 305 171 310 171 315 c 1
 108 335 72 356 65 378 c 1
 65 401 l 1
 85 430 l 1
 130 430 183 415 243 384 c 1
 270 384 l 1
 369 457 459 505 541 528 c 1
270 257 m 1
 235 218 217 183 217 153 c 0
 217 99 283 66 415 55 c 1
 429 55 l 2
 452 55 465 74 468 113 c 0
 468 145 413 193 303 257 c 1
 270 257 l 1
EndSplineSet
Validated: 33
Ligature2: "'liga' Standard Ligatures in Latin lookup 0 subtable" s u n o
Ligature2: "'liga' Standard Ligatures in Latin lookup 0 subtable" S u n o
EndChar

StartChar: supa
Encoding: 212 989541 225
Width: 769
GlyphClass: 3
Flags: W
LayerCount: 2
Fore
SplineSet
556 582 m 1
 584 577 603 559 614 526 c 1
 611 507 l 2
 607 484 554 470 451 465 c 1
 417 470 396 449 388 402 c 1
 371 351 362 322 361 313 c 1
 452 188 520 122 563 115 c 1
 596 98 610 71 604 36 c 2
 603 29 l 1
 587 9 568 1 546 5 c 1
 465 42 385 110 305 208 c 1
 285 211 l 1
 270 172 209 120 101 54 c 0
 86 47 72 45 60 47 c 2
 47 49 l 1
 10 61 -8 77 -5 97 c 0
 -4 106 39 135 122 184 c 1
 219 300 271 376 277 412 c 1
 265 421 l 1
 174 399 102 393 49 401 c 1
 16 425 -2 450 -6 476 c 1
 -1 507 54 520 160 517 c 1
 162 528 198 536 270 540 c 1
 302 551 397 565 556 582 c 1
EndSplineSet
Validated: 33
Ligature2: "'liga' Standard Ligatures in Latin lookup 0 subtable" s u p a
Ligature2: "'liga' Standard Ligatures in Latin lookup 0 subtable" S u p a
EndChar

StartChar: suwi
Encoding: 213 989542 226
Width: 761
GlyphClass: 3
Flags: W
LayerCount: 2
Fore
SplineSet
323 646 m 1
 365 646 l 2
 371 646 379 638 389 622 c 1
 389 616 l 1
 368 571 332 509 281 430 c 1
 241 357 221 285 221 215 c 1
 230 132 266 90 329 90 c 2
 347 90 l 1
 456 123 534 177 580 251 c 0
 586 267 592 275 598 275 c 2
 604 275 l 2
 612 274 616 270 616 263 c 2
 616 215 l 2
 616 131 546 61 407 6 c 1
 386 2 366 0 347 0 c 2
 329 0 l 2
 212 0 144 74 126 221 c 1
 126 239 l 2
 126 265 134 315 149 389 c 1
 143 389 l 1
 102 345 66 323 36 323 c 1
 12 331 0 347 0 371 c 2
 0 383 l 1
 33 441 63 481 90 502 c 1
 114 502 l 2
 136 502 156 486 173 454 c 1
 243 564 292 628 323 646 c 1
383 424 m 1
 412 424 l 1
 444 414 467 394 484 365 c 1
 484 355 492 339 508 317 c 1
 508 281 l 2
 508 276 498 266 478 251 c 1
 424 251 380 291 347 371 c 1
 347 393 359 411 383 424 c 1
EndSplineSet
Validated: 1
Ligature2: "'liga' Standard Ligatures in Latin lookup 0 subtable" s u w i
Ligature2: "'liga' Standard Ligatures in Latin lookup 0 subtable" S u w i
EndChar

StartChar: tan
Encoding: 214 989543 227
Width: 809
GlyphClass: 3
Flags: W
LayerCount: 2
Fore
SplineSet
187 697 m 1
 232 697 263 680 278 646 c 1
 278 600 l 2
 278 597 274 582 266 555 c 1
 266 481 l 1
 272 481 l 1
 387 508 487 521 572 521 c 1
 583 507 589 494 589 481 c 2
 589 470 l 2
 589 458 498 437 317 408 c 1
 317 401 300 395 266 391 c 1
 266 351 l 1
 272 323 l 1
 268 323 266 321 266 317 c 2
 283 306 l 1
 373 340 439 357 481 357 c 2
 487 357 l 1
 597 347 651 304 651 227 c 0
 651 100 597 26 487 6 c 1
 481 17 l 1
 481 23 l 2
 481 41 500 79 538 136 c 0
 549 155 555 170 555 181 c 2
 555 227 l 2
 555 232 546 241 527 255 c 1
 493 255 l 2
 445 255 373 234 278 193 c 0
 278 189 272 185 261 181 c 1
 272 34 l 1
 267 11 261 0 255 0 c 2
 210 0 l 2
 197 0 180 9 159 28 c 1
 136 42 125 51 125 57 c 2
 125 68 l 2
 125 76 130 79 142 79 c 0
 149 76 155 74 159 74 c 0
 162 81 164 87 164 91 c 0
 160 124 159 143 159 147 c 1
 147 147 l 1
 120 128 99 119 85 119 c 2
 34 119 l 2
 29 119 17 130 0 153 c 1
 0 181 l 2
 0 198 53 226 159 266 c 1
 159 285 160 295 164 295 c 1
 159 306 l 1
 159 346 l 1
 147 346 l 2
 144 346 129 342 102 334 c 1
 74 334 l 2
 53 334 36 346 23 368 c 1
 23 397 l 1
 30 410 74 429 153 453 c 1
 153 504 l 2
 153 594 164 658 187 697 c 1
EndSplineSet
Validated: 1
Ligature2: "'liga' Standard Ligatures in Latin lookup 0 subtable" t a n
Ligature2: "'liga' Standard Ligatures in Latin lookup 0 subtable" T a n
EndChar

StartChar: taso
Encoding: 215 989544 228
Width: 732
GlyphClass: 3
Flags: W
LayerCount: 2
Fore
SplineSet
536 641 m 1
 556 641 l 1
 587 623 603 580 603 514 c 2
 603 352 l 1
 603 312 l 2
 603 301 610 231 623 103 c 1
 619 49 607 22 589 22 c 2
 576 22 l 2
 558 22 533 92 502 231 c 1
 482 231 l 1
 429 168 340 140 213 146 c 0
 87 152 24 205 24 305 c 1
 31 372 52 406 85 406 c 1
 114 394 132 380 139 366 c 1
 139 285 l 1
 148 258 171 244 206 244 c 2
 300 244 l 2
 356 244 423 256 502 278 c 1
 495 312 l 1
 495 433 l 2
 495 448 493 459 488 466 c 1
 495 507 l 1
 495 581 l 2
 495 606 509 626 536 641 c 1
160 640 m 2
 167 640 l 2
 203 640 252 606 312 538 c 1
 335 536 362 516 392 480 c 1
 392 451 l 2
 392 444 384 437 370 429 c 1
 326 429 l 1
 196 464 131 522 131 603 c 1
 140 625 150 638 160 640 c 2
EndSplineSet
Validated: 33
Ligature2: "'liga' Standard Ligatures in Latin lookup 0 subtable" t a s o
Ligature2: "'liga' Standard Ligatures in Latin lookup 0 subtable" T a s o
EndChar

StartChar: tawa
Encoding: 216 989545 229
Width: 833
GlyphClass: 3
Flags: W
LayerCount: 2
Fore
SplineSet
232 647 m 1
 251 641 264 630 273 613 c 1
 273 593 l 2
 273 569 266 548 252 531 c 1
 254 522 258 518 266 518 c 0
 357 528 402 551 402 586 c 1
 422 627 435 647 443 647 c 2
 464 647 l 2
 491 647 510 627 518 586 c 1
 518 579 l 1
 614 586 l 1
 636 562 648 542 648 524 c 1
 636 506 584 488 491 470 c 1
 480 447 474 436 470 436 c 1
 476 381 488 354 504 354 c 2
 518 354 l 2
 543 354 611 372 723 409 c 1
 750 409 l 1
 754 400 757 393 757 388 c 0
 704 327 642 286 573 265 c 1
 484 265 l 1
 407 291 368 348 368 436 c 1
 355 443 l 1
 259 426 211 401 211 368 c 0
 207 329 205 297 205 272 c 2
 205 252 l 2
 205 152 261 102 375 102 c 0
 432 102 503 115 586 143 c 1
 604 136 614 129 614 122 c 0
 614 95 552 61 429 20 c 1
 334 20 l 1
 184 49 109 120 109 231 c 2
 109 245 l 2
 109 269 111 307 116 361 c 1
 107 361 102 363 102 368 c 1
 55 354 l 1
 37 354 19 368 0 395 c 1
 0 422 l 2
 0 440 41 458 123 477 c 1
 123 472 125 470 130 470 c 1
 170 588 204 647 232 647 c 1
EndSplineSet
Validated: 1
Ligature2: "'liga' Standard Ligatures in Latin lookup 0 subtable" t a w a
Ligature2: "'liga' Standard Ligatures in Latin lookup 0 subtable" T a w a
EndChar

StartChar: telo
Encoding: 217 989546 230
Width: 826
GlyphClass: 3
Flags: W
LayerCount: 2
Fore
SplineSet
194 663 m 1
 235 663 287 605 351 491 c 1
 416 392 448 322 448 280 c 1
 456 259 465 223 475 172 c 1
 466 91 453 51 437 51 c 1
 418 17 380 0 324 0 c 1
 234 30 189 66 189 108 c 0
 189 117 194 121 205 121 c 0
 227 113 263 106 313 102 c 0
 347 102 365 134 367 198 c 1
 357 225 346 265 335 319 c 1
 322 351 270 433 178 567 c 0
 167 589 162 610 162 631 c 1
 194 663 l 1
507 497 m 1
 524 497 l 1
 576 467 625 418 669 350 c 0
 677 337 680 324 680 312 c 0
 680 307 671 296 653 280 c 1
 610 280 l 1
 560 313 515 358 475 414 c 1
 475 421 l 2
 475 457 486 482 507 497 c 1
146 414 m 2
 173 414 l 2
 192 414 207 401 216 376 c 1
 216 334 175 287 92 236 c 1
 92 224 74 216 38 210 c 0
 26 210 13 217 0 229 c 1
 0 273 31 319 92 370 c 1
 108 399 126 414 146 414 c 2
EndSplineSet
Validated: 1
Ligature2: "'liga' Standard Ligatures in Latin lookup 0 subtable" t e l o
Ligature2: "'liga' Standard Ligatures in Latin lookup 0 subtable" T e l o
EndChar

StartChar: tenpo
Encoding: 218 989547 231
Width: 762
GlyphClass: 3
Flags: W
LayerCount: 2
Fore
SplineSet
233 690 m 1
 281 690 l 2
 289 690 301 676 318 648 c 1
 318 636 l 2
 318 633 283 585 215 490 c 1
 142 379 106 300 106 254 c 1
 126 250 136 246 136 242 c 1
 174 242 239 260 330 297 c 1
 360 297 l 1
 360 291 l 2
 360 260 320 220 239 170 c 1
 186 153 150 145 130 145 c 1
 45 171 3 215 3 279 c 2
 3 297 l 1
 20 423 97 554 233 690 c 1
481 527 m 2
 493 527 l 1
 566 507 602 474 602 430 c 1
 614 427 620 411 620 381 c 2
 620 369 l 2
 620 221 564 104 451 18 c 1
 451 8 421 -4 360 -18 c 1
 332 -4 318 6 318 12 c 0
 318 27 356 72 433 145 c 1
 462 179 493 236 523 315 c 1
 523 375 l 1
 515 412 505 430 493 430 c 0
 481 430 435 408 354 363 c 1
 345 363 337 361 330 357 c 1
 281 361 257 377 257 406 c 0
 257 437 302 471 390 509 c 0
 427 521 457 527 481 527 c 2
EndSplineSet
Validated: 1
Ligature2: "'liga' Standard Ligatures in Latin lookup 0 subtable" t e n p o
Ligature2: "'liga' Standard Ligatures in Latin lookup 0 subtable" T e n p o
EndChar

StartChar: toki
Encoding: 219 989548 232
Width: 799
GlyphClass: 3
Flags: W
LayerCount: 2
Fore
SplineSet
163 688 m 0
 194 688 240 664 300 616 c 0
 330 594 346 571 346 544 c 1
 321 527 299 519 280 518 c 0
 229 518 177 555 124 629 c 1
 124 655 l 1
 136 677 149 688 163 688 c 0
470 623 m 1
 483 623 l 2
 528 623 554 603 561 564 c 0
 561 558 535 523 483 460 c 1
 413 384 367 290 346 179 c 1
 359 110 385 75 424 75 c 2
 489 75 l 2
 526 77 563 91 602 117 c 1
 701 233 l 1
 732 277 735 244 711 134 c 1
 679 45 596 -7 463 -23 c 1
 365 -23 300 12 267 81 c 1
 246 113 235 139 235 160 c 2
 235 231 l 2
 235 284 270 364 339 473 c 1
 402 559 446 609 470 623 c 1
46 505 m 1
 52 505 l 2
 81 505 142 475 235 414 c 1
 235 394 l 2
 235 364 224 349 202 349 c 0
 119 349 56 379 13 440 c 1
 13 453 l 2
 13 477 24 494 46 505 c 1
EndSplineSet
Validated: 33
Ligature2: "'liga' Standard Ligatures in Latin lookup 0 subtable" t o k i
Ligature2: "'liga' Standard Ligatures in Latin lookup 0 subtable" T o k i
EndChar

StartChar: tomo
Encoding: 220 989549 233
Width: 691
GlyphClass: 3
Flags: W
LayerCount: 2
Fore
SplineSet
345 722 m 2
 379 715 l 2
 390 713 396 694 397 659 c 1
 393 642 375 602 343 540 c 1
 365 536 l 1
 562 548 l 1
 571 532 574 517 571 505 c 2
 567 488 l 1
 536 473 440 454 279 430 c 1
 175 307 95 231 37 203 c 1
 26 205 l 2
 3 210 -6 220 -3 235 c 0
 0 250 55 315 162 431 c 1
 73 442 31 456 35 474 c 0
 40 501 86 513 172 511 c 1
 213 518 234 526 235 533 c 0
 290 663 327 726 345 722 c 2
449 349 m 2
 516 335 545 309 537 270 c 0
 537 254 536 238 533 222 c 0
 490 126 452 73 421 63 c 1
 345 -23 285 -61 239 -51 c 2
 215 -47 l 2
 208 -45 205 -40 206 -33 c 2
 207 -27 l 1
 341 71 418 167 437 260 c 1
 427 269 l 1
 396 275 339 244 256 176 c 1
 247 178 239 178 231 175 c 1
 206 192 196 213 201 236 c 2
 203 248 l 1
 289 321 353 359 397 360 c 1
 449 349 l 2
EndSplineSet
Validated: 33
Ligature2: "'liga' Standard Ligatures in Latin lookup 0 subtable" t o m o
Ligature2: "'liga' Standard Ligatures in Latin lookup 0 subtable" T o m o
EndChar

StartChar: tu
Encoding: 221 989550 234
Width: 695
GlyphClass: 3
Flags: W
LayerCount: 2
Fore
SplineSet
322 670 m 0
 324 670 332 668 347 664 c 1
 359 670 l 1
 414 648 441 617 441 576 c 2
 441 557 l 2
 441 467 387 350 277 204 c 0
 272 204 268 196 265 179 c 1
 277 173 l 1
 385 198 l 1
 391 198 l 2
 400 198 409 196 416 192 c 1
 429 198 l 1
 474 198 523 175 573 129 c 1
 573 122 l 2
 573 116 567 110 555 104 c 1
 543 104 501 106 429 110 c 0
 361 110 271 68 158 -16 c 1
 158 -29 131 -35 76 -35 c 1
 55 -26 44 14 44 85 c 0
 44 95 95 154 196 261 c 1
 284 407 328 499 328 538 c 2
 328 551 l 2
 328 559 324 563 315 563 c 1
 233 507 191 467 189 444 c 1
 183 443 158 403 114 324 c 1
 100 316 87 311 76 311 c 2
 38 311 l 2
 32 311 23 320 13 337 c 1
 13 386 42 449 101 525 c 1
 200 622 274 670 322 670 c 0
EndSplineSet
Validated: 1
Ligature2: "'liga' Standard Ligatures in Latin lookup 0 subtable" t u
Ligature2: "'liga' Standard Ligatures in Latin lookup 0 subtable" T u
EndChar

StartChar: unpa
Encoding: 222 989551 235
Width: 833
GlyphClass: 3
Flags: W
LayerCount: 2
Fore
SplineSet
363 711 m 1
 489 711 563 674 586 602 c 1
 586 590 l 2
 586 535 512 477 363 415 c 1
 363 403 l 1
 370 359 379 336 390 336 c 0
 411 336 494 373 640 445 c 1
 681 451 l 2
 704 451 722 441 735 421 c 1
 735 379 l 1
 729 373 677 351 579 312 c 1
 549 293 502 271 437 246 c 0
 437 242 435 240 431 240 c 1
 438 216 456 186 485 149 c 1
 507 72 519 18 519 -14 c 0
 519 -54 478 -74 397 -74 c 0
 307 -74 223 -28 146 65 c 1
 140 107 l 1
 140 161 l 1
 172 214 204 240 234 240 c 1
 266 260 282 272 282 276 c 2
 282 294 l 1
 241 361 l 1
 193 349 157 342 133 342 c 2
 113 342 l 2
 60 342 26 355 11 379 c 1
 11 415 l 2
 11 425 34 431 79 433 c 1
 79 427 l 1
 92 433 l 2
 97 433 104 431 113 427 c 1
 185 427 221 443 221 475 c 0
 221 561 248 632 302 687 c 0
 306 687 326 695 363 711 c 1
349 566 m 1
 349 530 l 2
 351 522 355 518 363 518 c 0
 440 550 478 578 478 602 c 0
 478 616 455 626 410 632 c 1
 389 628 369 606 349 566 c 1
241 119 m 1
 277 47 329 11 397 11 c 1
 373 127 346 186 316 186 c 0
 300 186 276 163 241 119 c 1
EndSplineSet
Validated: 1
Ligature2: "'liga' Standard Ligatures in Latin lookup 0 subtable" u n p a
Ligature2: "'liga' Standard Ligatures in Latin lookup 0 subtable" U n p a
EndChar

StartChar: uta
Encoding: 223 989552 236
Width: 707
GlyphClass: 3
Flags: W
LayerCount: 2
Fore
SplineSet
285 667 m 2
 300 667 l 1
 335 652 353 636 353 620 c 0
 353 611 308 552 218 443 c 1
 153 324 120 237 120 183 c 2
 120 148 l 1
 132 112 157 94 195 94 c 1
 195 90 210 89 240 89 c 0
 330 89 430 138 541 236 c 1
 548 252 556 260 563 260 c 2
 571 260 l 2
 578 260 586 252 593 236 c 1
 593 133 506 58 330 12 c 0
 298 4 275 0 263 0 c 2
 210 0 l 2
 103 0 33 61 0 183 c 1
 0 195 l 2
 0 288 68 425 203 608 c 1
 243 645 270 664 285 667 c 2
EndSplineSet
Validated: 1
Ligature2: "'liga' Standard Ligatures in Latin lookup 0 subtable" u t a
Ligature2: "'liga' Standard Ligatures in Latin lookup 0 subtable" U t a
EndChar

StartChar: utala
Encoding: 224 989553 237
Width: 646
GlyphClass: 3
Flags: W
LayerCount: 2
Fore
SplineSet
136 686 m 0
 172 679 187 645 181 585 c 2
 179 573 l 1
 184 572 l 1
 289 618 354 639 381 633 c 2
 393 631 l 2
 460 618 491 570 487 486 c 0
 488 471 487 455 484 440 c 2
 480 423 l 2
 472 378 422 309 330 214 c 1
 328 203 l 1
 373 194 429 133 496 20 c 1
 492 -3 l 2
 491 -8 480 -13 460 -20 c 1
 395 -7 359 23 350 71 c 1
 340 73 311 92 262 128 c 1
 251 130 l 1
 152 56 99 20 91 22 c 1
 66 7 42 2 18 7 c 2
 7 9 l 2
 0 10 -3 15 -2 22 c 2
 -1 28 l 1
 177 202 l 1
 142 261 l 1
 147 286 149 305 147 318 c 1
 157 325 179 327 212 323 c 1
 235 308 250 299 259 297 c 2
 265 296 l 1
 337 371 377 425 383 459 c 2
 388 487 l 2
 394 515 389 531 374 536 c 0
 334 544 238 489 88 370 c 1
 53 371 l 1
 36 374 l 1
 20 388 12 397 12 402 c 2
 20 441 l 1
 38 457 48 467 49 471 c 0
 52 487 52 499 50 505 c 0
 61 545 70 580 75 611 c 2
 86 666 l 1
 99 683 116 690 136 686 c 0
EndSplineSet
Validated: 33
Ligature2: "'liga' Standard Ligatures in Latin lookup 0 subtable" u t a l a
Ligature2: "'liga' Standard Ligatures in Latin lookup 0 subtable" U t a l a
EndChar

StartChar: walo
Encoding: 225 989554 238
Width: 653
GlyphClass: 3
Flags: W
LayerCount: 2
Fore
SplineSet
302 697 m 0
 329 695 348 676 358 640 c 1
 350 619 345 600 344 584 c 2
 341 546 l 1
 345 537 l 1
 360 542 382 543 410 541 c 0
 454 538 495 511 534 460 c 1
 545 433 549 405 547 378 c 0
 542 310 482 251 369 201 c 0
 355 199 352 173 359 123 c 0
 365 72 370 22 373 -29 c 1
 362 -49 347 -58 329 -57 c 0
 286 -53 267 -20 272 43 c 1
 268 44 264 86 261 167 c 0
 258 168 257 169 257 172 c 1
 192 163 154 159 144 160 c 1
 144 165 l 1
 114 157 l 1
 65 173 41 184 41 192 c 2
 42 196 l 2
 42 204 66 213 112 224 c 2
 249 249 l 1
 240 410 l 1
 146 377 81 362 47 365 c 1
 19 383 6 414 10 458 c 1
 78 598 127 668 155 665 c 2
 170 664 l 2
 175 664 182 657 189 644 c 1
 188 639 l 2
 187 621 164 579 118 511 c 0
 100 483 90 463 89 452 c 2
 89 447 l 1
 94 447 l 1
 200 488 253 511 253 515 c 2
 254 591 l 2
 255 595 257 599 260 605 c 1
 253 634 l 1
 263 678 279 699 302 697 c 0
361 438 m 0
 359 348 362 303 370 302 c 1
 429 340 460 373 462 401 c 1
 454 436 438 454 412 456 c 0
 379 455 362 449 361 438 c 0
EndSplineSet
Validated: 33
Ligature2: "'liga' Standard Ligatures in Latin lookup 0 subtable" w a l o
Ligature2: "'liga' Standard Ligatures in Latin lookup 0 subtable" W a l o
EndChar

StartChar: wan
Encoding: 226 989555 239
Width: 749
GlyphClass: 3
Flags: W
LayerCount: 2
Fore
SplineSet
581 421 m 1
 625 390 647 361 647 336 c 1
 616 314 503 283 308 243 c 1
 200 205 128 186 94 186 c 1
 51 205 23 224 11 243 c 1
 11 287 55 314 143 322 c 1
 327 374 473 407 581 421 c 1
EndSplineSet
Validated: 1
Ligature2: "'liga' Standard Ligatures in Latin lookup 0 subtable" w a n
Ligature2: "'liga' Standard Ligatures in Latin lookup 0 subtable" W a n
EndChar

StartChar: waso
Encoding: 227 989556 240
Width: 624
GlyphClass: 3
Flags: W
LayerCount: 2
Fore
SplineSet
119 694 m 2
 130 694 l 2
 145 694 202 651 301 564 c 1
 373 518 410 482 410 455 c 1
 405 442 399 435 394 435 c 2
 379 435 l 2
 345 435 302 455 249 496 c 1
 232 479 199 450 150 409 c 1
 99 352 l 1
 99 331 l 1
 104 321 l 1
 209 357 313 369 415 357 c 1
 470 341 498 313 498 274 c 2
 498 258 l 2
 498 148 415 55 249 -22 c 1
 230 -25 211 -27 192 -27 c 1
 182 -11 l 1
 185 -3 235 40 332 118 c 1
 369 155 397 205 415 269 c 1
 410 279 l 1
 346 279 270 267 182 243 c 1
 159 243 137 239 114 232 c 1
 78 232 l 1
 33 248 10 268 10 295 c 1
 7 295 5 303 5 321 c 0
 10 360 64 435 166 543 c 1
 166 549 l 1
 78 642 l 1
 78 677 92 694 119 694 c 2
202 196 m 1
 249 196 280 184 296 160 c 1
 296 143 220 119 67 87 c 1
 47 87 l 2
 20 87 5 94 0 108 c 1
 0 149 33 173 99 180 c 2
 202 196 l 1
EndSplineSet
Validated: 33
Ligature2: "'liga' Standard Ligatures in Latin lookup 0 subtable" w a s o
Ligature2: "'liga' Standard Ligatures in Latin lookup 0 subtable" W a s o
EndChar

StartChar: wawa
Encoding: 228 989557 241
Width: 736
GlyphClass: 3
Flags: W
LayerCount: 2
Fore
SplineSet
281 675 m 0
 324 675 348 623 351 518 c 1
 348 413 l 1
 361 413 l 2
 378 413 408 430 452 464 c 1
 490 502 510 533 513 554 c 1
 483 598 452 623 421 630 c 1
 409 645 l 1
 409 655 l 2
 409 661 428 667 464 675 c 1
 500 670 537 652 574 620 c 1
 590 594 598 569 598 544 c 2
 598 519 l 1
 583 460 518 400 403 338 c 0
 398 338 380 331 348 318 c 1
 348 304 348 269 348 213 c 1
 345 219 377 195 446 141 c 1
 461 141 493 128 543 101 c 1
 555 101 573 86 598 56 c 1
 598 46 584 36 556 25 c 1
 543 25 l 2
 509 26 433 58 315 121 c 1
 256 34 208 -10 172 -10 c 2
 147 -10 l 2
 141 -10 133 -3 123 10 c 1
 123 30 l 1
 192 86 233 167 245 272 c 1
 245 287 l 2
 245 296 208 305 135 313 c 1
 46 341 1 396 1 479 c 2
 1 489 l 1
 44 605 l 1
 44 620 54 632 74 640 c 1
 98 640 l 1
 127 623 141 613 141 610 c 2
 141 560 l 1
 130 560 118 523 105 449 c 1
 105 405 143 383 220 383 c 2
 226 383 l 1
 257 398 l 1
 239 640 l 1
 247 664 261 675 281 675 c 0
EndSplineSet
Validated: 37
Ligature2: "'liga' Standard Ligatures in Latin lookup 0 subtable" w a w a
Ligature2: "'liga' Standard Ligatures in Latin lookup 0 subtable" W a w a
EndChar

StartChar: weka
Encoding: 229 989558 242
Width: 765
GlyphClass: 3
Flags: W
LayerCount: 2
Fore
SplineSet
344 674 m 1
 367 674 l 2
 372 674 380 664 390 645 c 1
 390 622 l 2
 390 594 384 562 372 525 c 1
 474 443 528 395 532 383 c 0
 570 323 589 262 589 200 c 0
 589 145 568 92 527 40 c 1
 477 -4 420 -30 355 -40 c 1
 344 -40 l 2
 260 -40 201 -4 167 68 c 1
 167 125 195 180 253 234 c 1
 278 246 299 251 315 251 c 2
 344 251 l 2
 352 250 355 246 355 240 c 2
 355 234 l 2
 355 209 331 182 281 154 c 1
 264 132 256 109 259 87 c 0
 262 64 293 48 351 38 c 0
 409 28 452 59 481 131 c 0
 485 146 487 160 487 171 c 0
 487 291 449 369 372 405 c 1
 344 432 329 445 327 445 c 0
 314 437 290 403 253 343 c 1
 202 285 166 257 144 257 c 2
 121 257 l 2
 114 257 110 261 110 268 c 2
 110 285 l 2
 110 300 142 355 207 451 c 1
 207 462 l 1
 178 468 l 1
 124 461 86 457 64 457 c 2
 58 457 l 1
 24 462 7 479 7 508 c 2
 7 514 l 2
 7 537 76 548 213 548 c 2
 253 548 l 2
 260 548 281 582 315 651 c 1
 344 674 l 1
EndSplineSet
Validated: 33
Ligature2: "'liga' Standard Ligatures in Latin lookup 0 subtable" w e k a
Ligature2: "'liga' Standard Ligatures in Latin lookup 0 subtable" W e k a
EndChar

StartChar: wile
Encoding: 230 989559 243
Width: 839
GlyphClass: 3
Flags: W
LayerCount: 2
Fore
SplineSet
207 692 m 2
 213 692 l 2
 259 692 293 622 316 482 c 1
 326 482 354 487 399 495 c 1
 471 488 508 458 508 406 c 2
 508 381 l 2
 508 358 491 324 456 279 c 1
 456 273 l 1
 440 225 l 1
 435 175 438 140 448 120 c 0
 458 101 482 79 520 57 c 1
 533 63 l 2
 536 63 549 61 572 57 c 1
 618 65 652 80 675 103 c 1
 703 73 l 1
 713 32 l 1
 682 12 646 -8 604 -26 c 1
 546 -26 l 2
 453 -26 387 27 348 133 c 1
 335 133 l 1
 218 40 156 -7 149 -7 c 0
 145 -7 139 -9 130 -13 c 1
 100 -13 86 -1 86 25 c 1
 107 65 133 94 164 112 c 1
 257 194 303 237 303 241 c 0
 315 263 332 282 354 298 c 1
 384 336 395 364 388 383 c 1
 358 397 l 1
 303 384 250 358 199 320 c 0
 116 259 67 228 54 228 c 0
 15 228 -4 245 -4 279 c 1
 44 339 123 392 233 438 c 0
 270 454 289 466 290 476 c 2
 290 482 l 1
 233 482 190 537 162 648 c 1
 162 667 l 1
 169 684 184 692 207 692 c 2
EndSplineSet
Validated: 33
Ligature2: "'liga' Standard Ligatures in Latin lookup 0 subtable" w i l e
Ligature2: "'liga' Standard Ligatures in Latin lookup 0 subtable" W i l e
EndChar

StartChar: JA
Encoding: 251 61184 244
Width: 677
GlyphClass: 3
Flags: W
LayerCount: 2
Fore
SplineSet
434 667 m 1
 445 667 l 1
 478 658 495 636 495 600 c 0
 495 534 498 469 506 406 c 1
 442 343 369 296 289 267 c 0
 229 245 190 207 172 156 c 1
 110 56 62 6 28 6 c 2
 17 6 l 2
 11 6 6 11 0 22 c 1
 0 39 l 1
 108 184 175 332 200 484 c 1
 434 667 l 1
267 372 m 1
 278 367 l 1
 328 389 375 406 417 417 c 1
 406 528 l 1
 400 528 l 1
 283 428 l 1
 272 401 267 383 267 372 c 1
322 256 m 0
 367 252 389 233 389 200 c 1
 407 196 435 177 472 145 c 1
 484 145 497 133 511 111 c 1
 544 89 561 69 561 50 c 1
 556 35 550 28 545 28 c 0
 503 28 444 56 367 111 c 0
 360 115 354 117 350 117 c 0
 296 39 263 0 250 0 c 2
 245 0 l 1
 215 9 200 20 200 33 c 0
 200 44 228 94 283 183 c 1
 298 232 311 256 322 256 c 0
EndSplineSet
Validated: 1
Ligature2: "'liga' Standard Ligatures in Latin lookup 0 subtable" J A
EndChar

StartChar: JE
Encoding: 252 61186 245
Width: 711
GlyphClass: 3
Flags: W
LayerCount: 2
Fore
SplineSet
538 702 m 1
 555 702 l 1
 573 694 586 682 595 666 c 1
 595 639 l 1
 562 503 541 434 532 430 c 0
 471 385 429 362 408 362 c 1
 408 355 393 348 363 341 c 1
 363 331 l 2
 363 328 367 314 374 289 c 1
 371 282 369 277 369 273 c 2
 380 268 l 1
 391 268 l 1
 401 276 435 288 493 305 c 1
 519 301 532 296 532 289 c 2
 532 263 l 1
 509 238 474 213 425 190 c 1
 374 190 l 1
 374 187 372 177 369 158 c 1
 380 153 l 1
 386 153 l 1
 437 170 480 179 516 179 c 1
 523 168 527 157 527 148 c 2
 527 143 l 2
 527 123 487 99 408 69 c 1
 389 69 378 62 374 48 c 1
 378 30 380 14 380 1 c 0
 380 -17 374 -27 363 -30 c 2
 335 -30 l 2
 315 -30 302 15 295 106 c 1
 299 113 301 118 301 122 c 0
 293 134 290 148 290 164 c 2
 290 232 l 1
 284 284 l 1
 267 284 l 1
 224 202 168 137 98 90 c 1
 47 90 l 1
 24 103 13 112 13 116 c 2
 13 122 l 1
 69 163 98 185 98 190 c 0
 203 318 256 426 256 514 c 0
 256 523 250 535 239 551 c 1
 239 566 l 2
 239 586 276 603 352 619 c 1
 391 648 454 676 538 702 c 1
340 420 m 1
 346 420 l 1
 367 434 401 447 448 462 c 1
 470 483 l 1
 470 503 l 2
 470 508 474 536 482 587 c 1
 482 592 l 1
 395 554 352 526 352 509 c 0
 344 464 340 434 340 420 c 1
EndSplineSet
Validated: 1
Ligature2: "'liga' Standard Ligatures in Latin lookup 0 subtable" J E
EndChar

StartChar: JI
Encoding: 253 61188 246
Width: 500
GlyphClass: 3
Flags: W
LayerCount: 2
Fore
SplineSet
50 -167 m 1
 50 833 l 1
 450 833 l 1
 450 -167 l 1
 50 -167 l 1
100 -117 m 1
 400 -117 l 1
 400 783 l 1
 100 783 l 1
 100 -117 l 1
EndSplineSet
Validated: 1
Ligature2: "'liga' Standard Ligatures in Latin lookup 0 subtable" J I
EndChar

StartChar: JO
Encoding: 254 61190 247
Width: 711
GlyphClass: 3
Flags: W
LayerCount: 2
Fore
SplineSet
482 692 m 1
 493 692 l 2
 532 692 552 669 552 623 c 0
 552 580 546 551 536 538 c 1
 536 511 l 1
 529 459 525 431 525 426 c 2
 525 394 l 1
 510 369 500 357 493 357 c 2
 482 357 l 1
 474 364 467 367 461 367 c 0
 330 323 264 297 264 287 c 2
 254 250 l 1
 264 250 270 247 270 240 c 1
 344 268 429 286 525 293 c 0
 525 296 530 298 541 298 c 2
 584 298 l 2
 588 298 597 289 610 271 c 1
 610 234 l 1
 603 227 591 183 573 101 c 1
 558 59 533 37 498 37 c 1
 378 2 309 -16 291 -16 c 0
 256 -16 233 27 222 112 c 1
 222 202 l 1
 211 202 l 1
 153 114 94 69 35 69 c 1
 12 78 0 87 -2 96 c 0
 -2 102 33 136 104 197 c 1
 186 306 227 395 227 463 c 2
 227 474 l 2
 227 477 223 491 216 516 c 1
 216 538 l 2
 217 550 253 570 323 596 c 1
 330 607 383 639 482 692 c 1
312 415 m 1
 333 415 l 1
 394 433 429 442 440 442 c 1
 440 449 442 453 445 453 c 1
 435 474 l 1
 445 495 451 527 451 570 c 1
 447 570 445 571 445 575 c 1
 370 522 329 495 323 495 c 1
 312 415 l 1
317 170 m 1
 317 112 l 1
 312 75 l 1
 323 75 l 1
 389 92 444 103 488 106 c 1
 488 122 l 2
 488 127 491 146 498 181 c 1
 498 202 l 2
 498 209 495 213 488 213 c 0
 408 199 352 185 317 170 c 1
EndSplineSet
Validated: 1
Ligature2: "'liga' Standard Ligatures in Latin lookup 0 subtable" J O
EndChar

StartChar: JU
Encoding: 255 61192 248
Width: 725
GlyphClass: 3
Flags: W
LayerCount: 2
Fore
SplineSet
523 681 m 1
 544 681 l 1
 572 661 586 642 586 623 c 2
 586 581 l 1
 563 429 544 354 528 354 c 2
 502 354 l 1
 470 359 l 1
 336 320 269 292 269 275 c 1
 189 144 114 79 42 79 c 1
 14 83 0 88 0 95 c 2
 0 100 l 1
 73 150 138 220 195 312 c 0
 231 366 255 446 269 549 c 1
 292 568 318 578 348 581 c 1
 445 631 503 664 523 681 c 1
327 412 m 1
 331 412 333 410 333 407 c 1
 406 431 448 444 459 444 c 2
 480 444 l 1
 480 460 486 490 496 533 c 1
 496 554 l 1
 480 554 l 1
 456 531 410 506 343 480 c 1
 343 472 338 449 327 412 c 1
333 290 m 1
 348 290 l 2
 353 290 367 276 391 248 c 1
 391 158 l 2
 391 146 389 130 385 111 c 1
 389 104 391 99 391 95 c 1
 424 102 451 106 470 106 c 0
 547 100 586 90 586 74 c 2
 586 48 l 2
 584 38 510 22 364 0 c 1
 330 0 305 14 290 42 c 1
 297 57 303 129 306 259 c 1
 311 273 320 284 333 290 c 1
EndSplineSet
Validated: 1
Ligature2: "'liga' Standard Ligatures in Latin lookup 0 subtable" J U
EndChar

StartChar: KA
Encoding: 256 61194 249
Width: 725
GlyphClass: 3
Flags: W
LayerCount: 2
Fore
SplineSet
351 677 m 1
 382 677 l 1
 398 667 413 651 426 627 c 1
 426 608 l 1
 415 590 403 550 389 489 c 1
 295 217 218 81 157 81 c 2
 150 81 l 2
 144 81 136 90 125 107 c 1
 196 246 251 382 288 514 c 1
 276 520 l 1
 237 504 172 467 81 407 c 1
 69 407 l 1
 23 416 0 437 0 470 c 1
 9 489 99 541 269 627 c 1
 351 677 l 1
401 338 m 0
 414 338 440 309 476 251 c 1
 581 159 633 107 633 94 c 2
 633 75 l 2
 633 69 627 63 614 56 c 1
 574 56 509 94 420 169 c 1
 414 169 l 1
 370 89 329 33 288 0 c 1
 269 0 l 1
 244 14 232 27 232 38 c 0
 232 47 259 89 313 163 c 1
 334 208 355 262 376 326 c 1
 386 334 395 338 401 338 c 0
EndSplineSet
Validated: 1
Ligature2: "'liga' Standard Ligatures in Latin lookup 0 subtable" K A
EndChar

